P3
64 64
255
250 186 94 250 187 99 254 243 210 251 215 221 238 45 52 236 13 23 242 106 112 255 255 255 255 255 255 248 179 182 239 64 71 239 51 59 240 65 73 247 164 167 255 255 255 254 243 226 250 174 60 251 191 100 254 252 248 255 255 254 255 254 253 255 255 255 255 255 255 255 253 251 252 224 183 250 181 77 250 170 49 252 220 172 255 255 255 255 254 252 240 63 70 236 16 24 252 222 231 253 232 186 249 170 53 250 173 56 252 218 166 255 255 255 255 254 253 254 248 239 250 181 75 250 180 72 254 245 235 255 255 255 246 145 149 235 1 11 240 76 83 255 255 255 255 254 254 255 255 255 253 238 239 253 239 239 255 255 255 253 239 240 239 68 75 235 6 16 237 29 38 237 28 37 237 29 38 240 79 86 247 167 170 254 246 246 255 255 255 249 196 198 
255 253 253 255 255 255 250 202 207 238 44 52 237 19 29 236 14 24 244 128 133 254 243 244 249 180 183 250 198 200 255 254 254 254 244 245 255 252 252 255 254 253 255 255 255 253 233 203 249 168 44 252 209 144 255 255 255 255 255 255 254 251 245 253 223 178 254 248 239 255 255 255 255 255 255 254 240 220 249 174 61 251 199 119 255 255 255 254 244 243 239 49 57 237 22 31 252 220 220 255 255 255 252 216 163 250 170 49 251 192 102 255 255 254 255 255 255 253 237 212 250 175 60 250 184 82 254 249 245 255 255 255 252 221 222 237 29 38 237 29 38 249 195 197 251 214 215 245 142 146 239 56 64 243 109 115 255 255 255 255 251 251 254 251 251 244 131 136 236 20 29 236 15 25 239 65 72 254 249 249 255 255 255 253 237 237 243 112 118 237 23 33 
245 133 139 245 144 148 236 24 33 236 14 24 238 45 53 237 29 38 236 20 29 237 35 43 235 0 9 238 51 57 254 246 246 240 73 80 242 94 100 251 212 213 255 255 255 254 241 225 250 175 60 250 182 79 253 233 201 254 246 233 251 200 122 249 163 32 252 218 165 255 255 255 251 211 209 254 245 248 254 244 224 254 239 219 255 255 255 252 220 221 237 25 34 238 41 50 253 239 239 255 255 255 254 248 239 250 181 76 250 174 59 252 219 169 253 238 213 250 189 96 249 167 41 252 213 156 255 255 255 251 212 212 253 242 242 242 98 104 236 14 23 237 29 38 236 17 27 235 0 6 235 3 11 247 159 163 255 255 255 255 253 253 253 230 231 255 255 255 249 194 196 237 37 45 236 12 22 246 152 156 255 255 255 244 130 134 234 0 0 238 32 41 
235 1 8 236 14 23 236 14 23 244 126 131 255 255 255 245 143 147 236 15 24 237 24 33 238 44 52 251 211 213 255 255 255 243 116 121 234 0 3 237 27 36 248 174 176 255 255 255 251 211 152 249 168 44 250 171 50 250 174 59 250 169 47 249 172 57 254 244 215 251 216 223 235 10 18 243 120 125 255 255 255 255 251 251 255 255 255 249 181 184 235 4 14 241 83 89 255 255 255 255 249 248 255 255 255 252 213 154 249 168 44 250 171 52 250 170 50 249 167 43 250 195 116 255 255 252 254 246 246 237 31 40 243 111 116 249 188 191 235 0 8 236 19 28 238 42 50 242 97 103 250 198 200 255 255 255 254 249 249 245 145 149 235 11 21 245 136 140 255 255 255 249 186 189 236 20 29 237 29 38 252 221 222 255 255 255 243 113 118 236 11 21 
243 114 119 237 33 41 236 13 22 248 168 171 255 255 255 249 190 193 236 17 27 237 27 36 250 200 202 255 255 255 255 252 252 255 255 255 245 144 149 236 13 22 236 15 25 248 184 187 255 255 255 252 224 184 251 196 113 251 190 97 251 198 119 253 228 197 255 255 255 246 148 151 236 13 23 235 0 10 243 118 122 255 255 255 255 255 255 244 119 124 234 0 0 247 170 173 255 255 255 255 252 252 255 255 255 255 254 252 252 215 162 251 191 101 251 192 103 252 219 168 255 251 249 255 255 255 246 153 157 235 5 15 240 66 73 254 245 246 246 151 155 249 186 189 254 248 248 255 255 255 255 255 255 250 196 198 240 74 81 235 0 9 237 33 41 251 219 220 255 255 255 252 229 230 238 40 49 236 17 26 241 81 88 253 242 242 255 255 255 247 168 172 
255 255 255 241 88 94 235 0 9 246 144 148 255 255 255 248 179 181 235 3 13 241 89 96 255 255 255 255 255 255 244 123 128 247 165 168 255 255 255 245 146 150 236 11 21 238 50 58 254 244 244 255 255 255 255 254 254 255 254 254 255 255 255 255 252 252 255 255 255 241 90 96 236 10 19 245 145 149 253 237 238 255 252 252 255 255 255 246 155 159 243 112 118 255 255 255 253 235 235 248 180 183 248 179 182 253 234 234 255 255 255 255 254 254 255 254 254 255 255 255 250 199 201 243 106 111 237 33 42 235 2 12 243 115 121 255 255 255 255 251 251 255 255 255 252 218 220 246 149 153 240 71 78 235 9 18 235 1 10 239 59 67 250 206 208 255 255 255 253 236 237 241 91 97 236 15 25 236 17 27 236 11 21 238 47 55 248 183 185 255 255 255 
255 255 255 241 82 89 235 0 9 246 152 156 255 255 255 242 104 110 235 0 8 247 167 171 255 255 255 255 255 255 239 59 66 236 15 24 250 205 207 255 255 255 239 55 63 236 12 22 250 200 202 255 255 255 255 250 250 255 255 255 253 235 235 254 245 244 253 240 241 237 35 44 238 46 54 254 245 246 255 255 255 255 254 254 255 255 255 255 253 253 255 255 255 247 171 174 237 39 47 235 5 15 236 9 19 237 38 46 248 183 184 255 255 255 255 255 255 249 192 193 234 0 5 235 1 7 236 14 24 240 78 84 253 233 234 255 254 254 255 255 255 246 151 156 234 0 6 235 0 5 236 11 19 240 67 74 246 156 160 254 244 245 255 255 255 246 157 161 237 38 47 235 0 6 238 49 57 248 173 176 239 60 68 235 2 12 236 17 26 242 100 106 
250 205 207 237 29 38 236 21 30 252 220 222 252 218 220 236 18 27 238 48 56 252 227 228 248 172 175 255 255 255 246 152 156 235 0 7 238 42 51 241 90 96 237 28 37 237 26 35 252 226 227 255 255 255 255 255 255 251 214 216 238 43 51 242 94 101 245 145 149 236 7 17 241 88 94 255 255 255 246 155 158 250 202 204 255 255 255 255 255 255 248 183 186 236 12 21 236 13 23 240 70 77 238 49 57 236 9 19 237 38 47 253 234 234 255 255 255 252 223 224 245 137 142 246 150 154 250 195 197 254 250 250 255 255 255 255 251 251 255 255 255 248 173 176 243 112 117 247 160 165 251 217 226 255 253 254 255 254 254 255 255 255 252 222 223 237 31 39 237 29 37 241 87 94 251 211 212 255 255 255 253 241 241 244 125 128 236 21 30 235 3 13 
242 102 108 235 4 14 241 86 93 255 255 255 242 95 101 234 0 4 246 153 157 250 199 201 234 0 2 241 92 99 254 249 250 243 117 122 235 5 14 235 2 10 235 9 18 245 142 146 255 255 255 255 255 255 253 242 243 238 53 61 236 8 18 235 5 13 235 6 14 235 0 8 246 153 157 254 248 248 235 7 17 240 74 81 255 255 255 255 253 254 239 63 71 236 10 20 246 155 158 255 255 255 253 234 235 240 71 78 235 5 14 248 173 176 255 255 255 255 252 252 255 255 255 255 253 254 255 255 255 251 216 217 241 94 100 252 222 223 255 255 255 255 253 253 255 255 255 255 254 247 254 238 198 255 251 247 255 252 254 255 253 253 255 254 254 254 244 245 254 246 247 255 255 255 255 254 254 255 250 250 255 253 253 255 255 255 250 205 209 240 78 84 
237 29 38 236 16 25 250 203 205 252 218 220 236 8 18 238 44 52 254 255 255 246 143 147 236 15 24 236 14 23 240 76 83 253 246 246 250 195 197 245 136 141 249 192 194 255 255 255 254 242 231 255 255 255 246 152 156 235 1 11 240 70 77 246 154 158 243 102 108 243 105 111 254 252 253 250 201 203 236 12 22 240 65 73 255 255 255 252 223 224 236 18 27 240 73 80 255 255 255 255 249 249 255 255 255 244 123 129 235 0 6 246 151 155 255 255 255 254 247 248 254 249 249 255 255 255 252 225 226 238 51 59 237 32 40 240 76 82 254 251 251 255 254 254 254 250 248 250 190 103 249 168 46 254 244 228 255 255 255 255 252 251 255 255 255 254 247 247 251 210 212 250 194 197 253 231 231 255 255 255 254 247 239 251 208 145 254 246 226 254 252 255 
236 15 24 240 80 86 255 255 255 249 181 184 235 16 26 248 184 186 255 255 255 242 101 107 236 13 22 238 38 46 236 15 24 239 60 67 253 237 238 255 255 255 255 255 255 252 222 177 250 178 72 255 255 252 242 100 109 235 1 10 248 176 179 255 255 255 255 252 252 255 253 253 255 255 255 243 117 122 235 0 10 242 98 104 255 255 255 252 218 220 236 19 28 240 69 76 254 253 253 255 255 255 251 214 215 238 51 59 237 20 30 239 64 72 251 212 214 255 255 255 255 255 255 253 241 241 238 48 56 241 85 92 255 255 255 237 32 41 242 100 104 255 255 255 252 221 176 249 167 41 251 195 110 255 255 255 255 254 254 255 253 253 246 153 157 238 43 51 235 7 16 236 8 18 237 33 41 247 165 170 255 255 250 250 175 63 250 178 72 254 244 230 
236 13 23 248 171 174 255 255 255 254 245 245 253 230 231 255 255 255 250 198 200 238 44 52 237 27 36 236 17 26 236 18 27 235 0 10 241 83 89 255 255 255 254 243 230 250 177 67 250 175 65 255 255 249 242 99 108 235 6 15 251 215 216 248 178 181 240 71 78 241 84 91 240 68 76 237 20 29 236 12 22 249 192 194 255 255 255 254 252 252 239 60 68 236 7 16 241 87 94 242 101 107 237 26 35 236 6 16 236 14 24 236 8 18 236 23 32 245 140 145 255 255 255 250 203 205 235 1 11 241 85 92 251 222 223 237 30 39 239 59 66 255 255 255 251 195 110 249 168 45 252 223 178 255 255 255 254 251 250 242 101 107 235 0 8 237 26 35 241 86 92 240 73 80 236 12 21 236 17 24 252 231 240 253 224 170 249 165 40 251 209 144 
237 37 45 252 226 227 255 255 255 255 255 255 254 244 245 242 101 107 236 12 22 236 9 19 235 4 14 243 113 119 248 181 183 240 77 84 235 6 13 251 210 220 253 230 178 249 165 42 250 191 106 255 255 255 247 162 165 233 0 0 247 164 168 244 134 138 235 0 9 235 5 15 235 5 15 237 30 39 246 157 160 255 255 255 254 247 247 255 255 255 249 192 195 238 39 48 235 5 15 235 5 15 237 35 44 243 114 119 248 172 175 241 90 97 236 19 28 234 0 0 243 118 123 255 255 255 241 91 98 236 11 21 238 48 56 235 7 16 246 156 163 255 255 245 250 174 63 250 182 77 254 245 236 255 255 255 246 148 151 235 0 8 239 63 71 252 222 223 255 255 255 255 255 255 248 180 183 238 45 51 252 217 225 254 243 211 249 169 50 251 193 105 
239 51 58 254 240 240 255 255 255 255 255 255 242 102 109 235 0 9 239 49 57 242 98 104 248 181 183 255 255 255 255 255 255 254 250 250 250 198 199 254 243 249 251 203 124 249 166 41 253 227 187 255 255 255 254 251 250 246 148 153 250 198 200 255 255 255 252 223 224 249 180 183 249 181 184 252 229 230 255 255 255 255 254 254 255 255 255 255 255 255 255 255 255 254 244 245 251 208 209 251 207 209 253 239 239 255 255 255 255 254 254 255 255 255 250 204 206 241 85 92 240 75 82 255 255 255 251 218 219 237 30 39 237 21 30 237 38 45 253 236 244 253 233 195 249 166 42 251 208 142 255 255 255 254 250 249 239 58 66 236 13 23 250 195 197 255 255 255 255 251 251 255 255 255 255 255 255 254 243 243 255 255 255 254 241 221 250 171 53 251 200 122 
238 40 49 253 233 233 255 255 255 252 228 229 237 24 33 238 50 58 250 208 209 249 187 190 246 149 153 245 138 142 250 203 205 255 255 255 255 254 254 255 255 255 250 186 88 251 196 113 255 255 255 255 255 254 255 255 255 253 235 236 251 204 206 251 210 212 255 251 251 255 255 255 255 254 254 255 255 255 254 251 251 246 158 161 245 135 140 247 163 167 249 189 191 251 214 216 254 241 241 255 255 255 255 253 253 254 243 244 254 242 242 255 254 254 255 255 255 255 255 255 255 255 255 255 249 249 255 255 255 244 133 137 234 0 0 243 114 117 255 255 255 252 210 150 249 165 37 253 237 213 255 255 255 251 215 215 236 18 27 240 65 73 254 252 252 255 255 255 252 230 231 240 75 82 249 181 184 255 255 255 255 252 255 254 242 225 250 176 64 253 231 198 
242 93 100 255 254 254 255 255 255 251 211 212 236 21 30 238 40 48 238 48 56 235 2 9 234 0 2 235 0 6 236 15 25 245 136 140 255 255 255 255 255 255 253 235 208 254 246 234 255 255 255 253 233 233 239 63 71 235 1 11 235 3 13 236 19 28 239 52 60 246 156 160 255 255 255 255 255 255 243 118 123 235 0 7 235 1 6 235 0 7 235 4 14 236 16 26 237 28 37 238 46 55 239 52 60 238 45 53 236 23 32 250 193 196 255 255 255 250 203 205 251 215 216 255 255 255 255 255 255 253 239 239 241 88 94 251 211 212 255 255 255 253 234 208 252 213 153 255 252 253 255 255 255 247 158 161 235 0 6 245 132 137 255 255 255 252 224 225 239 56 64 235 3 13 242 95 101 253 237 238 255 255 255 255 251 248 254 242 224 255 255 254 
253 243 244 244 127 131 251 208 210 254 244 244 238 38 46 237 22 31 236 13 22 240 74 81 244 124 129 243 107 113 237 32 41 235 1 11 246 151 155 255 255 255 255 253 253 255 253 252 255 255 255 253 234 235 244 124 129 244 120 126 242 92 99 238 41 50 236 7 16 235 6 16 246 150 154 246 157 160 235 3 13 239 60 68 244 123 128 243 102 108 241 81 87 238 48 56 237 34 42 237 25 34 237 27 36 238 41 49 243 110 115 253 239 240 255 255 255 241 89 95 235 5 15 245 145 149 255 255 255 255 252 252 255 255 255 255 254 254 255 253 253 255 253 253 255 254 254 255 255 255 254 243 243 239 54 62 236 18 27 251 208 210 255 255 255 247 160 163 235 5 15 236 17 27 236 9 19 237 34 43 245 135 140 254 249 250 255 255 255 255 254 253 
242 100 106 234 0 2 250 198 200 254 246 247 238 38 46 236 14 24 245 147 151 255 255 255 255 252 252 255 255 255 250 206 208 237 33 42 237 26 35 252 222 223 255 255 255 255 255 254 254 245 246 251 210 211 252 219 221 254 243 243 255 255 255 254 247 247 245 147 151 237 25 34 236 18 27 236 13 22 238 41 50 252 227 228 255 255 255 254 245 246 251 221 222 254 244 245 253 230 231 252 222 223 252 226 227 254 244 244 255 255 255 255 251 251 255 255 255 251 213 214 237 30 39 235 2 12 245 141 145 255 255 255 255 251 251 255 253 253 255 254 254 255 255 255 255 251 250 255 255 255 245 141 146 235 0 7 242 95 101 255 255 255 255 251 251 255 254 254 252 219 220 246 149 153 240 73 80 236 13 23 235 4 14 241 95 101 254 252 252 255 255 255 
236 17 26 238 47 55 255 255 255 249 184 187 235 1 11 241 88 95 255 255 255 254 248 249 245 142 147 244 129 134 255 255 255 244 130 134 234 0 4 245 137 142 255 255 255 254 245 245 240 77 84 236 14 24 236 17 26 237 26 35 240 71 78 250 203 205 255 255 255 247 164 168 236 20 29 237 23 32 248 179 182 255 255 255 248 176 179 238 42 50 238 46 54 254 250 250 255 255 255 255 254 254 255 255 255 255 255 255 255 255 255 255 255 255 255 251 251 255 255 255 248 180 183 236 20 29 236 23 32 251 212 214 255 255 255 255 255 255 252 222 223 241 91 97 250 202 204 255 255 255 238 48 56 236 11 21 249 189 192 255 255 255 255 252 252 255 254 254 254 248 249 255 254 254 255 255 255 247 163 167 237 31 39 235 4 14 244 135 139 255 255 255 
236 14 24 241 87 93 255 255 255 245 134 139 234 0 5 247 160 164 255 255 255 246 145 149 234 0 3 237 34 42 255 255 255 249 190 193 235 3 13 241 88 95 255 255 255 252 216 217 236 20 29 237 26 35 237 30 39 237 31 40 235 3 13 237 27 36 250 202 204 255 255 255 242 97 103 235 1 11 249 183 186 253 237 237 237 28 37 235 0 7 244 121 126 255 255 255 251 213 215 246 154 158 243 113 119 243 107 113 245 135 139 249 185 188 254 251 251 255 251 251 255 255 255 244 121 126 235 0 7 244 125 130 255 255 255 252 227 228 238 49 57 234 0 2 250 201 203 250 205 207 235 4 14 240 71 78 254 253 253 255 255 255 252 224 226 241 85 92 238 37 46 239 54 62 248 180 183 255 255 255 247 165 168 236 15 24 237 33 42 251 218 219 
236 10 20 244 119 124 255 255 255 242 100 106 235 2 12 250 191 194 255 255 255 241 86 92 235 3 13 243 114 119 255 255 255 251 213 214 236 16 25 241 74 81 255 255 255 254 242 243 238 50 58 236 12 22 248 169 172 254 243 244 243 113 118 235 6 16 239 64 72 255 255 255 250 194 197 235 2 12 242 90 97 251 219 221 235 4 13 239 67 74 254 247 247 243 113 118 235 0 8 234 0 4 235 1 10 235 2 12 234 0 5 235 7 16 240 80 87 252 224 225 255 255 255 250 202 204 236 9 19 241 76 83 255 255 255 243 114 119 235 1 11 240 67 74 255 255 255 246 147 151 234 0 4 245 141 145 255 255 255 255 255 255 241 86 92 235 1 11 236 22 31 235 3 13 237 28 37 252 227 228 255 255 255 241 81 88 235 4 14 246 145 149 
236 10 20 243 114 120 255 255 255 242 98 104 235 2 12 249 189 191 255 255 255 241 83 90 235 3 13 248 179 182 255 255 255 251 204 206 236 9 19 242 90 97 255 255 255 255 255 255 241 88 94 235 5 15 249 192 194 255 255 255 253 236 236 239 50 58 236 10 19 248 180 183 254 250 250 237 34 43 238 36 45 253 235 236 248 176 179 253 230 231 255 255 255 244 117 122 244 121 126 249 180 183 251 207 209 251 206 208 246 155 158 238 53 61 235 0 10 238 50 58 252 228 229 250 198 200 235 6 16 241 81 88 253 240 241 238 43 52 236 16 26 241 87 94 255 255 255 242 102 108 235 0 8 248 172 175 255 255 255 253 232 233 237 34 43 238 46 54 251 209 211 244 126 131 236 23 32 250 205 206 255 255 255 246 150 154 235 5 15 240 70 77 
236 15 24 241 80 86 255 255 255 244 124 130 235 0 5 247 155 159 255 255 255 244 127 132 235 0 8 244 131 136 255 255 255 244 120 125 235 0 7 246 143 147 255 255 255 255 255 255 242 94 100 236 11 21 238 40 48 241 75 82 240 70 78 237 28 37 235 0 6 245 132 137 255 255 255 237 33 42 238 42 50 254 241 241 255 255 255 255 254 254 255 255 255 255 255 255 253 240 241 252 221 223 252 226 227 254 249 249 255 255 255 253 239 240 241 82 89 235 0 10 238 38 47 239 53 61 235 0 10 245 136 141 249 187 189 234 0 3 236 15 24 236 10 19 238 48 56 238 38 46 236 16 25 243 119 124 255 255 255 250 196 199 235 7 17 242 91 97 255 255 255 255 251 251 252 230 231 254 247 248 255 255 255 246 146 150 236 13 23 237 32 40 
237 20 30 238 43 51 255 255 255 248 177 180 235 0 8 242 98 104 255 255 255 252 221 222 237 30 39 236 12 21 238 43 52 236 10 20 237 35 43 252 226 227 255 255 255 250 205 207 237 32 41 236 20 29 240 76 83 241 79 85 239 59 67 239 59 66 241 88 93 253 237 237 252 220 221 236 11 21 241 83 89 255 255 255 255 255 255 251 209 211 243 115 120 238 48 56 236 17 26 235 4 14 235 5 15 237 25 34 241 94 100 253 235 236 254 248 248 242 105 111 236 16 26 235 5 15 237 42 50 252 231 232 252 223 224 246 150 153 247 162 166 243 110 116 238 43 51 236 13 23 236 13 22 236 16 25 242 94 100 240 75 82 235 3 13 243 115 121 255 255 255 254 248 248 255 253 253 255 255 255 252 225 226 238 50 58 236 17 26 236 12 22 
238 43 52 236 9 18 248 176 179 254 245 245 237 31 40 237 29 38 251 218 219 255 255 255 248 183 185 238 44 52 236 18 27 238 50 58 249 189 192 255 255 255 252 230 231 239 57 65 235 0 10 242 108 113 255 255 255 255 254 254 255 255 255 255 255 255 255 252 252 255 255 255 249 185 187 235 5 15 240 76 83 250 206 207 243 109 115 235 7 15 235 5 14 237 35 44 239 60 68 241 87 94 243 104 110 241 81 88 236 25 34 246 158 161 255 255 255 255 252 252 251 208 210 248 173 176 253 231 232 255 255 255 255 254 254 255 255 255 255 255 255 255 255 255 254 249 249 249 186 189 242 104 109 238 47 55 235 6 16 235 7 16 236 18 28 249 185 188 255 255 255 255 251 251 255 255 255 251 212 213 238 49 57 235 1 11 239 61 68 246 153 157 
245 138 143 236 7 17 240 66 74 255 255 255 243 116 121 235 0 8 242 97 103 255 255 255 255 255 255 254 243 244 252 221 223 254 249 249 255 255 255 251 217 218 239 60 68 235 2 12 240 77 84 255 255 255 250 199 201 247 170 173 255 255 255 255 255 255 252 222 181 254 240 211 252 225 230 236 24 32 236 11 20 236 9 18 235 3 10 243 118 124 252 228 229 255 255 255 255 255 255 255 255 255 255 255 255 255 255 255 255 255 255 255 255 255 255 251 251 255 253 253 255 255 255 255 255 255 253 232 233 252 219 221 255 253 253 255 255 255 255 255 255 255 254 254 255 252 252 255 255 255 255 255 255 254 242 243 250 201 204 249 179 182 251 211 213 255 255 255 255 255 255 253 238 239 247 165 168 237 37 45 236 12 22 240 76 82 252 230 231 255 255 255 
242 92 98 237 28 37 236 13 23 249 180 183 253 240 241 237 34 43 236 7 17 241 84 91 249 189 192 253 233 234 254 241 242 251 205 207 244 126 131 237 34 43 236 12 22 239 65 73 252 231 232 255 255 255 244 120 125 235 4 13 252 223 223 255 255 255 250 182 81 250 189 97 255 255 255 249 187 189 240 73 80 239 54 62 248 174 177 255 255 255 252 220 221 246 143 147 242 94 100 240 72 79 241 80 87 243 112 117 248 170 174 253 239 239 255 255 255 255 251 252 255 255 255 254 244 244 239 54 62 237 22 32 239 64 71 247 168 171 248 182 185 241 80 86 238 37 45 239 59 67 248 175 178 255 255 255 255 253 253 255 254 254 255 255 255 253 236 237 243 120 125 237 37 46 235 5 15 237 25 34 237 21 30 244 134 138 255 255 255 255 253 253 
236 15 24 236 17 27 236 12 22 241 80 87 255 255 255 249 189 191 237 34 43 235 0 7 235 7 16 237 29 38 237 29 38 236 10 19 235 0 6 236 18 27 236 14 24 244 119 124 255 255 255 255 255 255 246 151 154 234 0 5 247 156 160 255 255 255 250 184 89 250 182 78 254 251 247 255 255 255 255 252 251 255 255 255 253 240 241 242 106 112 236 17 27 235 0 5 235 2 11 236 10 20 235 6 16 235 0 6 235 3 10 238 43 52 247 165 168 255 255 255 255 255 255 252 224 225 237 30 38 237 24 33 237 29 38 236 11 20 236 12 22 236 20 29 240 75 82 236 20 29 236 22 32 252 223 224 255 255 255 255 255 255 251 217 218 238 53 61 235 1 11 236 17 26 239 63 71 237 37 45 236 10 20 236 11 21 239 54 62 244 130 135 
252 227 228 249 185 188 237 34 42 238 35 44 253 234 234 255 255 255 253 238 239 246 144 149 240 70 77 238 38 47 238 36 44 239 61 69 244 128 133 246 152 156 236 20 29 238 41 49 252 225 226 255 255 255 246 153 157 234 0 4 245 132 138 255 255 255 250 180 78 250 179 70 254 248 238 255 252 255 255 255 255 251 216 217 238 50 58 235 0 10 237 30 39 243 117 122 249 184 187 252 217 219 251 211 212 247 162 166 240 77 84 236 10 19 235 7 17 244 135 139 255 255 255 252 218 219 237 27 36 237 28 37 252 227 228 247 169 172 236 17 26 238 37 46 254 244 245 245 137 141 235 0 5 246 144 149 255 255 255 251 214 215 238 48 56 236 12 21 239 63 70 252 222 224 255 255 255 253 232 233 245 137 142 238 51 59 235 5 15 235 1 11 
255 255 255 251 221 222 238 41 49 237 31 40 253 237 238 252 227 228 249 184 187 253 237 237 255 255 255 254 252 252 255 253 253 255 255 255 255 254 254 255 255 255 240 80 86 235 0 9 245 143 147 255 255 255 245 133 137 234 0 3 245 137 144 255 255 251 250 175 67 250 180 73 254 247 237 255 255 255 253 233 233 238 51 59 236 5 15 239 69 76 251 219 220 255 255 255 255 255 255 253 234 235 253 238 239 255 255 255 255 255 255 246 152 156 237 23 32 236 10 19 248 177 180 255 255 255 238 42 51 236 13 22 247 169 173 255 255 255 240 70 78 235 1 11 249 190 192 251 206 208 235 3 13 240 67 75 250 209 211 238 44 52 235 3 12 237 22 31 239 55 63 247 163 167 251 205 207 254 243 244 255 255 255 254 244 244 247 163 166 240 75 80 
238 47 55 236 21 31 236 13 22 238 44 52 255 255 255 246 148 152 233 0 0 236 18 27 239 62 69 242 102 108 244 121 126 243 112 117 240 75 82 251 212 214 250 198 200 234 0 2 242 98 104 255 255 255 242 98 104 235 0 6 247 164 173 255 253 227 249 169 52 250 186 89 254 250 247 255 255 255 243 109 114 235 2 12 239 62 69 253 236 237 255 255 255 255 255 255 244 131 136 236 13 23 237 31 40 241 83 89 251 208 210 255 255 255 245 141 145 235 5 15 239 57 65 255 255 255 245 138 143 234 0 4 237 38 45 255 255 255 243 108 114 235 0 5 246 150 153 255 255 255 238 51 59 237 21 31 236 19 28 237 29 38 246 153 156 238 50 56 235 2 10 235 1 7 235 7 17 236 15 23 249 190 190 255 255 255 255 253 253 255 254 255 
237 33 42 238 41 49 237 30 39 244 120 125 255 255 255 254 251 251 246 154 158 239 55 62 236 14 24 235 0 8 234 1 3 235 0 8 237 34 43 250 203 205 255 255 255 243 116 122 247 164 168 255 255 255 239 57 65 236 12 20 251 212 221 253 233 185 249 165 40 251 198 120 255 255 255 252 227 227 237 33 42 236 17 26 249 186 188 255 255 255 255 250 250 255 255 255 244 119 125 237 23 32 237 23 32 235 3 13 237 37 45 252 228 229 254 248 248 238 50 58 236 18 28 251 212 213 255 255 255 247 166 170 247 160 164 252 226 227 238 49 57 235 5 15 247 166 169 255 255 255 240 80 87 236 16 25 236 23 32 248 179 182 255 255 255 252 229 234 245 136 141 242 91 95 242 90 96 245 135 145 253 239 242 255 255 255 254 240 225 253 227 189 
255 254 254 254 242 242 253 236 237 255 253 253 255 254 254 255 253 253 255 255 255 254 249 250 251 210 211 249 184 187 249 188 190 251 217 219 255 254 254 255 255 255 255 252 252 255 252 252 255 255 255 251 215 216 235 3 13 240 70 75 255 255 255 251 206 136 249 166 40 252 219 173 255 255 255 249 183 184 235 7 17 239 63 71 254 253 253 254 245 246 246 146 150 249 182 185 255 254 254 254 250 250 253 241 242 242 102 108 235 0 8 246 142 146 255 255 255 241 78 84 235 6 16 251 216 217 255 255 255 255 254 254 254 251 251 240 77 84 235 4 14 239 55 63 255 255 255 246 155 158 236 21 30 236 17 27 246 155 158 255 255 255 253 226 196 253 231 190 255 255 255 255 254 254 255 255 255 255 255 237 253 223 170 251 194 109 250 179 70 250 170 49 
250 194 196 253 233 234 255 255 255 255 253 253 255 255 255 253 241 241 249 185 187 254 241 242 255 255 255 254 244 245 250 196 198 248 170 174 248 169 172 251 211 213 255 255 255 255 251 251 255 255 255 252 223 225 240 72 79 250 206 208 255 255 255 250 181 78 250 179 72 254 247 240 255 255 255 248 168 171 235 0 9 242 91 98 255 255 255 252 222 223 235 10 17 236 10 20 240 66 73 246 151 155 249 185 188 240 73 80 235 0 9 246 145 149 255 255 255 243 110 116 241 84 90 255 255 255 255 252 252 255 255 255 242 101 107 236 6 16 237 34 43 252 223 224 250 197 199 236 21 30 237 18 28 236 11 21 244 126 130 255 255 255 251 201 125 249 164 38 251 194 112 252 211 151 250 187 93 249 168 49 249 165 38 250 170 49 250 175 62 250 190 96 
234 0 0 245 144 148 255 255 255 255 255 255 253 237 237 239 67 75 235 4 14 252 219 220 253 231 232 237 37 46 235 4 14 235 1 9 235 1 8 235 3 13 241 94 100 254 252 252 255 255 255 255 254 254 255 255 255 255 254 254 255 255 255 251 209 143 253 233 201 255 255 255 255 255 255 249 181 184 235 4 14 240 74 81 255 255 255 255 255 255 247 166 169 237 28 37 237 20 29 235 3 11 235 0 6 235 0 8 239 59 67 253 236 237 255 255 255 254 243 243 254 246 246 255 252 252 255 255 255 245 137 142 236 10 20 236 22 31 250 203 205 251 218 219 237 34 42 236 10 19 241 88 95 239 63 70 234 0 3 247 161 171 254 242 207 249 170 52 250 172 53 249 165 38 249 172 59 250 192 105 253 226 185 252 213 154 250 170 50 250 188 94 
243 109 115 254 241 242 255 255 255 255 255 255 244 125 130 234 0 3 242 95 101 255 255 255 251 216 217 237 31 39 238 42 50 241 78 85 242 99 105 242 98 104 243 107 113 254 243 244 255 255 255 255 254 254 255 253 253 255 253 253 255 254 252 255 255 255 254 244 229 250 190 100 253 230 183 252 224 232 237 26 33 237 26 35 250 206 207 255 255 255 253 238 239 238 50 58 236 17 27 240 77 83 243 104 110 245 133 138 253 234 235 255 255 255 255 254 254 255 255 255 255 253 253 255 255 255 248 178 181 236 19 28 236 9 19 247 160 164 252 223 225 237 37 46 236 7 16 239 57 65 254 247 247 251 209 211 237 34 43 236 17 26 252 231 231 251 204 124 250 185 89 253 228 181 255 255 247 255 255 255 255 255 254 255 255 255 251 203 130 250 168 44 
255 255 255 255 254 254 255 255 255 255 254 254 240 64 71 236 9 19 249 184 187 255 255 255 255 254 254 253 231 232 253 234 234 255 255 255 255 255 255 255 255 255 255 255 255 255 255 255 255 255 255 255 255 255 255 255 255 255 254 252 255 255 255 253 228 191 250 180 74 249 166 39 251 199 123 255 255 255 241 90 94 235 1 12 240 67 74 248 174 177 241 90 96 235 3 13 240 77 83 254 254 254 255 255 255 255 254 254 255 255 255 254 243 242 240 77 83 244 119 124 250 202 204 248 172 176 237 35 44 235 3 13 243 119 124 252 229 230 236 22 30 235 0 10 239 66 73 252 225 226 255 255 255 255 255 255 253 234 235 250 202 204 255 251 251 255 253 250 255 255 255 252 223 227 243 111 121 250 199 200 255 255 255 255 255 255 255 253 249 251 206 137 
255 250 251 255 254 254 255 255 255 255 255 255 240 66 73 235 6 16 245 144 148 255 255 255 255 249 249 255 254 254 255 255 255 255 255 255 255 255 255 255 255 255 255 255 255 255 254 254 255 252 253 255 255 255 255 254 254 255 255 255 252 216 160 250 173 57 250 172 53 250 178 68 253 234 207 255 255 255 252 222 222 238 48 55 235 2 10 235 1 8 235 0 8 238 48 56 252 222 224 255 255 255 255 249 250 255 254 254 255 253 254 255 255 255 242 98 104 234 0 0 235 9 18 235 6 16 235 4 13 242 101 106 255 255 255 251 207 208 241 86 91 246 151 153 253 242 242 255 255 255 254 246 246 246 157 161 241 82 89 242 92 98 254 242 243 255 254 253 255 255 255 252 230 230 237 25 33 236 15 25 242 102 108 252 221 222 255 255 255 254 251 250 
255 255 255 255 254 254 255 252 252 255 255 255 246 150 154 235 6 16 237 27 36 249 185 188 255 255 255 255 253 253 255 253 253 250 201 203 248 173 176 249 186 189 251 217 218 254 250 250 255 255 255 255 253 252 255 255 255 252 217 164 250 170 50 250 175 62 251 196 113 254 240 219 255 255 255 255 253 253 255 255 255 253 235 240 246 146 154 242 98 104 244 125 131 252 227 228 255 255 255 255 253 252 255 255 255 252 210 147 250 189 96 253 226 182 254 252 254 246 154 159 240 76 83 240 76 83 246 156 159 255 253 253 255 255 255 255 255 255 255 255 255 255 255 255 255 253 253 255 255 255 252 220 220 238 45 53 236 17 27 244 124 129 255 255 255 255 255 255 255 253 253 253 236 237 240 71 78 237 20 30 234 0 5 246 151 155 255 255 255 255 251 252 
250 198 200 255 255 255 255 254 254 255 255 255 255 255 255 242 104 110 236 5 15 237 30 38 246 152 156 250 194 196 241 90 97 236 12 22 235 0 9 235 0 8 236 17 27 239 57 65 248 177 180 255 255 255 254 243 229 250 179 72 250 174 58 251 213 153 255 255 255 255 254 254 255 255 255 255 255 255 255 253 253 254 241 212 255 252 238 255 255 255 255 255 254 255 255 255 249 184 187 244 124 127 253 233 238 253 230 187 249 170 50 249 168 44 251 207 138 255 255 255 255 254 254 255 255 254 255 255 255 254 245 234 253 226 185 252 216 161 252 212 157 252 216 165 253 228 190 254 246 234 255 255 255 254 250 250 253 238 239 255 255 255 251 212 214 241 93 99 239 61 69 237 31 40 236 8 18 237 27 36 247 173 176 255 255 255 248 180 183 247 164 168 
236 17 26 249 192 194 255 255 255 255 251 250 255 254 253 254 252 252 242 101 107 236 12 21 236 16 25 236 16 26 235 2 12 238 42 50 243 106 112 245 131 136 239 65 72 236 9 19 237 32 39 253 241 250 253 228 186 249 163 37 250 171 53 250 182 78 251 198 117 252 216 161 254 244 229 255 255 255 252 215 158 249 164 37 252 218 172 255 255 255 255 255 254 244 124 130 235 4 13 236 19 27 252 219 218 255 255 255 253 234 206 250 181 76 249 168 45 252 219 173 255 255 255 255 255 255 253 226 191 249 172 55 249 166 40 249 164 37 249 164 37 249 164 37 249 167 43 250 175 61 252 213 155 255 255 255 255 255 255 253 237 238 238 49 57 235 0 9 236 15 24 238 39 48 241 89 96 251 211 212 255 255 255 244 125 131 234 0 0 235 8 14 
236 11 20 242 99 105 255 255 255 255 252 252 255 254 253 255 253 253 255 255 255 241 90 96 237 21 30 237 21 31 243 112 118 253 240 241 255 254 254 255 255 255 251 209 211 237 24 34 237 30 38 252 220 223 255 255 252 253 233 187 252 213 145 250 186 90 249 171 55 249 161 27 251 202 127 254 243 227 250 172 53 250 181 76 254 244 233 255 255 255 248 177 180 235 5 15 238 39 48 251 211 212 255 255 255 255 252 250 255 255 255 253 231 198 250 173 56 250 189 94 255 254 252 255 255 255 253 228 188 251 200 116 252 213 145 253 222 166 253 224 170 253 221 159 252 206 130 250 185 85 250 188 94 254 246 243 255 255 255 246 154 158 235 0 10 241 85 92 251 214 215 253 237 237 255 254 254 255 255 255 242 107 112 239 64 71 247 168 171 240 77 84 
236 14 24 241 88 93 255 255 255 252 216 164 252 220 171 255 254 255 255 255 255 246 141 146 235 0 10 241 89 96 255 255 255 255 254 254 254 245 246 255 255 255 248 172 175 235 7 16 239 65 73 255 255 255 253 232 235 251 208 218 253 235 243 255 255 255 255 251 239 252 222 178 254 249 242 252 219 167 249 167 41 251 201 126 255 255 255 255 255 255 241 82 89 235 2 12 247 162 166 255 255 255 253 232 205 254 247 236 255 255 255 255 253 250 250 186 89 250 177 65 254 246 234 255 255 255 255 252 252 254 247 254 254 243 251 253 237 246 253 231 240 252 221 230 254 242 247 255 254 252 255 252 250 255 252 252 255 255 255 244 116 121 235 0 9 244 129 133 255 255 255 255 250 250 255 255 255 252 225 226 235 3 13 245 135 140 254 255 255 242 100 106 
236 9 19 245 129 134 255 255 255 250 180 78 250 180 72 254 249 244 255 255 255 244 117 122 235 0 7 245 134 138 255 255 255 255 250 250 255 255 255 253 240 240 239 62 69 235 0 10 246 155 159 252 225 226 236 20 29 235 7 15 237 30 37 241 86 93 250 198 204 255 255 255 255 255 255 252 213 154 249 168 43 251 198 120 255 255 255 253 238 237 238 37 45 237 36 44 253 238 243 254 245 227 249 168 45 252 214 156 255 255 255 252 225 182 250 174 60 250 182 81 255 255 255 250 194 198 238 45 52 238 45 52 237 28 35 237 27 34 237 28 35 234 0 4 244 120 124 255 255 255 252 221 223 241 85 91 253 239 239 247 165 169 235 0 10 237 28 37 240 76 83 244 123 128 249 191 194 255 255 255 249 191 194 236 25 34 236 12 20 235 9 17 
236 13 23 248 178 180 255 255 255 251 191 104 250 170 48 252 223 183 255 255 255 244 129 132 235 2 12 239 53 61 247 162 166 251 204 206 249 186 188 240 72 79 236 7 17 238 51 58 254 253 252 250 199 199 240 66 71 241 77 83 237 33 42 235 1 10 236 16 24 244 133 134 255 255 255 253 226 187 250 170 49 250 180 76 255 253 239 253 228 232 237 25 33 238 46 53 254 249 255 253 230 191 250 169 49 250 188 92 251 201 123 250 175 60 249 168 45 252 215 167 255 255 255 243 111 115 235 2 12 237 30 38 240 71 78 239 52 60 238 44 53 241 83 90 252 225 226 254 244 244 239 61 68 236 10 19 252 226 227 255 255 255 242 109 114 236 19 28 235 5 14 234 0 0 238 54 62 254 254 254 255 255 255 250 206 208 240 68 75 246 149 153 
236 12 22 246 146 148 255 255 255 251 210 152 250 168 44 250 190 99 255 255 254 253 232 232 238 52 59 235 2 12 235 2 12 236 12 22 235 7 16 235 2 12 237 33 42 250 201 203 255 255 255 255 253 253 255 254 255 255 255 255 253 233 232 243 119 124 236 17 26 235 6 16 244 126 132 255 255 255 250 190 102 249 161 30 253 228 182 253 241 250 237 36 43 237 26 34 252 225 230 255 251 234 250 175 65 250 168 46 249 167 42 250 176 66 252 214 163 255 255 255 249 193 195 237 27 36 236 21 31 249 187 190 255 255 255 254 247 247 254 243 243 255 255 255 253 243 243 240 76 83 235 0 9 242 94 100 255 255 255 255 253 253 255 255 255 251 212 214 247 161 165 247 164 167 253 233 233 255 255 255 255 252 252 255 255 255 254 248 248 254 251 251 
236 17 27 238 49 57 253 239 242 254 251 241 250 182 80 250 170 50 251 207 140 255 255 255 253 232 233 245 133 136 241 78 83 239 58 64 240 65 71 243 109 114 251 217 218 255 255 255 255 253 252 252 214 157 252 215 161 254 246 236 255 254 255 255 255 255 247 162 165 236 21 30 236 9 18 246 160 165 255 255 247 252 209 148 254 239 218 255 255 255 240 70 76 235 5 15 249 183 186 255 255 255 253 237 214 252 217 159 252 222 173 254 248 235 255 255 255 249 190 191 238 38 47 235 1 11 245 137 142 255 255 255 255 250 250 255 252 252 255 255 255 253 239 239 240 77 84 236 9 19 237 32 41 251 212 214 255 255 255 254 246 247 255 253 253 255 255 255 255 254 254 255 255 255 252 219 221 252 220 221 255 255 255 254 250 250 239 64 71 237 33 41 
240 74 81 235 4 14 242 100 105 255 255 255 253 228 195 250 173 58 250 172 54 251 202 128 254 248 239 255 255 255 255 255 254 255 255 255 255 255 255 255 255 255 255 253 252 255 255 255 253 227 186 249 169 47 250 170 49 250 179 71 251 210 150 254 249 246 255 255 255 247 169 172 236 14 23 237 27 36 252 221 222 255 255 255 255 250 250 255 255 255 245 140 144 235 0 6 243 117 123 255 255 255 254 250 252 254 252 254 255 255 255 252 228 232 244 123 126 237 23 32 235 1 11 242 103 109 255 255 255 254 250 250 255 253 253 255 255 255 252 229 230 239 65 72 236 9 19 236 24 33 249 189 191 255 255 255 245 137 141 238 46 54 251 218 220 255 255 255 253 235 236 242 101 107 234 0 7 244 127 132 255 255 255 255 255 255 248 179 182 236 19 28 
250 205 207 237 32 41 236 9 19 244 132 136 255 255 255 252 222 180 249 173 59 250 170 48 250 180 76 251 202 132 252 213 154 252 206 134 252 221 173 255 254 255 255 253 254 254 251 244 250 185 86 250 175 61 250 187 90 250 175 62 249 168 44 251 203 129 255 253 255 255 255 255 247 169 173 235 0 9 246 149 152 255 255 255 255 249 249 255 255 255 252 222 223 237 29 37 237 34 43 253 237 238 244 118 122 238 39 45 240 65 70 237 27 35 235 0 9 236 15 24 244 126 131 252 233 234 242 96 102 239 52 60 241 87 94 244 128 133 238 52 60 236 6 15 237 36 44 250 197 199 254 248 248 241 86 93 235 0 5 239 59 66 255 254 254 253 239 239 240 70 77 235 0 5 239 68 75 253 239 239 255 255 255 254 252 252 255 255 255 249 193 195 
255 255 255 247 162 165 236 11 21 236 15 24 244 128 131 255 255 255 253 236 208 250 187 95 250 172 53 249 166 40 249 166 40 250 170 50 250 174 60 254 241 221 255 255 255 252 214 155 250 169 45 250 186 89 254 253 251 252 224 181 250 176 63 250 174 58 253 238 215 255 255 255 255 255 255 251 212 219 253 230 231 255 255 255 255 251 252 255 255 255 246 157 161 236 20 29 235 0 10 248 174 177 246 144 148 235 0 8 237 23 32 237 35 43 241 90 97 249 191 194 255 255 255 243 108 114 235 0 8 236 19 29 236 11 20 236 11 21 236 15 24 239 65 72 252 225 226 253 239 239 239 61 68 235 3 13 237 42 50 251 214 216 255 255 255 241 84 91 235 0 7 239 69 76 253 234 235 255 255 255 246 158 161 239 57 65 244 122 128 254 248 249 
255 253 253 255 255 255 245 141 146 236 12 22 236 9 19 241 93 98 253 239 241 255 255 253 253 230 197 252 219 167 253 234 204 251 198 117 250 170 50 251 204 132 255 255 255 253 228 190 250 173 56 250 181 75 254 246 232 255 255 255 251 197 115 249 167 42 253 231 196 253 237 211 250 176 68 253 226 173 255 255 255 255 253 252 255 255 255 254 247 247 238 50 58 236 14 24 246 157 161 255 255 255 253 237 238 238 45 54 238 44 53 252 234 234 255 255 255 255 253 253 255 255 255 240 71 78 235 8 18 247 167 170 247 165 168 236 16 26 237 35 44 252 220 221 255 255 255 240 76 83 235 2 12 238 51 59 251 212 213 255 255 255 243 118 123 235 0 10 239 68 75 253 233 234 255 255 255 245 138 143 235 8 18 235 4 14 234 0 3 248 178 181 
251 207 209 253 232 233 255 255 255 247 164 168 237 31 40 235 0 7 237 34 41 249 196 198 255 255 255 255 255 255 252 221 175 250 172 53 250 175 60 250 175 60 253 227 187 255 255 255 252 210 146 249 166 40 252 221 173 255 255 255 252 213 153 249 165 38 253 222 174 254 250 244 250 178 68 249 166 42 252 219 171 255 255 255 255 255 255 251 210 212 236 14 23 240 64 72 255 253 253 255 255 255 252 225 226 238 48 56 236 17 26 242 103 108 253 235 235 255 255 255 254 249 249 239 56 64 237 28 36 254 241 242 253 229 230 236 16 25 240 77 84 255 255 255 247 163 166 235 5 15 238 47 55 251 216 217 255 255 255 246 150 154 235 6 16 238 54 61 253 238 239 255 255 255 243 115 120 236 8 17 238 36 45 244 122 127 247 165 168 253 240 241 
234 0 1 242 98 103 255 255 255 255 255 255 251 218 218 244 120 124 239 53 61 245 140 144 255 255 255 255 254 253 251 201 115 251 193 108 251 195 111 250 172 53 250 178 70 253 232 200 254 251 244 250 176 63 251 197 116 255 255 255 252 220 169 249 166 39 252 209 144 255 255 255 253 227 187 250 173 55 250 179 72 254 242 228 255 255 255 251 202 203 236 11 21 240 66 73 255 254 254 255 255 255 240 78 85 236 11 21 238 39 47 235 2 11 238 46 54 250 207 208 254 249 249 238 38 47 238 39 47 255 254 254 251 211 212 235 5 14 244 118 123 255 255 255 242 96 102 235 0 10 247 163 166 255 255 255 248 178 181 236 21 30 237 28 37 237 34 42 249 185 188 255 255 255 244 128 132 236 11 21 238 46 54 253 235 236 255 255 255 255 254 254 
244 129 133 253 230 233 255 255 255 255 253 254 255 255 255 255 254 254 255 255 255 253 240 240 247 165 168 246 154 158 252 220 223 255 255 255 254 251 248 251 196 116 250 168 44 250 176 63 251 202 126 250 179 71 250 188 92 255 255 255 253 226 186 249 167 41 252 204 132 255 255 255 255 255 255 251 206 136 249 166 40 252 213 155 255 255 255 253 233 232 237 35 43 236 19 29 248 183 186 249 189 192 235 6 16 241 81 88 254 246 247 243 120 126 236 6 16 237 36 45 245 136 141 238 35 44 237 33 42 252 232 232 244 127 132 236 9 18 240 68 75 253 239 239 243 105 110 235 0 7 248 169 172 251 215 216 237 27 36 236 14 24 236 24 33 236 13 22 237 27 36 250 205 207 255 255 255 241 89 95 235 3 13 241 91 97 249 192 195 244 126 132 
255 255 255 254 238 211 251 203 129 251 194 107 250 190 101 253 228 190 253 242 247 239 62 69 235 0 6 235 1 7 236 25 34 246 159 162 255 255 255 255 253 249 252 210 144 249 173 61 249 164 39 250 171 53 250 180 72 255 253 251 254 238 214 250 172 53 250 186 88 254 250 243 255 255 255 254 242 223 250 175 60 251 189 96 255 253 253 255 255 255 244 126 131 235 0 9 237 22 31 237 29 38 236 14 23 241 88 94 255 255 255 254 248 248 239 63 70 236 18 27 235 6 16 236 17 27 236 14 24 236 24 33 235 9 18 236 16 25 234 0 6 246 145 149 249 188 191 235 3 13 238 42 50 237 36 44 236 11 21 240 79 86 251 216 217 244 122 126 235 0 6 238 42 50 254 245 246 252 220 221 237 30 38 235 1 11 235 3 13 235 0 8 
252 215 164 249 171 54 249 168 44 250 174 58 249 169 50 253 229 173 244 126 138 235 0 3 243 116 121 246 152 156 237 21 30 236 16 26 243 114 119 251 217 219 255 254 255 255 255 240 253 230 175 251 189 95 250 190 102 255 254 251 255 254 253 250 188 92 250 170 48 251 208 142 255 255 255 255 255 255 251 194 106 250 175 60 254 245 231 255 255 255 254 251 250 244 127 132 238 39 47 237 31 39 237 22 31 238 49 57 254 245 245 255 253 253 239 59 67 237 22 31 240 68 75 240 69 76 241 76 83 242 91 97 244 124 129 247 164 168 250 205 207 254 248 248 255 255 255 241 91 96 235 5 14 237 22 31 240 73 80 254 248 248 255 255 255 255 255 255 246 156 161 239 61 68 250 202 202 255 255 255 250 203 205 242 102 108 241 81 88 243 114 119 
250 175 62 250 179 71 253 227 188 254 242 226 255 252 241 253 237 238 237 35 44 237 35 44 254 242 242 252 221 222 237 30 39 237 19 29 235 0 7 236 14 23 239 62 68 244 127 136 250 201 211 254 252 254 255 255 255 255 253 252 255 255 255 253 228 191 250 172 55 250 172 55 251 205 135 255 255 255 251 199 120 250 170 49 254 237 212 255 255 255 255 253 252 255 254 254 254 245 245 251 209 211 238 41 50 236 12 22 250 201 203 248 182 185 235 3 13 240 70 77 255 255 255 255 255 255 255 255 255 255 255 255 255 255 255 255 255 255 255 255 255 255 254 254 255 255 255 254 245 248 242 104 113 234 0 2 243 113 118 255 255 255 254 243 235 254 247 238 255 255 255 255 255 255 255 255 255 255 254 254 255 254 254 255 255 255 255 255 255 255 255 255 
250 173 57 251 199 120 255 255 255 255 252 251 255 255 255 250 198 200 236 13 22 239 51 59 255 255 255 247 156 159 234 0 0 241 91 97 244 129 134 239 60 68 236 14 24 234 0 1 235 1 4 239 64 72 250 207 210 255 255 255 255 253 252 255 255 255 252 219 169 250 173 57 250 168 45 250 184 82 250 181 75 250 174 59 254 237 215 255 255 255 245 134 137 238 52 60 254 245 245 255 255 255 240 70 77 236 7 17 238 50 58 238 39 47 235 0 9 246 147 152 255 255 255 252 219 221 247 165 168 245 130 135 242 98 105 240 78 85 250 200 202 255 255 255 255 252 254 254 250 237 254 254 244 248 183 193 251 213 216 254 251 237 250 181 77 250 182 78 250 183 84 251 192 103 252 210 147 254 243 225 255 254 255 255 255 254 253 241 241 243 107 113 
250 170 49 251 195 112 255 255 255 255 253 251 255 255 255 252 224 225 237 29 38 236 20 29 251 212 213 250 194 197 240 85 91 253 242 242 255 255 255 255 252 252 253 231 232 249 184 187 244 128 133 236 16 25 237 36 44 252 230 231 255 255 255 255 253 252 255 255 255 254 240 219 251 198 117 250 175 62 249 169 45 250 187 92 255 254 251 255 254 255 239 52 60 236 15 25 252 220 221 255 255 255 249 195 197 237 39 47 236 11 21 236 20 29 243 119 125 255 255 255 252 231 232 238 50 58 235 0 7 238 42 50 237 31 40 235 1 10 238 47 55 252 231 230 255 255 255 251 201 128 250 175 61 254 239 202 255 255 255 255 252 247 250 187 91 249 168 44 250 171 52 250 170 50 249 167 41 250 177 65 253 231 202 255 255 255 246 156 159 235 0 8 
250 183 83 254 241 213 252 223 229 244 118 122 241 75 82 251 209 211 245 137 142 235 0 7 240 71 78 254 247 247 255 255 255 255 252 252 255 251 251 255 254 254 249 190 193 244 126 131 247 165 169 243 112 117 235 0 6 246 146 149 255 255 255 253 234 209 252 211 148 254 239 217 254 253 250 254 247 234 253 237 212 254 248 239 255 255 255 254 242 242 238 46 54 237 26 35 252 222 224 255 255 255 255 255 255 253 234 234 249 186 189 251 215 216 255 255 255 253 238 238 240 77 84 236 5 15 239 56 64 253 240 241 251 221 222 238 45 54 236 7 17 241 86 91 255 255 255 253 228 191 249 169 48 249 170 55 251 207 141 255 254 252 254 248 238 253 224 181 253 228 189 253 237 212 252 219 169 250 171 50 250 190 103 255 255 255 243 111 116 236 13 22 
255 255 245 251 218 222 237 37 45 235 0 7 236 20 29 250 197 199 255 255 255 240 76 83 235 0 7 243 112 118 255 255 255 255 252 252 255 255 255 243 111 117 235 5 14 234 0 0 237 32 36 247 167 171 236 8 18 241 89 93 255 255 255 252 214 160 249 165 37 250 175 61 250 182 78 251 200 121 252 220 169 254 239 218 255 255 255 254 252 252 239 59 67 236 9 18 247 164 168 255 255 255 255 252 252 255 255 255 255 254 254 255 255 255 249 191 194 239 55 63 236 6 16 238 43 52 251 219 220 255 255 255 255 255 255 250 207 209 237 36 44 235 5 15 245 141 145 255 255 255 251 208 145 250 171 50 250 172 54 250 189 96 253 238 213 255 255 255 255 254 252 255 255 255 253 234 204 250 173 58 250 183 84 255 255 255 242 99 106 236 12 21 
255 255 255 243 108 113 235 0 10 242 98 104 253 234 235 255 254 255 255 255 255 252 225 226 238 50 58 235 5 15 246 145 149 255 255 255 247 166 170 235 4 14 238 41 49 244 128 133 250 200 202 252 229 230 237 24 33 239 52 58 255 255 255 253 224 178 250 173 56 250 175 61 250 174 58 250 172 54 249 167 42 250 181 75 254 247 241 255 255 255 244 119 123 235 2 12 238 39 47 246 155 159 253 230 231 253 237 237 250 195 197 242 101 107 236 19 28 235 2 12 238 50 58 251 213 214 255 255 255 255 252 252 255 253 253 255 255 255 247 172 175 236 15 25 237 37 45 253 231 231 255 255 255 252 214 157 250 175 61 250 169 47 250 174 60 251 201 123 252 216 161 251 207 140 250 181 76 250 168 45 251 199 126 255 255 255 244 117 121 236 10 19 
255 255 255 244 120 125 235 0 5 245 144 148 255 255 255 255 252 252 255 254 254 255 255 255 241 87 93 235 0 8 243 117 122 255 255 255 241 89 95 235 1 11 247 162 165 255 255 255 255 255 255 253 238 238 238 36 45 238 38 45 254 246 255 252 220 165 249 167 44 251 202 128 254 243 226 254 243 226 250 187 89 250 178 69 254 246 235 255 255 255 253 237 237 239 67 74 236 8 18 236 11 21 237 32 41 238 40 48 236 17 27 235 4 14 236 20 29 242 106 112 253 237 238 255 255 255 255 255 255 253 229 230 251 208 210 254 250 250 255 255 255 241 80 86 235 2 12 248 176 179 255 255 255 255 253 255 253 238 214 251 199 118 250 177 65 250 168 45 249 168 44 250 169 45 250 171 52 250 190 99 254 243 232 255 255 255 247 165 168 236 10 20 
255 255 255 251 218 219 237 36 44 236 18 28 243 107 113 249 186 188 250 194 196 242 103 109 236 16 25 238 49 57 252 228 229 255 255 255 241 87 93 235 4 14 250 189 192 255 255 255 255 255 255 252 223 224 237 24 33 239 50 56 254 253 255 252 206 134 249 171 53 254 242 225 255 255 255 255 254 253 250 186 89 250 183 80 255 255 252 252 231 233 254 250 249 253 239 240 243 118 123 238 39 48 237 25 34 237 24 33 237 32 41 241 86 92 249 191 193 255 253 253 254 248 248 255 250 250 255 255 255 244 120 125 235 8 18 240 74 81 244 118 123 239 51 59 235 8 18 248 168 172 255 255 255 255 251 249 255 255 255 255 255 255 253 238 215 252 213 153 251 199 119 251 201 124 252 221 173 254 251 244 255 254 255 255 255 255 253 235 236 238 51 59 
