P3
64 64
255
206 179 152 208 182 157 221 198 180 213 194 179 229 215 204 175 162 153 80 66 55 106 90 77 116 97 80 111 90 69 81 57 33 140 116 90 188 167 140 144 124 97 161 144 118 177 165 141 187 181 165 199 197 184 201 197 188 183 179 170 152 143 138 66 57 50 33 20 12 113 99 88 103 87 71 84 66 44 107 87 60 181 161 128 174 150 114 172 149 108 170 145 105 167 145 108 178 160 138 172 151 130 159 129 101 178 148 114 165 142 110 151 134 106 158 145 129 65 49 34 48 21 2 132 105 78 168 143 113 179 158 129 228 211 191 124 104 80 61 28 0 142 104 67 140 101 72 155 120 98 140 111 103 69 51 49 52 43 48 60 61 65 64 72 74 44 56 52 52 61 56 62 69 62 59 58 54 43 38 34 41 28 20 75 59 46 86 69 51 69 51 29 
152 125 96 137 111 86 180 158 137 216 197 182 234 220 207 161 149 137 39 25 16 92 76 63 104 87 71 100 79 60 76 54 31 152 130 106 167 146 119 163 143 116 151 131 104 175 161 135 163 156 138 168 164 152 159 155 144 197 190 182 107 98 91 11 0 0 67 54 46 120 106 95 131 115 100 58 41 21 145 125 98 195 175 142 179 157 120 172 148 110 172 147 107 162 140 103 159 142 116 176 156 132 179 149 121 163 132 104 157 133 105 161 145 122 162 148 135 62 46 31 76 51 29 186 159 130 164 141 109 180 159 130 214 197 177 133 113 89 106 73 40 152 114 77 151 115 83 175 140 118 137 109 97 64 45 41 58 48 47 52 50 51 35 40 34 46 53 45 51 56 49 55 56 48 47 44 39 71 64 58 36 25 19 43 29 18 59 43 28 44 29 10 
186 161 130 148 125 94 119 99 74 157 140 120 126 110 95 12 0 0 19 6 0 48 34 25 85 69 56 89 71 57 79 58 39 123 101 78 129 107 83 140 119 90 130 109 80 148 131 105 154 146 127 135 129 115 143 137 125 161 152 143 58 49 42 15 4 0 70 57 49 127 113 102 87 71 56 88 71 51 181 161 136 198 177 146 184 161 127 168 144 106 167 142 102 174 150 112 163 147 113 182 165 135 192 164 140 138 107 87 138 115 99 165 147 133 176 162 153 108 92 77 92 71 44 194 170 136 189 166 132 182 163 133 212 194 174 125 103 82 123 89 54 146 108 71 148 114 79 174 143 115 150 123 106 76 54 43 60 45 38 38 29 20 85 82 67 149 146 131 141 138 123 142 136 124 160 151 144 152 143 138 142 131 125 56 45 39 7 0 0 41 33 22 
167 144 110 142 122 89 104 84 57 139 123 100 135 119 103 103 89 76 82 69 60 58 45 36 55 41 30 78 60 48 57 38 21 45 24 3 68 46 22 112 88 60 135 110 80 126 105 76 171 156 135 140 131 116 75 65 53 49 39 29 27 17 8 28 15 9 41 28 20 99 85 76 37 21 6 97 80 62 170 152 128 170 149 120 180 157 125 171 147 111 165 137 100 157 133 95 147 131 95 182 166 133 166 138 114 149 120 102 188 166 152 190 173 163 186 173 165 131 117 104 81 61 36 166 143 112 166 146 113 183 164 134 186 168 148 96 74 51 137 103 68 153 115 76 164 132 94 164 135 105 178 151 130 108 85 69 56 37 22 106 90 74 182 171 149 169 158 136 144 133 115 154 142 128 168 155 147 184 173 167 178 169 162 172 165 159 38 33 29 9 6 1 
158 138 103 150 131 98 142 125 95 150 134 109 149 134 113 124 111 94 135 123 109 105 93 81 64 50 37 53 37 22 47 28 11 65 43 22 86 62 36 127 100 71 145 116 86 136 111 81 150 132 110 118 102 86 78 62 47 76 62 51 66 52 43 46 31 24 31 16 9 22 8 0 16 0 0 61 44 26 191 173 149 187 166 137 172 149 117 160 136 100 163 135 98 156 132 96 146 130 97 167 150 122 153 127 100 150 124 99 191 173 151 194 181 165 164 154 145 140 127 119 60 41 26 111 89 66 174 154 127 208 188 163 196 178 158 99 75 51 136 104 66 147 112 70 149 117 76 152 124 87 189 161 137 132 105 86 57 35 12 149 132 106 153 136 108 125 109 83 110 93 75 122 106 91 126 112 103 121 108 100 129 120 111 159 154 148 97 93 90 1 0 0 
151 128 94 144 124 91 151 134 104 176 160 134 144 132 110 133 122 104 143 131 115 132 120 104 94 81 64 50 33 15 100 79 58 157 133 109 161 134 107 165 136 106 160 129 98 161 132 102 150 126 102 140 119 98 144 123 106 140 121 107 132 114 104 99 82 74 58 41 33 40 23 13 13 0 0 35 18 0 143 123 99 159 138 111 169 144 113 179 153 118 167 139 102 174 150 114 178 159 129 166 149 121 182 157 127 189 163 136 179 162 136 199 186 167 176 167 158 131 120 116 60 43 35 40 21 6 133 115 93 177 159 135 187 170 150 109 87 63 118 88 52 128 95 52 137 108 66 141 113 76 142 115 88 137 110 89 108 86 62 142 122 95 109 90 60 92 75 47 94 75 58 101 83 71 96 79 69 106 93 84 129 119 109 144 137 127 115 111 108 20 18 19 
152 126 91 162 137 106 152 133 103 140 124 99 154 142 120 154 146 125 148 140 121 134 123 103 102 86 63 90 70 45 157 132 102 182 153 123 185 154 123 185 152 119 187 154 121 178 145 114 179 149 121 173 145 121 169 142 121 168 142 125 159 137 124 142 122 111 130 110 101 95 77 65 53 35 21 82 63 46 107 87 63 115 94 67 165 140 110 195 169 136 176 147 113 202 176 143 188 167 140 166 146 119 165 140 110 199 174 143 180 163 133 186 174 152 163 154 147 70 60 59 23 8 5 13 0 0 40 24 8 104 89 68 100 85 66 93 75 51 122 96 63 138 108 70 149 121 81 125 99 64 163 137 112 123 98 76 114 92 69 152 132 107 100 83 55 88 72 47 94 76 62 81 64 54 91 77 68 101 87 76 105 93 79 137 127 115 136 127 122 45 37 34 
149 119 83 145 116 82 142 121 92 134 118 93 140 129 107 154 146 127 138 130 111 135 123 101 112 92 67 131 106 76 168 138 104 181 147 110 186 151 113 180 145 107 183 149 112 178 144 109 184 149 117 185 151 123 186 154 129 183 155 134 175 148 131 166 140 127 160 136 124 150 128 115 121 99 85 134 113 94 146 124 101 120 96 70 164 139 109 172 145 115 150 121 89 159 133 100 176 153 122 152 131 102 169 144 114 181 157 129 190 173 147 177 162 143 67 56 50 7 0 0 50 36 33 111 98 90 172 160 146 168 157 139 89 77 63 84 69 50 102 81 52 124 99 68 133 110 78 152 131 102 139 117 96 73 52 35 85 64 45 126 108 86 97 81 58 87 70 50 103 87 74 87 70 62 91 77 68 93 79 66 90 77 60 133 121 105 149 136 127 59 46 40 
126 91 51 127 95 57 127 102 71 130 113 87 136 125 105 135 126 109 149 137 121 142 125 105 105 81 55 138 107 76 174 139 99 184 145 102 182 144 99 177 140 95 180 146 101 174 139 97 185 147 110 189 153 119 190 155 125 182 148 123 173 140 121 168 139 123 163 135 121 157 131 116 146 123 107 144 121 103 144 122 99 124 100 74 140 114 87 161 134 105 155 126 96 144 118 85 146 124 87 156 133 99 180 154 129 193 168 148 156 137 122 92 75 65 9 0 0 33 24 19 142 132 123 213 205 192 234 227 211 198 192 178 104 95 86 95 82 73 110 93 73 111 93 69 109 92 72 115 99 83 92 76 63 56 38 26 57 39 25 98 81 63 81 66 47 115 99 83 106 89 79 94 77 69 105 88 78 104 88 73 111 96 77 146 131 112 141 125 112 55 38 28 
144 107 63 132 99 58 123 97 64 132 112 87 139 126 107 130 118 104 132 119 103 148 129 112 94 68 43 127 94 61 169 130 89 179 137 89 180 140 89 171 134 81 167 131 79 172 136 88 179 140 99 184 144 108 184 145 112 177 140 113 172 137 115 170 137 118 164 135 117 159 132 115 152 126 109 155 133 112 139 114 92 118 94 70 100 74 51 131 105 80 156 128 104 147 122 92 129 106 72 157 137 104 166 141 119 130 107 93 124 104 93 126 109 101 28 17 11 7 0 0 63 54 45 147 141 127 206 203 188 214 210 198 106 101 97 86 77 72 150 138 124 154 142 128 129 120 111 101 92 87 73 62 56 44 31 23 27 13 0 46 30 15 91 75 60 92 74 60 101 83 73 95 77 67 101 83 71 120 104 88 125 110 91 160 145 126 133 115 101 28 10 0 
183 149 101 172 139 94 165 139 102 167 146 117 142 125 107 138 122 107 146 128 116 127 104 88 78 47 26 122 87 57 152 113 72 167 125 77 182 141 89 164 125 68 159 124 66 174 139 85 176 135 91 179 137 99 179 139 104 176 137 106 171 135 109 168 133 111 160 129 109 152 123 105 154 129 109 159 134 114 145 123 102 123 101 80 54 32 11 37 15 0 95 73 52 124 102 79 124 104 77 144 124 99 124 101 85 161 139 126 198 180 168 201 187 176 188 178 169 143 134 127 90 83 75 96 92 81 146 144 131 182 180 168 101 98 93 116 111 107 165 156 147 188 181 173 166 166 168 137 136 141 83 79 78 42 35 27 17 7 0 23 10 0 66 48 34 83 64 50 94 75 61 90 71 56 107 88 71 124 107 89 122 105 87 154 137 121 92 74 60 31 13 1 
159 128 82 175 146 102 160 134 97 158 135 104 134 114 90 127 106 87 133 110 94 107 81 64 59 29 5 98 65 34 148 110 73 155 117 72 168 128 77 172 135 80 165 130 72 161 126 70 176 135 89 176 134 94 174 134 98 170 131 98 165 128 101 160 126 101 155 123 102 148 120 99 150 123 104 140 118 97 131 108 90 129 108 89 67 48 31 15 0 0 15 0 0 53 36 20 74 57 41 71 55 39 121 103 91 181 163 151 161 145 130 169 157 141 191 181 171 208 201 193 223 218 212 183 180 171 130 130 118 118 118 106 102 101 96 124 121 116 157 152 146 157 153 150 166 169 178 132 136 145 99 99 97 49 46 37 15 7 0 11 0 0 20 2 0 70 51 37 82 63 46 89 71 51 106 88 68 127 109 89 132 113 98 137 118 104 60 41 27 50 31 17 
126 100 63 139 113 76 135 111 75 142 117 86 134 109 79 140 114 87 157 129 105 157 130 103 114 84 58 73 44 14 122 89 56 146 112 74 154 120 75 174 138 90 167 130 78 163 126 74 170 132 87 168 129 88 165 125 89 160 121 88 155 118 91 151 117 92 151 119 98 151 123 102 144 119 99 126 103 85 138 119 102 121 103 89 58 42 29 69 55 44 50 37 28 14 4 0 11 0 0 8 0 0 133 120 114 149 137 125 137 126 106 141 133 112 166 158 145 187 180 172 206 201 198 187 184 179 115 115 103 121 121 109 98 95 88 109 106 101 135 132 125 148 147 145 161 164 173 144 148 157 94 95 89 17 15 0 34 27 9 53 41 25 63 46 36 74 56 44 66 49 29 85 69 46 86 70 47 117 99 79 122 103 89 102 80 69 68 44 32 72 46 33 
104 84 57 107 86 57 121 96 65 118 92 59 128 98 62 169 139 101 191 161 123 194 166 129 186 160 127 106 82 48 82 56 23 119 90 56 156 124 86 157 122 82 155 116 73 148 107 63 157 118 75 155 118 76 155 117 80 153 117 83 148 113 85 142 108 83 139 108 87 139 112 93 127 101 84 129 108 91 161 143 129 134 120 109 153 140 131 178 169 162 145 137 134 96 91 88 94 88 90 126 120 122 148 139 140 168 161 153 139 132 116 160 153 134 194 186 173 175 168 158 111 106 102 129 126 119 124 122 110 113 111 98 157 154 147 88 85 80 119 116 111 173 172 170 175 175 183 157 158 162 82 83 69 85 83 60 128 122 100 130 121 104 127 114 105 110 96 85 77 64 45 68 56 32 73 58 35 93 76 56 102 80 69 99 72 63 95 65 54 83 51 36 
54 38 23 75 58 40 82 58 32 98 69 35 154 121 78 183 149 101 185 153 104 195 167 119 191 168 126 155 135 98 94 75 42 87 66 35 121 91 63 137 102 72 150 107 75 119 76 42 146 107 68 141 106 66 143 107 71 146 111 79 142 108 80 132 100 75 124 96 74 122 97 77 114 91 75 112 93 78 155 139 126 147 134 125 165 156 151 150 145 142 155 151 152 157 155 156 163 161 162 186 186 188 127 124 131 102 97 101 98 90 87 142 133 124 181 173 162 147 141 127 95 91 79 165 163 148 156 155 137 149 147 132 235 230 224 154 149 146 101 97 94 133 129 128 167 162 166 134 131 126 88 83 61 141 138 107 133 127 101 144 137 119 157 148 141 136 127 120 115 108 90 78 72 48 87 76 54 95 80 61 114 90 80 134 104 96 127 91 77 96 59 40 
9 0 0 12 0 0 28 6 0 118 89 55 194 160 114 180 143 90 188 153 97 199 168 114 197 173 127 161 142 102 138 122 89 83 66 40 65 41 17 108 78 54 145 109 83 142 105 76 139 104 72 132 99 64 131 98 65 132 101 70 132 101 73 125 95 71 120 92 71 120 94 77 98 76 62 129 113 98 146 134 122 149 141 130 146 139 133 165 161 158 178 174 175 169 167 170 169 169 169 181 181 183 171 168 177 118 113 119 101 93 91 121 112 103 149 141 128 169 162 144 146 139 120 127 122 102 150 145 126 171 165 151 213 206 200 233 228 225 131 130 128 120 119 115 139 134 131 88 81 71 70 64 38 119 114 82 121 114 88 124 117 98 127 118 109 143 136 126 140 135 116 119 114 92 115 107 86 112 99 82 115 95 84 126 99 90 145 113 98 130 97 78 
11 7 0 13 6 0 62 46 20 160 134 99 179 145 99 187 147 95 186 147 92 187 151 99 194 165 121 177 155 118 139 122 92 88 74 48 81 65 42 79 61 37 87 65 41 111 87 61 136 110 85 136 110 85 123 96 69 125 98 71 123 93 69 118 90 69 103 75 61 92 69 55 81 62 48 124 110 97 143 134 119 157 151 137 161 157 145 176 171 165 181 176 173 167 163 164 174 172 173 169 167 168 175 169 171 126 118 116 42 31 25 49 39 27 137 129 110 166 155 133 148 137 115 117 105 83 140 127 110 172 158 147 173 162 156 219 214 211 183 185 184 108 110 105 137 133 124 83 75 62 57 49 28 105 97 74 134 124 99 126 115 93 135 124 106 136 128 109 152 144 123 129 123 101 126 119 100 106 97 80 106 92 79 84 68 55 122 104 90 134 115 100 
40 36 27 31 23 10 59 44 21 135 112 80 172 140 101 189 155 109 189 152 107 180 146 101 168 138 100 110 85 54 99 82 54 115 100 77 127 112 91 130 118 96 125 110 87 94 78 55 78 60 40 79 58 39 82 60 37 91 67 43 96 68 47 79 50 32 82 56 43 62 38 26 74 56 44 141 127 114 138 131 115 152 146 130 164 158 144 153 149 138 155 147 144 165 159 159 163 161 162 146 145 143 177 169 167 97 86 82 27 14 5 34 22 6 62 51 31 134 124 99 156 144 120 117 102 81 118 101 85 134 117 107 189 176 170 220 215 211 212 217 213 122 127 121 106 102 91 84 77 61 61 52 35 75 64 46 134 121 102 150 138 116 139 127 105 130 119 97 139 131 110 145 137 118 143 136 118 131 124 108 128 118 106 110 100 88 77 67 55 70 60 48 
86 76 67 90 77 68 96 80 64 101 83 61 126 102 74 158 134 100 157 131 98 125 99 66 80 55 24 90 66 38 127 107 83 160 144 121 170 155 136 171 158 141 171 158 141 146 133 117 113 99 86 78 62 47 48 31 11 44 23 2 51 26 4 53 28 8 47 21 6 27 5 0 31 13 1 143 129 116 149 140 125 143 137 121 155 149 135 158 151 141 157 148 143 147 142 139 156 154 155 178 177 175 174 166 163 105 95 86 85 73 59 104 91 74 102 91 71 89 78 56 103 92 70 142 129 110 164 148 132 170 154 141 193 180 172 225 218 212 230 231 226 125 126 120 76 72 61 89 81 68 85 76 61 60 48 32 93 80 63 122 109 92 123 112 94 137 126 108 131 122 105 135 126 111 148 140 127 152 144 133 145 136 127 134 125 116 60 51 44 29 20 13 
98 84 75 111 97 86 129 115 102 107 94 78 91 76 57 84 67 47 63 45 21 26 6 0 64 42 18 131 109 85 175 155 130 189 171 147 196 179 159 191 178 161 188 176 162 179 169 157 146 137 128 138 128 118 102 89 72 28 11 0 33 13 0 77 55 32 79 56 38 79 57 43 34 16 4 120 106 95 162 152 140 149 141 128 132 124 113 134 125 116 150 141 136 149 141 139 142 140 141 157 156 154 163 156 148 121 111 99 125 112 95 158 146 124 176 165 143 166 155 135 109 101 82 92 81 63 106 93 77 128 114 101 190 178 166 232 223 214 181 178 171 64 61 54 99 92 82 153 143 131 193 181 167 166 154 140 112 99 83 99 87 71 119 107 91 110 101 84 115 106 91 124 116 103 146 138 127 149 140 131 162 153 146 156 149 143 80 71 66 30 23 17 
72 53 39 91 73 61 130 118 106 122 114 103 106 99 89 90 84 72 62 55 39 32 21 3 118 102 77 162 142 115 186 165 136 198 177 150 200 182 158 197 184 165 188 181 165 171 167 155 171 168 161 166 162 153 126 119 103 40 28 6 94 78 52 121 101 76 119 98 77 121 100 83 91 73 61 110 93 83 169 157 145 160 150 140 140 130 120 140 130 121 153 142 136 153 145 143 151 149 150 132 131 129 154 146 135 134 123 105 153 138 115 178 164 138 178 166 144 184 176 157 186 179 163 140 133 117 79 70 53 78 66 50 98 86 70 110 98 84 26 18 7 73 65 54 162 152 142 195 183 171 185 173 159 206 194 180 198 186 170 108 96 80 97 85 69 106 97 80 109 100 85 116 108 95 150 142 131 152 145 135 154 147 139 158 153 147 104 96 93 15 10 6 
78 57 40 75 58 42 90 78 66 86 82 73 93 92 87 97 98 90 67 65 53 52 45 27 147 133 107 178 159 127 195 171 137 197 174 140 190 170 143 187 175 151 184 177 158 178 176 163 180 179 174 169 169 161 113 107 91 80 70 45 131 116 87 112 93 63 109 89 64 130 109 90 115 96 82 105 88 78 151 138 129 140 130 120 139 129 119 152 142 133 153 142 136 146 136 134 146 142 143 157 152 149 158 149 134 127 112 89 158 141 113 187 170 142 200 185 162 202 191 173 192 184 171 181 175 161 156 149 133 105 94 76 22 9 0 15 2 0 81 68 52 167 153 140 175 163 149 170 158 144 200 188 172 188 176 160 192 180 164 127 119 100 78 69 52 93 84 67 104 97 79 111 104 88 133 127 115 151 144 134 147 143 134 147 142 136 105 102 97 47 43 40 
124 103 82 91 74 56 66 57 42 74 70 59 98 99 91 101 102 94 60 58 43 82 76 54 164 149 118 189 169 132 197 172 131 191 168 126 183 165 129 184 171 139 172 166 142 175 173 158 172 171 166 170 170 162 106 101 82 105 95 68 123 109 74 117 99 63 119 98 69 131 109 86 136 117 102 124 106 96 141 127 118 144 131 123 136 126 117 138 128 119 152 141 135 162 153 148 144 138 138 155 148 142 154 139 120 122 103 73 168 148 113 200 180 147 204 188 163 205 193 177 201 193 182 202 196 184 168 161 143 129 118 98 62 47 24 112 96 73 176 157 140 161 144 126 158 142 126 162 149 132 162 151 133 169 158 140 177 169 150 120 112 91 87 79 60 97 90 71 97 90 71 111 104 86 107 101 85 125 119 105 139 135 124 119 116 107 93 92 87 126 125 120 
135 117 95 109 94 75 59 50 35 54 50 39 85 85 75 99 99 87 54 51 34 97 87 62 177 161 125 181 158 116 185 161 115 190 166 120 184 165 123 184 171 136 167 162 133 167 164 145 177 174 167 166 162 153 122 114 93 118 107 77 120 105 66 120 101 61 129 106 74 127 106 79 146 125 108 136 118 106 130 116 107 153 140 132 147 137 128 147 137 128 160 149 143 152 143 138 143 135 132 147 137 127 136 118 94 130 107 73 180 156 118 196 174 137 209 192 166 200 187 170 199 191 180 187 181 169 186 178 159 143 131 109 123 107 82 184 164 139 186 164 143 172 151 132 169 154 135 168 155 138 172 161 143 176 168 149 163 155 136 132 125 106 73 66 47 96 89 70 115 108 89 94 87 69 106 99 83 112 106 92 87 83 71 67 67 57 90 89 84 140 141 135 
126 113 94 105 94 76 104 96 83 100 94 82 91 87 76 92 86 72 45 37 16 107 93 64 186 166 129 178 154 110 191 164 117 186 162 116 189 170 128 181 167 132 175 168 139 174 169 149 181 174 164 161 153 142 124 112 88 119 104 71 117 98 56 129 108 65 124 100 64 125 101 73 147 126 107 154 136 122 107 93 82 150 137 128 148 138 129 174 165 156 168 159 152 143 134 127 143 133 124 143 130 114 104 83 54 138 112 75 188 160 120 198 172 135 196 176 149 197 182 163 187 177 165 186 178 165 193 182 164 157 142 119 161 144 118 184 163 136 168 144 120 173 151 130 170 153 135 158 145 129 183 171 155 187 178 161 155 148 132 170 163 147 75 68 50 90 83 65 112 103 86 122 115 97 124 117 101 128 122 108 87 83 72 56 56 48 130 129 125 131 132 127 
99 92 76 92 84 71 103 97 85 96 89 79 69 60 51 53 43 31 43 30 11 107 90 62 171 149 112 183 158 117 179 155 109 191 168 124 189 169 132 190 175 142 172 162 135 174 166 147 172 162 150 155 143 129 105 89 64 118 100 64 122 101 58 118 95 53 121 97 61 124 101 70 142 121 100 146 129 113 81 67 54 112 102 92 149 141 130 161 152 143 175 166 159 159 148 142 149 137 125 94 77 57 88 65 33 173 145 106 189 160 118 202 176 139 191 170 143 197 182 161 185 173 159 179 170 155 183 170 153 159 144 121 150 130 105 144 123 96 143 119 95 152 130 109 153 135 121 177 165 153 154 144 132 160 152 141 175 169 157 142 136 124 66 58 47 92 84 71 104 95 80 116 107 92 118 108 96 110 102 91 89 85 76 129 126 121 131 130 128 115 115 115 
50 43 33 59 52 44 84 77 71 89 80 75 90 79 73 98 85 76 94 78 63 90 69 48 162 139 108 163 139 103 182 158 120 185 163 126 191 172 140 191 175 149 174 162 140 152 140 124 176 162 149 108 92 76 104 87 59 118 98 63 111 88 46 122 97 56 127 103 67 124 101 70 124 106 82 129 114 95 91 79 63 88 81 65 146 138 125 140 134 122 119 112 104 99 89 80 55 39 24 67 47 23 125 101 67 176 148 109 183 154 114 172 146 109 172 152 125 189 174 153 194 182 166 172 163 148 173 160 143 172 155 135 136 118 94 132 112 87 120 98 75 159 138 121 192 175 165 180 167 159 152 141 135 126 117 112 120 113 107 90 85 79 66 59 51 90 81 72 96 86 76 99 87 75 95 82 73 77 67 58 90 83 77 146 141 138 120 118 121 117 116 121 
7 3 0 67 62 56 138 133 129 138 130 128 133 123 122 145 134 130 141 127 118 89 72 56 145 125 100 154 133 102 155 132 100 173 152 121 185 168 140 171 156 133 155 142 125 172 160 146 119 105 92 46 29 11 109 89 62 118 98 63 106 82 44 120 96 58 121 98 64 109 88 59 114 98 73 113 101 79 93 85 64 67 60 42 98 92 76 81 75 61 42 35 27 27 17 7 23 4 0 99 75 49 152 126 93 183 155 118 194 166 127 186 162 126 171 154 126 182 167 144 179 168 150 182 170 154 177 164 147 180 165 146 172 154 132 129 111 89 143 126 106 158 142 126 168 154 145 132 119 113 104 93 89 89 81 78 101 96 93 160 155 151 123 116 110 67 58 51 57 47 37 84 71 62 84 71 62 75 62 54 134 125 120 142 137 134 132 127 131 118 117 122 
29 25 14 94 90 81 169 166 161 155 151 150 146 141 145 164 158 160 168 160 157 125 115 105 87 72 53 143 127 102 149 132 104 145 128 100 148 134 108 152 139 120 167 155 141 115 103 91 41 27 14 40 23 5 87 70 44 107 88 56 108 88 53 107 87 52 115 96 64 116 99 71 116 102 76 110 100 75 69 63 39 40 35 13 41 36 16 44 38 22 42 33 24 34 22 10 31 10 0 87 64 33 160 134 101 186 160 125 198 174 140 202 182 149 202 187 158 178 166 142 170 159 139 176 165 147 170 157 141 171 155 139 172 156 140 125 112 96 126 114 98 152 143 128 74 61 52 28 17 11 83 74 69 150 142 139 184 179 176 148 143 139 132 125 119 61 52 43 15 3 0 69 55 42 64 50 37 74 60 49 161 151 142 151 144 138 141 135 135 88 86 87 
22 16 0 104 100 88 185 184 179 173 173 173 162 163 168 175 176 181 169 169 171 141 138 133 91 83 70 60 49 29 133 119 93 150 136 110 151 139 115 144 133 113 122 113 98 41 31 19 50 36 23 79 63 47 84 68 45 99 82 54 101 82 52 102 83 53 104 87 59 107 93 66 90 80 55 55 48 22 26 22 0 36 32 5 38 33 11 40 33 15 34 24 14 59 45 32 51 31 6 59 36 4 147 122 91 170 145 114 187 164 133 190 171 141 209 195 168 191 181 156 192 184 163 181 170 152 168 155 139 163 149 136 169 155 144 152 142 130 57 51 39 54 48 36 36 26 16 98 88 78 169 160 153 203 198 192 165 162 157 136 133 126 92 88 77 14 6 0 29 17 1 54 38 22 44 28 12 86 70 54 147 135 121 139 131 120 113 108 102 65 62 57 
37 31 9 132 127 108 190 190 180 176 180 179 171 178 184 182 191 198 163 171 174 138 142 141 120 120 108 43 38 18 39 29 4 96 84 58 113 103 78 124 113 93 135 128 112 109 101 90 63 51 39 67 54 38 72 57 36 71 55 32 60 44 19 65 49 24 61 46 23 51 39 15 42 35 9 39 35 8 37 36 6 34 33 3 45 41 16 52 45 26 33 23 11 70 54 39 138 118 91 117 94 62 126 101 71 149 125 97 169 148 121 177 161 135 175 163 139 190 182 159 211 203 182 186 174 158 168 154 141 172 158 149 160 150 141 76 69 61 12 12 4 27 27 15 59 51 38 127 118 103 157 151 139 145 141 129 107 105 93 80 78 65 23 20 3 22 15 0 57 46 24 44 30 4 73 57 32 134 118 95 151 138 119 140 131 114 111 105 93 67 63 52 
37 29 10 137 132 113 183 181 168 177 179 174 174 182 185 181 191 200 163 174 180 152 162 163 124 129 122 68 69 55 135 129 107 158 148 123 160 149 127 171 160 142 133 124 107 96 87 72 52 40 26 45 32 16 57 42 23 48 33 12 47 30 10 50 35 14 72 60 38 64 53 31 81 75 51 83 81 56 73 73 47 84 84 58 91 87 62 46 40 16 66 53 34 161 144 124 166 149 121 186 167 137 153 132 105 121 99 75 135 117 93 139 124 101 147 136 116 158 150 131 154 145 128 160 150 138 149 138 132 135 126 121 111 106 102 58 55 50 27 28 20 42 40 27 57 48 31 48 36 20 45 37 24 62 58 46 57 55 40 64 62 47 34 28 12 40 33 14 48 36 14 35 21 0 111 96 67 157 143 116 157 145 123 160 149 131 146 137 122 77 70 54 
14 5 0 103 95 84 164 158 144 147 145 133 178 179 181 174 181 189 159 169 178 153 164 170 138 146 148 82 84 79 67 64 49 106 97 80 107 93 80 101 85 72 93 80 63 88 75 56 95 78 60 95 78 60 82 65 47 66 49 31 55 40 21 63 48 29 106 93 74 101 90 70 103 98 79 99 98 80 107 108 90 61 63 42 21 16 0 35 25 0 144 125 95 180 161 131 187 173 147 199 184 161 195 179 154 169 153 130 146 131 110 135 122 103 110 97 81 70 58 46 93 80 71 103 94 89 96 92 93 108 108 110 102 106 107 101 103 98 72 70 57 53 46 28 36 23 6 43 27 12 45 35 25 55 49 37 82 79 62 77 71 55 31 21 9 37 25 13 19 3 0 45 30 9 124 110 83 161 150 122 168 155 136 167 154 138 146 130 115 101 85 70 
8 0 0 26 16 6 132 124 105 164 158 142 193 189 188 170 173 180 154 163 170 145 156 162 137 144 150 110 112 111 35 31 20 34 25 10 73 56 48 94 77 67 101 88 69 105 90 67 101 83 61 103 85 65 99 82 64 83 68 49 60 45 26 78 63 44 137 124 105 127 116 98 115 109 93 116 114 101 122 124 111 76 77 63 6 1 0 78 66 40 159 136 104 174 151 119 178 163 140 186 175 155 196 181 158 207 192 169 185 172 153 172 161 143 154 142 128 109 96 87 111 98 92 119 109 108 140 139 144 140 143 148 108 113 116 108 110 105 148 142 126 92 80 58 67 49 29 111 94 78 97 83 72 65 57 44 78 73 54 71 64 45 31 19 7 28 11 1 14 0 0 59 42 22 122 108 81 169 158 130 165 152 135 160 146 133 143 125 111 108 89 75 
15 0 0 29 13 0 112 100 78 140 132 113 170 162 159 180 180 182 182 187 191 161 168 174 148 153 157 94 94 92 28 22 10 88 76 62 121 107 98 116 99 89 106 93 74 104 92 68 112 96 71 108 92 67 108 93 70 95 83 61 67 55 33 95 83 61 162 150 128 137 126 106 127 120 104 129 125 113 125 125 115 127 125 113 43 36 20 73 58 37 155 131 103 181 155 128 185 169 146 183 168 147 193 177 154 203 187 164 195 182 163 191 179 163 176 166 154 130 120 111 120 109 103 146 138 136 148 146 149 151 152 156 132 136 137 110 110 102 136 125 107 116 98 74 104 82 59 117 96 75 148 130 116 101 89 73 93 85 64 30 22 1 26 13 0 42 24 10 24 7 0 69 53 30 125 111 82 168 157 129 160 149 131 156 142 129 150 132 118 111 93 79 
190 171 154 194 176 154 223 206 180 225 210 187 136 126 117 117 113 112 165 166 168 158 163 166 158 162 163 83 84 79 61 55 41 142 130 114 134 117 107 130 114 101 121 108 89 116 104 80 119 105 79 115 101 75 113 101 77 108 96 74 86 74 52 109 97 75 167 155 133 135 124 104 126 119 103 139 133 121 134 131 122 145 141 132 101 91 79 62 45 29 146 120 97 184 158 133 187 167 143 178 162 139 185 167 143 193 177 154 188 175 156 188 179 162 195 185 173 117 109 98 125 114 108 152 144 141 140 138 139 142 142 142 146 146 144 129 125 114 125 108 88 125 104 77 117 91 64 131 107 83 115 97 77 118 103 84 63 53 28 48 36 12 132 115 97 131 112 95 55 37 17 94 76 52 143 129 100 145 134 106 162 151 133 158 144 131 142 126 111 107 89 75 
236 211 189 231 210 183 227 206 175 243 226 200 119 105 92 54 47 41 106 107 102 127 129 126 149 151 150 86 85 80 107 100 84 146 135 115 134 118 103 142 126 111 124 112 90 112 100 76 118 103 80 123 108 85 119 108 86 118 107 87 108 97 77 105 94 74 152 139 120 131 120 102 122 113 96 125 117 104 150 146 135 148 141 131 139 129 117 95 78 62 124 98 75 172 144 120 188 166 143 190 169 148 172 152 128 176 158 134 170 157 138 192 183 166 187 178 163 42 34 23 82 72 62 120 111 104 132 128 125 133 129 126 136 133 128 93 83 71 99 77 53 128 101 71 143 116 86 133 107 80 129 109 85 96 80 57 53 39 13 134 120 94 166 148 126 168 147 126 82 62 38 81 61 36 154 139 110 153 142 114 159 148 128 161 148 132 133 117 102 83 67 52 
230 204 179 244 218 191 235 212 180 230 210 183 124 108 92 26 17 8 31 31 23 44 46 41 91 92 87 55 52 45 128 119 102 147 135 113 153 136 118 148 131 113 135 123 99 133 121 97 132 117 96 135 123 101 128 117 99 128 120 101 133 122 104 94 83 65 127 114 95 127 114 97 123 111 95 117 110 94 152 146 134 158 152 140 144 135 120 129 112 94 111 87 63 160 134 109 167 145 122 175 154 133 168 146 123 176 156 132 178 163 142 190 179 161 127 115 99 37 25 11 63 51 37 80 70 58 97 90 82 109 104 98 81 74 66 54 41 25 100 74 49 121 90 59 164 135 105 133 108 78 127 107 83 63 47 24 100 86 60 157 141 116 163 145 123 178 158 134 138 116 92 61 41 14 93 78 49 131 117 90 144 131 112 152 139 123 101 85 70 52 36 21 
245 219 192 230 205 175 226 203 171 227 207 180 145 129 113 44 34 24 30 27 18 4 5 0 1 0 0 35 31 22 148 137 119 156 141 118 160 144 121 148 132 109 152 138 111 148 134 108 149 134 115 149 133 117 137 123 110 139 127 113 144 132 116 70 58 42 101 88 71 122 109 90 119 108 90 136 127 110 153 147 133 153 147 133 130 121 104 139 126 107 111 91 66 144 123 96 161 140 119 152 131 112 159 137 114 163 143 119 166 150 127 151 136 115 114 99 78 155 140 119 158 141 121 168 152 136 100 90 78 30 22 11 15 7 0 53 37 21 110 84 59 140 109 80 157 130 101 139 115 89 99 81 59 60 45 24 114 99 78 140 125 104 148 130 108 167 147 123 175 154 127 107 86 59 47 30 2 37 23 0 35 22 3 55 42 26 50 34 19 80 62 48 
241 217 189 243 219 191 227 206 175 225 205 180 150 134 119 38 30 19 24 22 10 15 16 8 11 10 5 82 78 69 158 147 127 149 133 107 160 143 117 155 138 110 151 136 107 145 129 103 144 126 106 142 124 110 135 121 108 134 122 108 129 117 103 34 21 5 75 60 41 117 102 83 113 100 81 136 127 110 159 153 137 156 150 136 145 138 122 144 133 113 93 77 52 121 103 79 149 132 114 151 132 115 156 135 114 144 124 100 141 123 99 124 106 82 140 120 96 156 136 111 163 142 115 189 169 145 159 143 127 40 28 14 22 12 0 52 36 20 109 83 60 143 113 87 144 118 93 104 84 60 56 41 22 41 28 12 72 60 44 110 97 80 125 107 85 153 133 108 169 148 121 145 124 95 93 76 50 61 45 22 17 1 0 51 35 20 77 59 45 67 50 34 
228 211 183 234 217 189 217 200 174 229 213 190 113 101 87 12 5 0 64 64 54 80 81 73 75 74 70 94 87 79 163 151 129 156 139 111 160 141 111 146 125 94 140 121 89 122 103 73 124 102 79 137 116 99 144 126 112 155 142 126 97 84 68 13 0 0 32 17 0 88 73 52 117 104 85 123 112 94 142 136 122 155 151 139 139 133 119 130 123 107 72 59 40 68 53 34 118 105 89 143 127 112 142 124 104 114 94 70 111 89 66 144 120 96 148 122 95 123 96 67 136 107 77 147 122 92 162 144 120 110 97 80 40 28 14 26 10 0 59 34 12 112 86 63 113 92 71 78 62 46 62 50 36 39 29 19 66 56 46 66 54 40 84 67 49 110 90 66 123 102 73 113 92 63 99 79 55 82 65 45 39 23 7 32 16 0 76 57 42 80 61 44 
219 203 178 198 184 158 197 181 158 219 206 187 93 83 71 62 55 45 113 113 103 105 105 97 96 92 89 71 64 56 115 103 81 133 116 86 131 108 76 120 97 63 139 119 86 141 120 89 147 123 97 154 132 109 128 111 91 76 61 42 28 15 0 89 74 53 137 121 98 113 97 74 128 113 92 128 117 99 93 85 72 118 114 103 117 113 102 80 74 62 35 26 11 59 47 33 34 22 10 57 44 28 46 27 10 81 59 36 133 109 85 124 96 72 146 117 87 134 104 70 133 100 65 133 104 72 148 127 100 142 127 106 57 45 29 11 0 0 42 20 0 122 97 77 150 133 115 177 165 151 189 179 170 165 156 149 147 138 133 115 105 95 83 68 49 76 56 31 87 66 37 115 94 65 124 103 82 132 113 96 116 99 81 78 61 43 69 50 33 76 55 36 
218 203 180 212 200 178 181 166 147 188 176 160 148 140 129 106 102 93 99 99 87 96 96 88 108 104 101 102 93 88 74 59 38 74 55 25 112 88 54 115 91 55 112 89 55 130 107 75 140 117 85 113 92 63 121 104 78 113 98 75 69 57 33 133 118 95 187 171 146 195 179 154 175 160 139 174 163 145 166 158 147 149 145 136 137 132 126 103 98 92 47 38 31 41 31 22 22 12 2 11 0 0 59 40 23 129 104 82 123 97 74 124 94 68 121 88 57 121 87 52 127 91 55 143 110 75 147 123 95 174 158 135 67 55 39 27 14 0 130 109 88 174 153 132 187 171 156 203 193 181 199 190 183 204 196 193 199 191 189 172 161 155 101 86 67 78 58 31 126 103 72 152 128 100 156 134 113 148 129 112 145 128 110 135 118 98 111 93 73 81 60 39 
228 213 192 234 222 200 219 204 185 235 222 206 136 126 116 101 94 84 106 104 92 100 100 90 103 98 95 110 99 95 89 72 52 123 102 71 150 126 90 135 111 73 119 95 61 128 105 71 120 100 65 127 108 76 122 107 78 155 141 115 137 125 99 135 123 97 194 178 152 196 179 153 199 183 160 208 195 176 211 201 189 221 214 206 211 206 202 205 200 196 143 133 131 22 11 5 15 3 0 98 82 66 146 125 106 138 113 91 131 103 81 124 92 67 117 82 52 121 85 51 128 92 56 149 116 81 135 111 83 177 161 138 123 112 94 69 56 39 151 133 111 175 154 133 192 176 161 197 185 173 192 183 176 205 197 194 196 186 185 167 156 150 101 84 64 117 96 65 153 130 96 162 139 107 158 136 113 151 133 113 152 134 114 146 130 107 137 116 95 128 108 84 
218 202 179 214 199 176 212 195 177 228 212 197 132 119 110 106 97 88 107 103 92 102 99 90 99 91 89 93 79 76 78 60 40 136 113 82 146 122 86 135 111 73 142 118 84 147 127 94 138 119 86 133 116 86 122 108 81 129 119 94 143 133 108 121 109 83 170 154 128 199 182 156 217 200 174 210 195 174 200 188 174 195 186 177 206 199 193 183 176 170 59 50 45 39 26 18 130 117 101 167 150 130 142 120 97 143 117 94 131 103 81 119 87 64 129 95 68 160 125 95 179 145 110 169 139 105 163 142 115 173 158 135 155 144 126 102 89 72 147 127 103 180 160 136 183 166 148 182 168 155 190 180 170 195 186 179 193 182 180 172 158 149 112 92 68 148 125 91 167 143 105 143 119 83 147 125 101 160 142 120 153 135 111 151 135 110 155 135 111 138 118 93 
210 193 167 211 193 169 194 176 156 137 119 105 98 84 73 113 103 93 103 97 85 96 92 81 87 77 76 99 85 82 74 56 36 119 96 65 145 121 85 143 119 81 147 124 90 150 129 98 139 122 94 138 124 97 129 118 96 137 129 108 140 132 109 88 78 53 135 121 94 179 162 134 194 177 149 204 188 163 194 181 164 199 190 175 186 178 167 68 59 50 43 33 24 161 147 136 182 165 145 153 133 108 157 133 109 146 118 96 175 147 125 170 139 118 174 142 119 176 145 117 176 143 112 174 145 115 190 170 145 187 172 151 162 151 133 115 102 83 156 134 110 177 153 129 188 170 148 180 164 148 192 178 165 189 176 167 184 169 164 158 141 131 113 92 63 164 140 102 156 132 88 177 154 113 169 148 121 152 132 108 143 127 101 140 125 96 143 126 100 146 129 101 
142 121 94 158 136 112 116 94 73 38 16 2 34 16 4 104 92 80 89 81 68 89 82 72 80 70 69 88 73 70 74 56 36 122 99 68 141 117 81 126 102 66 137 114 82 141 122 92 123 107 84 98 85 68 98 89 72 112 105 89 108 101 83 66 58 37 85 71 45 152 135 107 172 155 127 181 164 138 197 182 159 193 180 161 111 99 83 11 0 0 105 92 76 172 157 138 179 159 134 158 134 106 164 137 110 169 141 117 162 134 113 169 141 120 178 147 126 166 136 112 156 126 98 164 138 111 163 145 121 183 171 149 160 149 131 111 96 75 148 124 98 173 147 120 184 162 138 171 153 131 178 163 144 188 174 161 193 176 168 161 142 128 125 102 70 168 144 100 163 136 89 174 149 108 159 135 107 149 129 105 139 124 95 131 116 85 136 121 92 132 117 86 
128 110 88 100 82 62 114 95 78 103 84 69 88 71 55 82 66 50 80 67 51 80 68 56 80 64 64 80 62 60 61 44 28 108 88 63 137 116 87 111 90 59 109 88 59 104 84 59 95 78 58 124 111 94 119 110 95 127 120 104 115 109 95 90 83 67 69 61 42 86 73 54 154 142 120 181 168 149 181 168 151 116 103 86 30 17 0 69 54 33 155 137 117 162 142 117 191 170 141 162 139 107 149 122 95 160 130 106 142 114 93 141 113 92 139 111 89 142 114 90 139 113 86 133 112 85 153 136 116 182 169 152 122 109 92 102 85 65 145 121 93 165 138 108 167 141 114 169 147 123 172 154 132 187 170 152 186 168 156 153 132 115 122 99 67 153 128 87 163 136 91 171 147 103 152 127 96 145 124 95 137 120 90 122 107 76 128 113 84 127 112 83 
191 184 176 142 135 125 122 112 102 134 122 106 136 120 95 104 87 61 114 91 73 112 88 76 99 75 71 91 72 66 74 58 45 50 37 20 69 56 40 57 42 23 55 37 13 99 79 55 165 147 125 176 161 140 180 168 146 203 195 176 156 148 137 130 126 117 94 91 82 45 42 35 37 34 29 94 89 85 74 64 62 24 11 3 91 75 59 158 138 114 162 136 111 148 121 92 191 168 134 164 141 107 151 123 99 161 133 111 135 104 84 142 114 92 142 115 88 150 125 95 137 113 85 144 124 100 185 167 153 192 174 164 94 76 64 78 57 38 132 108 80 158 132 99 165 138 109 167 141 116 179 154 132 183 162 141 180 159 142 171 150 131 121 100 73 131 108 76 140 116 78 155 130 90 146 122 86 135 111 77 142 121 90 129 110 80 119 102 76 121 103 79 
168 165 160 145 142 135 63 56 46 111 102 85 133 119 90 97 78 46 76 49 28 99 71 57 95 68 61 130 110 103 113 101 89 64 54 42 8 0 0 15 1 0 76 58 36 180 160 135 201 181 157 189 171 147 186 170 144 216 204 180 197 187 175 229 222 214 153 152 147 61 62 57 13 13 13 1 0 0 7 0 1 77 63 60 168 149 132 155 131 105 133 102 74 151 120 89 163 139 103 154 131 99 173 147 124 155 127 106 139 108 90 149 121 99 145 120 90 132 109 77 144 125 95 119 101 79 151 133 123 171 152 146 40 22 12 39 20 5 131 110 83 149 126 94 164 137 108 169 142 115 172 147 125 192 170 149 197 176 159 174 153 136 131 110 91 108 88 64 135 114 85 129 106 74 130 106 72 139 115 81 124 99 68 120 96 68 117 96 69 111 89 65 
57 49 38 121 113 102 121 111 99 107 96 78 94 79 50 97 78 46 102 78 54 132 107 87 104 80 68 133 115 105 149 137 123 213 204 189 74 62 50 16 0 0 124 102 78 219 195 167 191 167 141 186 165 138 186 167 137 202 186 160 223 212 194 237 229 216 223 219 207 109 107 95 44 44 36 5 2 0 10 0 0 84 69 62 180 159 138 145 119 92 138 107 78 151 120 89 127 103 69 125 102 71 132 105 84 121 92 74 146 117 101 162 134 113 148 123 93 123 102 71 117 100 72 128 113 90 152 138 127 134 119 112 18 3 0 19 3 0 95 79 54 145 126 96 156 132 104 166 142 116 170 148 127 186 165 148 199 179 168 187 169 159 156 137 130 102 84 74 92 73 58 107 86 67 104 82 58 110 86 58 117 92 62 138 111 82 151 124 95 154 127 98 
89 73 57 135 122 105 132 119 103 121 106 87 76 61 32 81 62 30 221 197 169 228 203 181 208 187 170 198 180 166 203 191 175 203 194 179 129 115 102 14 0 0 129 105 77 216 191 160 209 184 154 224 201 170 200 180 147 222 205 175 221 206 185 216 208 189 241 234 218 167 164 149 144 140 128 78 74 65 7 0 0 44 30 19 137 116 95 124 98 71 134 105 75 141 112 82 142 117 87 122 98 72 114 87 68 136 108 94 142 114 100 154 127 108 158 134 106 127 108 78 135 121 94 132 120 98 121 111 101 144 133 127 97 86 80 32 22 12 75 64 44 133 119 93 160 143 115 157 137 112 166 145 124 181 162 147 186 168 158 183 164 158 173 155 151 143 126 119 51 34 26 23 5 0 24 6 0 33 11 0 96 71 41 168 139 107 198 165 132 202 169 134 
139 119 95 134 116 94 140 123 105 125 108 88 72 55 27 97 78 46 227 204 173 249 228 199 248 228 204 231 214 194 221 210 192 216 207 190 241 228 212 100 82 62 119 94 64 206 180 147 179 154 123 205 182 151 211 191 156 227 208 176 215 199 174 208 197 175 197 189 170 175 170 151 176 173 158 152 148 136 33 24 17 11 0 0 89 73 50 141 120 93 141 115 88 132 106 79 145 121 95 138 113 91 120 94 79 141 114 103 154 128 115 169 146 128 173 153 128 160 145 116 137 125 99 126 118 99 152 145 135 172 167 163 148 143 139 115 110 104 105 99 85 87 81 59 127 113 87 145 129 103 158 142 119 171 154 136 168 150 136 174 157 147 167 153 144 127 114 105 25 12 3 28 14 1 13 0 0 35 15 0 93 68 37 135 105 69 193 158 118 216 179 135 
150 129 102 151 131 107 140 119 100 103 85 65 99 79 52 128 107 76 195 172 140 215 192 160 233 214 184 229 213 188 232 219 200 240 228 212 246 233 217 236 218 198 103 80 49 190 164 131 156 131 101 163 138 108 188 165 131 165 146 113 205 189 163 203 191 167 202 194 171 203 198 178 202 199 182 197 193 181 77 73 64 9 0 0 98 85 68 138 122 99 139 118 97 130 109 88 148 127 106 148 127 110 159 137 124 120 98 87 75 53 40 78 59 42 104 88 65 113 101 75 139 131 108 162 157 138 166 162 153 166 162 159 138 137 135 130 129 125 139 139 129 120 117 102 97 89 68 138 126 102 137 122 99 148 131 111 156 139 121 172 155 139 158 145 129 80 68 52 21 12 0 40 28 12 44 31 12 27 11 0 71 48 17 140 110 74 146 111 71 180 141 98 
141 119 95 142 122 98 130 109 92 107 88 71 120 100 76 119 98 67 187 163 127 214 190 152 216 193 159 238 219 189 229 214 193 237 224 208 239 225 212 225 208 192 96 75 48 169 144 114 170 144 117 164 139 109 167 144 110 160 140 107 204 187 159 200 185 162 196 188 165 206 201 181 204 203 185 218 218 206 188 187 182 6 3 0 12 6 0 19 11 0 20 8 0 111 97 84 156 140 125 144 128 113 124 107 97 53 36 28 15 0 0 13 0 0 56 43 24 125 117 94 135 129 107 159 156 139 160 157 150 138 137 135 137 137 137 139 139 139 134 135 130 157 157 149 131 125 111 133 124 107 113 100 81 127 112 89 147 129 105 142 125 99 141 125 100 96 84 58 90 79 57 91 83 62 103 92 70 74 59 36 50 30 3 109 82 52 153 119 84 159 121 85 
118 97 76 127 109 89 125 106 92 115 96 82 111 90 71 147 123 97 236 210 173 221 196 155 231 207 169 224 204 171 218 201 181 232 218 205 254 240 229 163 149 136 88 70 50 122 100 76 189 163 138 186 159 130 196 172 138 197 174 140 196 176 149 166 150 125 157 147 122 200 194 172 211 208 191 233 233 223 150 150 148 2 2 0 4 3 0 3 0 0 25 20 16 103 96 90 156 146 136 144 134 124 134 121 113 107 96 90 72 59 51 23 13 1 57 50 32 144 139 119 132 127 108 123 120 105 137 134 127 138 137 135 150 150 152 131 132 134 141 143 142 164 165 160 148 145 138 129 123 111 118 106 90 117 102 81 128 108 83 107 88 58 117 98 68 119 104 75 118 106 80 120 109 87 128 117 97 123 110 91 60 44 21 40 18 0 135 105 81 167 136 108 
83 67 52 114 98 85 117 100 92 89 71 61 66 44 30 202 178 154 236 207 173 234 205 165 234 206 166 231 207 173 234 216 194 243 227 214 233 220 212 125 115 106 74 60 47 103 85 65 170 142 120 172 141 112 180 151 117 229 203 168 194 170 142 199 179 154 175 161 135 184 173 151 222 216 200 192 189 180 42 42 42 0 0 2 19 21 18 111 113 110 169 169 169 186 185 183 194 189 183 210 206 197 196 189 183 187 182 178 175 168 162 132 128 117 92 89 74 123 120 103 140 137 120 140 136 124 107 104 97 118 117 115 129 127 128 116 116 118 141 141 143 169 169 169 148 146 147 144 139 135 130 120 110 106 89 73 115 93 69 118 94 66 126 103 72 126 105 76 120 104 79 126 114 92 145 133 117 135 123 109 103 89 76 39 21 9 47 25 11 125 102 86 
29 16 8 95 85 76 90 76 73 83 68 63 121 101 92 223 197 180 224 195 163 232 203 163 229 199 161 218 192 159 236 215 196 213 199 188 131 120 114 113 104 97 112 103 96 104 88 75 159 131 109 165 132 101 185 152 117 190 160 124 218 191 162 210 186 160 182 165 139 172 157 134 193 184 167 108 104 95 9 7 8 56 55 60 166 168 167 192 194 193 203 204 208 190 190 192 180 179 175 182 181 176 190 189 185 179 178 174 197 196 191 179 179 171 154 152 140 130 128 115 128 125 110 137 133 121 123 118 112 108 104 101 120 116 117 131 129 130 148 146 149 166 166 168 152 152 154 118 114 111 102 92 83 119 103 87 112 90 66 126 100 73 124 99 69 126 102 74 129 109 85 123 106 88 143 131 117 143 133 123 111 101 92 51 38 29 47 33 22 41 24 14 
77 69 67 101 96 93 98 90 88 71 61 59 119 104 99 222 200 187 216 189 162 236 207 173 229 201 164 226 201 170 229 211 191 145 131 120 95 88 80 146 141 135 129 124 121 102 89 81 130 103 82 167 132 102 186 152 115 170 138 100 179 148 117 190 163 134 172 148 120 191 173 149 191 178 161 46 36 26 67 61 61 183 178 182 188 187 185 178 178 176 184 184 186 184 184 186 200 202 201 183 185 182 179 181 178 171 173 170 174 176 173 187 188 182 177 177 169 145 143 131 72 68 56 83 77 65 124 117 109 125 118 112 114 106 104 121 115 115 150 146 147 151 149 150 136 136 134 56 53 46 79 71 58 121 106 87 113 91 67 112 86 59 114 89 59 113 87 60 125 103 80 125 106 89 136 122 109 140 130 118 114 106 95 47 39 28 38 30 17 47 39 26 
83 78 82 74 72 73 85 84 82 70 64 64 64 52 52 159 142 135 230 205 185 216 189 162 218 191 161 204 180 152 231 214 196 113 101 89 12 8 0 140 137 132 146 145 143 97 88 83 84 59 39 180 149 120 184 154 118 184 154 118 158 129 99 160 133 106 151 127 99 189 169 145 120 105 86 40 27 18 172 164 162 179 173 175 182 178 175 179 178 174 176 176 176 182 182 182 183 184 186 166 170 169 175 179 180 163 167 166 176 180 179 188 190 187 198 199 193 180 177 170 61 57 46 19 11 0 51 42 33 98 89 82 111 102 97 105 97 94 134 129 126 121 117 114 28 27 22 18 16 4 89 82 66 102 90 68 103 86 60 104 83 54 111 88 57 118 94 66 118 96 73 121 103 83 122 106 90 124 112 98 103 96 80 33 27 13 28 25 8 103 100 83 
84 82 87 75 75 77 82 84 83 92 92 90 75 69 71 89 78 76 157 137 126 201 179 158 225 203 179 187 167 143 224 211 195 101 93 80 5 1 0 59 59 51 120 118 119 125 117 114 51 34 18 138 114 88 194 171 139 202 177 146 155 129 102 117 93 69 154 132 108 144 126 104 27 11 0 140 127 118 191 181 180 175 169 169 178 175 170 176 175 170 170 169 167 160 160 160 169 170 172 170 174 175 167 172 175 157 163 163 175 179 180 184 186 185 177 178 173 172 169 164 98 91 83 67 59 48 76 66 54 74 64 54 92 83 74 104 97 89 114 109 103 88 85 78 55 53 41 25 22 7 46 39 21 90 79 57 90 76 49 93 76 46 98 79 47 107 86 57 116 96 69 123 105 81 129 112 92 115 102 83 75 67 48 8 1 0 63 58 38 156 154 133 
70 69 75 72 73 77 66 70 69 66 68 67 88 86 91 102 93 96 71 58 52 55 37 25 68 51 33 124 109 90 146 134 120 101 95 81 93 91 76 106 106 94 115 114 112 138 133 130 69 59 47 75 60 39 171 155 129 174 157 131 189 171 149 187 169 149 150 132 112 20 5 0 76 62 49 203 193 184 187 178 179 189 185 186 189 188 183 188 189 183 181 182 177 163 163 163 179 180 182 181 185 188 158 162 165 168 172 175 174 178 179 184 185 187 163 162 160 186 183 178 100 93 85 64 54 44 112 100 86 109 100 85 104 94 82 102 96 84 107 103 92 117 114 105 122 118 107 74 68 56 15 8 0 43 35 14 69 59 32 81 67 38 96 81 50 102 85 55 99 79 52 107 90 64 120 102 80 132 115 95 114 101 82 36 28 9 110 103 84 145 140 120 
67 66 71 62 63 65 59 65 61 69 75 73 68 69 74 96 93 100 79 71 69 13 2 0 54 40 29 88 76 62 111 103 90 117 114 99 132 131 113 122 123 109 131 127 124 128 124 123 101 98 89 49 46 31 118 113 93 164 158 136 159 147 131 120 108 94 46 34 18 10 1 0 86 77 68 212 207 203 182 178 179 179 177 180 178 179 174 174 177 170 180 182 177 171 173 172 180 181 185 175 176 181 172 173 177 177 178 182 184 185 189 164 165 167 153 151 152 179 174 171 107 98 91 56 46 36 117 105 91 131 122 105 126 117 100 135 129 113 132 128 116 126 122 113 120 112 109 175 165 163 114 105 96 7 0 0 27 19 0 47 37 12 47 36 8 50 36 7 104 87 61 124 107 81 129 111 89 143 124 107 116 100 84 52 38 25 141 129 117 153 143 131 
74 73 78 73 74 76 74 80 76 64 73 70 70 73 80 99 99 107 50 44 46 28 19 14 108 98 89 122 112 100 111 105 93 115 113 98 117 116 96 127 128 112 124 119 115 139 135 134 154 155 149 73 75 62 85 86 70 191 188 171 105 99 85 35 27 16 10 2 0 6 0 0 26 19 11 162 158 155 182 180 183 173 173 175 177 179 176 177 180 173 166 171 167 180 184 183 184 183 188 188 187 193 189 190 194 196 197 201 180 181 185 169 169 171 150 148 151 161 156 153 83 74 69 61 51 41 118 106 90 134 126 107 132 124 105 137 132 113 138 135 120 128 124 115 139 129 128 187 175 177 180 171 166 54 46 35 61 54 38 96 90 68 94 84 57 97 86 58 153 137 111 167 149 125 164 143 122 154 135 118 92 74 60 63 49 38 156 142 133 154 141 133 
