P3
64 64
255
129 121 102 137 138 106 131 128 93 140 135 116 149 144 124 153 148 129 155 148 119 116 110 94 151 146 126 108 124 75 151 146 127 135 129 113 149 141 120 136 129 110 148 143 121 134 141 87 146 146 118 146 142 117 148 148 120 157 158 114 147 142 122 144 140 115 161 155 133 153 148 129 155 149 133 151 147 102 137 136 108 153 151 128 142 135 117 170 158 100 143 133 121 145 139 127 143 137 121 156 152 127 153 147 123 154 145 128 172 166 154 164 158 142 148 142 126 147 142 120 139 133 117 128 126 111 131 138 87 165 159 145 166 161 142 161 168 101 157 155 116 150 144 128 151 145 129 161 156 137 164 163 142 151 145 131 135 129 103 161 159 134 144 138 126 149 144 124 168 172 139 140 136 107 146 142 115 149 143 127 154 150 123 153 149 124 158 152 138 161 152 137 
147 145 130 152 143 102 105 103 64 146 141 122 149 143 127 156 150 136 148 142 126 87 91 56 140 148 91 120 129 76 175 169 155 141 131 119 159 153 139 165 160 141 156 147 132 110 116 82 159 154 132 153 149 120 154 151 134 130 133 78 149 143 129 144 138 122 163 158 139 156 150 138 152 145 119 222 219 186 151 132 100 153 146 127 145 137 118 98 113 48 160 154 138 148 145 130 138 133 114 117 119 79 108 103 63 124 119 81 164 159 140 156 159 130 93 83 73 101 108 77 148 148 94 122 125 68 98 101 58 171 164 156 131 129 88 148 141 123 137 142 88 173 164 147 170 164 148 159 150 133 91 92 50 122 127 97 132 127 107 119 113 99 150 144 130 137 134 125 153 157 80 111 117 73 142 135 109 162 164 142 149 157 120 150 145 123 149 143 129 141 137 125 
153 147 131 148 143 124 139 133 111 143 133 98 149 149 121 149 148 120 141 148 115 140 132 119 145 137 124 137 131 117 161 155 139 122 123 92 159 173 94 136 135 104 157 152 130 146 140 124 146 144 103 117 122 81 115 134 55 145 129 96 138 147 82 118 130 90 116 132 67 106 116 64 124 131 80 167 164 133 116 116 82 133 133 83 174 170 145 134 139 99 122 139 61 101 109 50 114 102 78 135 131 106 159 155 130 138 133 127 161 166 125 149 147 122 163 159 124 183 176 134 153 147 135 148 138 128 151 145 133 88 98 61 160 154 140 115 109 95 158 152 136 137 140 97 110 112 75 156 150 134 133 130 115 137 136 106 171 173 133 134 140 96 115 133 57 104 118 57 167 161 145 165 159 143 145 145 71 109 118 71 132 148 83 130 138 89 121 133 59 161 156 136 
157 150 140 169 164 142 158 154 127 129 130 72 128 124 99 129 124 105 124 136 60 158 152 138 134 128 114 137 131 117 151 145 131 134 131 122 127 132 100 155 149 133 151 146 124 167 161 145 149 143 127 138 146 105 140 133 114 142 137 117 154 144 132 122 129 62 127 145 63 127 120 104 156 150 136 132 123 106 152 146 120 109 110 79 143 137 125 150 143 127 122 133 67 143 139 114 141 135 123 137 136 108 152 148 119 144 139 120 121 114 88 158 152 136 161 157 132 160 150 99 116 107 98 157 151 137 152 144 133 162 165 136 158 152 140 159 153 139 158 153 134 160 150 149 94 97 68 154 148 132 159 155 130 148 147 127 160 155 133 134 137 82 139 140 109 142 136 120 160 154 142 152 146 132 150 166 103 115 109 95 148 140 127 108 121 42 139 144 103 147 139 126 
125 120 101 170 161 146 165 161 136 155 161 117 170 164 148 158 146 132 124 132 85 164 158 144 162 156 142 149 144 124 142 136 120 145 149 116 132 127 108 159 151 138 145 138 120 144 134 122 159 153 137 146 157 89 147 141 125 136 128 115 155 152 117 154 157 130 144 147 94 152 150 135 145 139 127 142 138 113 172 166 142 150 152 113 148 144 119 156 151 132 133 144 84 147 142 123 145 142 125 163 162 131 159 148 120 138 141 114 166 159 130 160 154 140 150 145 116 162 164 127 142 133 118 149 143 127 169 164 145 150 142 131 143 143 115 158 152 136 160 155 136 132 129 114 151 149 98 154 145 130 147 137 127 156 148 137 153 149 120 96 104 57 155 150 128 135 129 117 151 145 131 145 139 123 152 164 102 145 139 125 165 159 145 87 109 47 171 165 149 154 147 137 
138 130 119 153 149 120 157 146 124 150 146 117 150 143 117 145 143 131 113 113 87 170 166 141 160 154 140 150 145 126 123 117 103 88 84 59 163 154 139 137 130 114 157 149 136 170 165 146 141 135 121 141 162 67 143 141 116 161 154 136 161 155 139 146 136 137 111 114 85 160 151 122 138 133 114 149 145 116 135 138 107 138 135 120 128 129 111 115 122 91 132 132 94 141 140 112 168 164 135 156 149 120 141 136 114 161 138 97 141 139 114 151 145 123 163 162 141 145 143 118 146 141 121 146 140 128 144 137 129 147 139 128 115 123 76 157 151 125 154 145 130 148 141 123 104 112 73 152 148 136 152 144 131 157 152 132 132 124 105 132 124 85 167 162 143 152 146 130 170 164 150 139 140 126 93 95 55 142 140 128 102 122 69 117 124 72 175 188 119 140 136 107 
98 99 81 143 136 120 176 159 113 125 122 69 114 107 78 114 118 67 109 107 84 133 138 106 154 159 129 115 125 65 183 178 159 144 139 120 143 143 117 130 135 94 153 145 132 152 147 128 138 147 94 126 133 91 153 155 118 98 103 49 139 132 122 113 121 82 143 142 85 116 113 68 177 158 116 120 123 78 172 165 137 132 137 97 172 173 115 152 148 123 158 152 136 182 172 145 149 152 121 157 153 126 175 169 135 174 159 100 165 153 101 120 109 79 173 157 106 146 143 108 133 140 96 121 131 94 150 152 115 161 165 128 139 148 101 150 155 115 176 174 151 134 138 103 128 134 90 128 144 69 173 183 146 175 176 144 172 177 137 88 101 45 113 124 55 121 128 77 147 154 86 112 133 64 167 178 120 121 131 71 144 142 103 156 150 136 139 132 122 160 159 95 
129 138 85 181 177 165 150 145 126 130 125 105 155 151 122 165 154 136 141 136 117 141 140 119 154 165 123 147 141 127 128 130 109 139 133 119 145 140 121 147 153 117 162 168 120 150 144 128 163 157 141 153 147 131 140 138 115 166 153 137 131 129 78 165 167 127 166 160 138 165 159 133 126 132 106 151 143 120 148 137 115 141 133 114 132 129 78 169 164 142 162 154 131 140 137 118 162 145 102 157 147 88 170 165 136 161 157 132 165 164 134 157 153 126 153 149 124 146 143 124 147 146 125 121 116 96 146 141 122 172 165 139 125 137 87 147 143 132 156 150 134 148 142 126 161 156 137 115 116 50 139 139 111 148 142 128 133 127 113 154 146 133 149 141 128 157 152 133 114 115 73 152 147 128 147 141 125 113 123 73 153 147 133 155 149 133 144 138 122 154 142 130 
152 165 93 138 134 125 148 143 124 153 147 133 156 152 125 163 149 138 150 145 123 163 157 131 151 172 95 159 154 135 145 135 125 157 151 135 148 143 124 136 138 127 118 127 70 160 153 135 155 151 126 162 154 135 146 141 119 158 153 133 129 135 89 148 131 115 162 158 133 164 158 132 142 143 109 123 118 99 146 139 121 151 142 127 144 141 90 145 140 118 145 140 118 151 147 122 150 142 121 146 147 116 131 129 104 166 162 137 126 117 100 144 140 115 132 128 99 147 144 111 147 163 100 123 122 101 108 106 85 160 152 131 139 147 100 121 127 93 142 137 118 138 128 116 132 123 108 153 152 121 141 145 94 156 150 138 155 149 133 145 137 124 153 147 133 164 154 142 152 165 95 138 131 121 151 145 133 153 156 129 137 131 117 137 131 115 160 154 138 162 158 133 
159 167 92 144 138 126 79 82 39 138 135 118 134 134 106 160 151 142 147 141 127 137 132 103 146 143 110 155 150 130 142 136 120 155 153 128 151 144 134 136 132 123 113 113 75 142 135 117 132 127 107 125 116 99 142 133 118 151 145 131 134 133 102 140 134 110 150 144 130 140 132 113 136 136 108 122 116 100 142 134 123 117 119 82 127 127 77 146 141 122 153 141 125 154 150 125 150 146 117 138 139 108 143 143 119 137 139 102 141 135 113 159 150 133 158 153 133 99 98 70 132 129 78 152 146 124 137 130 111 153 148 126 144 139 120 97 113 42 146 139 129 144 138 122 159 152 134 121 123 99 88 87 41 77 100 48 121 122 91 142 144 122 139 133 119 132 127 107 128 130 83 160 150 138 116 121 81 115 115 89 137 130 122 147 139 126 161 156 137 173 166 148 
138 149 81 121 128 74 132 148 77 125 124 96 175 179 105 152 147 128 146 142 113 136 134 109 120 116 87 152 146 130 143 140 123 156 147 130 133 127 111 148 140 127 121 131 60 150 143 125 135 130 108 133 128 109 161 156 137 131 123 104 179 182 115 162 158 120 147 142 87 157 155 96 132 131 103 127 120 110 154 147 121 124 118 102 139 135 123 151 138 104 125 128 97 127 128 97 128 124 77 149 145 98 127 126 80 147 145 120 176 175 111 140 137 106 163 161 136 156 146 119 138 131 89 134 145 105 145 139 125 137 129 116 133 131 116 124 117 99 98 105 61 129 124 118 129 140 74 155 158 127 135 142 91 121 115 99 148 140 127 141 135 121 109 124 59 143 143 119 112 111 81 153 147 133 148 142 126 106 99 89 192 197 157 143 146 115 133 139 105 92 101 46 
157 150 134 156 150 138 167 162 143 141 139 118 98 102 67 162 156 142 164 157 141 143 137 121 140 135 116 130 134 97 152 153 122 114 121 90 104 107 80 141 151 82 131 125 109 138 133 114 136 143 101 145 144 98 118 128 93 100 106 62 161 155 139 141 137 110 128 125 108 129 124 104 144 140 115 146 137 120 154 148 132 148 143 121 172 166 150 129 127 106 165 168 101 160 151 134 135 129 115 150 145 125 153 149 124 149 143 121 145 145 117 135 133 95 135 123 107 162 157 135 141 137 112 145 150 118 138 156 82 127 124 91 156 142 129 136 128 115 147 155 108 109 123 87 129 123 107 147 152 112 157 157 129 144 138 124 137 134 119 159 147 135 115 124 59 146 139 123 140 133 117 150 140 128 135 129 115 148 143 124 148 145 130 78 88 25 147 141 125 152 146 130 
143 140 125 153 148 129 146 141 122 149 146 127 111 112 80 160 154 140 165 159 145 151 145 133 144 138 116 156 150 136 138 142 92 158 152 138 145 156 96 150 145 123 156 150 134 130 129 101 155 150 131 167 147 97 141 138 121 137 129 108 140 137 104 167 162 143 148 147 127 168 164 139 153 147 133 156 156 130 147 141 125 155 150 131 161 154 136 131 126 106 151 153 103 175 170 151 163 157 143 153 148 128 147 145 124 106 101 82 135 129 105 151 146 124 161 158 139 166 161 141 136 130 114 135 134 103 136 147 79 143 137 123 131 121 109 106 100 88 152 146 134 165 160 131 152 145 126 151 147 110 127 125 104 148 142 126 147 141 127 150 144 130 129 132 103 156 151 129 145 137 124 155 152 137 145 139 125 149 143 129 145 139 125 136 149 106 156 154 131 116 110 98 
124 118 106 152 146 130 159 153 139 166 160 148 103 121 61 143 136 126 153 148 129 131 125 111 105 91 82 156 151 131 73 89 40 134 128 112 138 137 116 159 156 141 154 148 134 144 138 126 158 148 139 142 157 88 142 138 111 131 129 114 142 137 133 159 154 135 170 164 148 150 147 130 127 122 100 171 167 140 151 149 128 161 153 134 155 150 130 156 151 131 149 147 98 151 146 127 132 126 112 155 149 133 134 128 114 122 115 105 130 133 102 133 137 100 155 146 129 159 149 137 154 149 127 152 148 123 99 99 75 154 156 135 146 141 122 146 143 126 127 115 101 120 121 90 116 122 88 152 147 128 84 88 63 139 133 117 136 128 117 151 143 130 166 169 124 125 130 90 145 146 114 152 149 108 131 125 113 88 89 71 142 136 124 160 156 131 145 145 117 158 152 140 
140 137 118 168 161 153 175 171 144 136 140 115 150 161 93 106 104 55 152 151 121 124 125 111 93 92 48 169 153 102 164 151 106 112 115 72 138 141 86 126 135 70 115 125 54 163 166 123 148 142 128 148 139 124 114 114 78 118 118 68 145 139 113 135 132 101 141 135 109 153 156 129 162 155 136 144 141 122 169 162 143 142 135 116 153 141 129 133 147 121 153 144 89 134 133 85 140 146 110 167 164 147 156 159 140 145 149 112 109 109 57 131 130 63 112 118 74 138 149 106 129 143 90 124 128 69 172 164 102 117 125 74 138 132 120 147 141 125 97 106 61 150 138 124 155 149 133 154 147 137 158 148 138 109 113 62 109 115 71 140 136 111 148 142 128 144 141 124 155 150 131 130 137 95 138 147 94 146 138 125 127 140 86 153 135 89 127 134 80 117 115 76 
154 146 110 144 138 124 135 129 113 171 165 151 162 156 142 139 133 121 111 109 97 154 146 144 116 116 80 163 153 141 134 122 106 150 144 128 162 160 139 162 156 140 154 147 139 109 125 54 140 137 92 168 164 137 159 154 134 150 149 129 148 146 108 147 143 118 150 145 125 157 156 135 137 132 112 174 174 150 130 136 88 132 140 80 166 161 142 148 143 124 154 148 136 141 133 114 153 149 112 132 134 71 150 159 114 154 149 130 145 140 121 143 138 118 147 142 120 105 122 44 125 133 86 107 127 28 150 145 125 133 130 113 142 141 120 131 139 92 147 137 125 139 132 122 156 149 131 150 142 129 151 145 129 139 149 97 153 147 135 145 142 125 156 148 135 142 136 120 131 125 113 140 137 122 129 131 82 141 152 112 139 135 110 139 133 121 131 126 104 166 159 151 
144 138 124 152 146 132 141 136 117 177 171 157 167 158 143 150 145 125 155 153 132 139 133 119 153 148 128 147 142 122 139 133 111 146 143 126 163 157 143 132 127 108 158 153 131 215 195 144 145 139 125 136 133 118 146 141 121 166 162 137 102 100 62 148 142 126 154 149 129 145 139 125 159 153 129 155 150 128 143 139 127 143 143 109 140 133 123 154 149 127 146 144 119 158 148 136 163 184 109 131 129 114 142 136 120 162 153 136 156 151 131 163 159 130 163 156 146 140 138 89 151 169 95 148 143 124 152 146 130 148 141 122 156 153 136 136 136 102 143 138 119 115 110 88 168 162 148 164 158 144 150 141 126 143 144 110 164 161 144 149 146 131 161 153 142 145 142 127 150 136 110 163 155 136 135 141 103 153 142 120 149 142 132 162 159 140 145 140 121 145 142 127 
149 142 90 147 149 110 100 94 78 157 152 133 180 171 154 155 146 131 165 164 143 124 118 102 145 139 125 138 132 120 134 132 117 160 156 129 173 162 158 159 154 132 165 155 143 118 130 90 143 138 116 137 128 113 147 143 116 173 165 144 103 111 64 238 237 209 241 237 212 216 209 190 168 182 107 118 125 74 90 95 55 162 163 129 118 116 75 151 145 129 140 134 120 122 116 102 132 128 99 132 133 101 149 145 118 160 153 124 154 148 136 144 139 117 148 143 124 110 106 68 156 164 91 154 153 133 143 138 119 153 148 128 136 130 114 145 146 114 155 146 131 154 148 134 139 133 119 135 132 115 118 119 87 102 114 64 153 150 119 95 101 55 132 134 97 105 111 77 145 160 77 117 121 70 93 95 56 115 123 66 153 143 131 162 154 141 151 143 132 147 142 123 
155 145 92 155 140 99 152 151 94 120 122 72 164 169 111 145 145 117 146 149 106 140 144 111 148 157 92 132 142 79 122 137 72 118 121 74 125 123 84 122 118 89 111 121 48 114 123 68 158 134 100 136 136 108 148 143 114 141 133 120 158 155 120 158 149 134 151 143 120 156 150 134 142 152 91 149 144 124 148 144 119 141 136 117 160 155 133 107 103 91 108 111 82 96 101 61 154 134 99 148 136 98 126 141 74 142 142 92 141 146 88 136 141 101 158 156 133 169 168 137 143 145 106 135 131 102 133 154 77 128 119 80 143 143 89 134 134 100 114 125 56 105 118 72 135 129 93 140 142 118 121 127 79 130 125 106 166 161 142 163 152 146 153 147 131 154 148 132 116 113 82 140 130 118 158 156 135 149 143 145 138 145 93 123 124 90 102 109 57 129 122 70 
164 158 142 160 155 136 143 143 115 109 116 62 136 129 87 152 147 128 145 140 120 147 140 130 152 143 128 138 131 121 147 153 117 98 112 50 148 142 126 156 150 138 156 150 138 153 147 133 143 138 106 149 135 108 164 161 130 102 113 57 120 122 83 119 116 75 160 157 142 132 129 110 131 138 84 138 133 111 142 136 124 162 156 144 124 102 79 141 133 114 153 149 120 154 149 130 146 138 117 144 139 119 162 159 124 136 135 117 123 122 91 108 110 63 155 149 133 152 146 130 142 136 122 153 148 129 140 145 105 155 148 132 158 150 131 154 148 132 157 150 132 123 127 94 129 121 100 157 149 136 139 141 102 155 148 142 150 138 124 157 152 133 157 152 130 149 139 138 108 115 64 138 132 118 159 153 137 130 123 107 153 153 129 157 145 133 144 140 115 143 140 125 
160 152 141 159 153 139 110 112 98 131 128 113 178 184 112 156 150 136 167 160 150 167 157 145 137 131 119 151 148 129 161 155 139 130 132 85 152 146 134 147 144 127 156 151 131 153 147 131 149 140 123 155 175 112 149 145 120 126 137 79 154 148 134 159 151 138 155 149 133 158 152 136 135 138 107 142 137 117 148 143 121 145 139 125 121 129 82 172 166 152 152 149 134 170 164 148 156 150 138 157 152 132 153 149 124 175 170 148 156 148 127 101 96 76 140 134 120 154 146 133 145 139 123 167 159 146 114 127 71 142 136 122 165 156 141 164 156 143 120 119 101 139 133 117 152 149 134 161 153 140 155 147 101 153 146 130 141 133 114 147 140 124 148 141 125 149 148 120 103 104 72 150 142 131 139 131 118 144 133 131 149 150 118 129 124 105 148 140 127 158 149 134 
162 156 142 165 160 141 150 140 128 153 147 133 122 130 83 159 152 133 135 130 111 135 125 113 153 150 133 131 142 99 95 94 66 101 109 70 163 155 136 146 140 126 145 139 123 148 143 123 140 138 117 127 145 59 149 143 121 113 119 75 154 148 132 153 141 129 153 164 121 102 120 60 123 131 80 132 139 105 134 133 112 141 131 122 117 128 70 159 154 135 134 128 112 125 119 103 153 148 128 161 154 135 141 139 118 130 125 105 149 141 130 134 133 113 151 145 131 167 159 146 149 141 128 153 144 129 88 91 44 102 105 78 96 103 62 94 90 63 125 128 85 131 145 70 137 135 114 127 125 100 106 115 58 108 106 85 157 150 131 131 133 122 124 123 102 125 136 68 102 106 83 135 137 97 125 127 105 94 96 72 136 134 109 119 113 99 143 137 123 161 149 135 
152 145 126 132 126 112 166 160 146 135 140 108 152 149 94 126 133 65 139 145 73 102 105 58 141 152 86 134 126 113 157 152 132 152 147 128 171 172 141 142 139 108 168 157 139 159 151 128 111 117 73 153 155 115 145 145 119 150 149 119 120 126 82 111 124 54 149 143 129 172 166 154 161 156 137 141 136 116 130 124 110 144 140 111 133 150 80 127 129 108 154 146 133 160 154 138 153 148 129 140 137 120 151 144 128 155 146 129 98 104 60 113 125 59 128 141 62 133 137 86 131 138 104 152 151 121 162 153 138 155 151 126 157 147 135 130 124 100 145 143 118 145 139 125 139 152 96 160 154 142 141 138 123 149 144 125 151 161 88 137 131 117 155 150 128 160 152 139 154 145 130 156 151 129 157 150 134 139 140 109 155 165 96 156 149 131 159 150 135 166 160 146 
128 121 102 138 145 94 137 136 90 154 155 124 149 146 129 143 133 121 149 141 128 130 134 109 122 126 91 152 146 130 156 150 138 153 148 126 130 127 110 144 145 113 168 170 148 150 150 116 145 140 121 140 133 123 149 143 129 135 138 107 140 135 113 114 112 91 135 129 115 140 134 120 158 146 132 136 130 114 139 137 116 151 154 127 137 139 99 146 148 111 183 181 156 90 105 48 113 116 73 143 139 110 157 152 123 107 122 65 134 128 112 157 147 135 144 134 122 156 150 136 115 116 84 156 148 135 184 175 160 147 142 123 144 139 120 150 141 126 157 151 135 146 143 128 159 158 130 153 147 133 150 143 127 150 148 135 129 123 71 156 148 127 156 151 132 154 147 131 168 161 151 142 136 120 160 152 131 175 165 112 153 153 119 136 132 103 131 129 90 123 130 63 
143 138 118 126 131 75 106 101 82 134 128 116 135 129 115 158 152 138 146 140 124 169 162 143 140 147 113 146 140 128 161 155 143 159 153 137 147 141 129 149 155 111 141 135 123 153 150 131 148 142 126 134 129 110 155 150 130 147 147 137 134 134 110 154 160 88 152 148 123 152 146 130 145 139 125 130 125 103 144 134 122 151 150 102 134 125 110 154 148 134 155 149 133 163 157 141 138 154 79 157 148 133 155 156 125 147 141 129 167 155 139 150 142 129 157 149 138 152 146 130 141 142 108 146 143 126 161 155 139 146 143 126 138 132 118 152 147 128 165 161 136 106 113 59 149 162 83 140 135 115 151 146 124 165 157 144 153 158 128 143 136 118 143 137 123 160 154 128 157 151 139 153 145 126 125 132 98 143 147 114 151 145 129 143 137 121 175 159 144 159 154 135 
136 130 116 134 138 87 150 144 128 167 159 146 146 141 122 147 140 122 173 160 152 142 131 127 131 131 105 148 140 121 144 138 124 161 154 138 146 139 129 133 142 95 155 149 135 151 146 126 172 169 134 147 144 113 134 129 110 170 166 154 166 161 142 104 114 51 154 146 127 134 129 107 132 126 110 165 161 136 156 144 128 155 160 119 162 152 142 163 153 141 156 148 135 160 154 140 136 147 81 143 141 120 131 126 107 145 139 123 136 132 120 140 132 119 132 126 112 129 123 107 153 149 124 147 141 127 135 129 115 155 150 131 140 137 118 144 138 124 109 116 65 153 146 127 149 143 107 140 140 116 133 130 115 154 145 130 138 133 111 141 135 119 158 154 129 147 140 112 150 141 124 153 148 119 104 97 55 144 137 111 124 118 104 137 131 117 142 132 120 151 143 130 
144 138 122 135 129 115 158 152 140 145 141 129 160 155 135 151 144 126 132 129 120 140 136 124 122 138 67 141 138 119 153 141 125 152 147 128 137 131 107 158 156 133 140 138 117 148 138 126 149 142 126 163 157 141 154 147 137 151 145 131 153 162 119 142 148 110 138 145 93 185 167 129 156 138 90 118 122 95 125 126 82 102 111 68 129 138 81 120 122 100 117 126 73 139 136 117 118 128 68 139 131 120 159 154 135 164 162 139 151 150 130 144 143 125 153 147 131 129 127 115 140 133 115 151 149 126 158 146 134 164 159 140 144 143 125 144 137 129 150 156 120 130 124 112 96 97 63 110 105 86 126 136 102 105 101 90 148 154 116 141 150 105 133 136 69 156 150 102 136 114 73 136 135 117 197 177 106 109 113 62 117 125 74 118 117 97 129 134 104 145 143 120 
157 152 130 163 161 113 151 156 100 99 115 50 182 183 151 171 171 135 166 163 132 160 154 138 162 157 137 123 133 83 158 167 114 106 120 67 133 138 106 139 141 101 146 162 73 88 99 59 94 94 58 87 82 60 87 95 72 90 105 46 138 132 118 140 134 118 166 158 139 154 150 123 143 140 109 150 149 131 161 174 94 146 144 123 152 144 123 134 128 112 153 146 130 139 136 117 119 122 77 153 145 124 163 174 98 94 109 40 122 129 88 107 106 60 169 166 131 159 151 128 157 150 134 162 162 126 143 160 82 186 187 155 183 179 152 191 193 146 119 120 60 91 91 65 136 131 111 143 137 113 157 152 133 143 140 121 121 123 101 130 134 97 114 108 92 144 140 113 157 150 121 129 127 89 137 145 88 144 137 111 146 143 124 156 150 128 154 144 132 120 129 102 
200 183 127 158 153 131 156 150 134 152 150 135 160 154 140 161 153 140 152 146 124 136 134 119 148 138 129 156 165 98 136 130 116 158 152 140 167 161 145 129 128 100 121 134 80 147 144 127 136 136 108 147 141 127 161 157 132 145 145 117 157 151 135 115 108 100 158 153 131 159 155 126 149 145 118 129 125 96 165 165 113 157 152 132 147 138 123 137 134 103 158 154 127 152 143 128 144 149 117 130 140 88 152 143 126 145 139 123 156 168 96 165 159 143 163 155 142 157 152 133 151 138 122 121 112 113 140 150 100 137 124 108 148 145 126 143 134 119 147 148 117 152 143 128 143 137 125 159 152 134 162 152 140 143 137 123 166 163 130 88 101 55 153 148 126 149 145 120 133 132 104 155 158 127 149 146 115 152 148 123 139 134 105 149 148 118 147 146 118 154 141 125 
122 122 68 149 144 125 148 143 124 128 127 107 135 130 111 159 154 135 143 140 125 136 132 107 163 158 138 144 143 97 139 133 119 150 148 125 144 139 117 137 135 110 156 150 134 156 150 136 146 140 124 152 148 123 145 142 109 149 144 124 163 159 130 166 161 141 149 144 125 145 140 118 138 133 111 143 142 98 138 137 80 145 140 121 143 138 119 151 148 131 153 148 129 139 129 117 97 106 61 135 151 76 127 122 100 139 133 119 107 120 77 156 149 130 152 147 128 143 134 117 166 161 142 142 137 117 91 99 48 85 99 63 95 96 65 136 136 108 143 146 101 121 132 66 166 161 142 157 150 131 128 125 92 147 140 122 169 165 140 145 147 107 148 141 122 150 146 119 154 150 125 131 127 90 122 131 88 152 149 132 151 147 118 155 144 126 159 154 135 121 125 90 
158 154 129 140 133 117 151 145 131 123 121 96 134 129 109 152 146 130 150 144 130 155 148 138 158 152 138 155 149 123 140 131 114 130 127 108 160 154 140 138 146 89 153 148 128 154 147 131 150 149 121 116 114 99 118 124 88 109 113 86 134 132 81 152 145 137 134 130 103 141 143 121 143 138 118 167 160 144 177 160 114 153 148 129 147 142 123 143 139 112 140 134 120 148 147 117 164 175 106 159 152 142 156 150 134 163 155 144 124 136 72 145 139 123 157 149 136 132 126 110 154 146 133 148 143 124 129 133 96 153 147 131 139 133 119 150 143 124 107 102 83 154 145 128 149 159 98 153 144 129 163 157 141 147 141 127 136 129 113 109 126 58 139 134 112 137 130 120 151 145 129 121 131 94 162 166 139 153 148 126 153 152 124 148 143 113 154 149 129 165 155 104 
121 113 76 130 124 72 143 143 93 125 123 72 119 113 89 126 123 108 113 119 93 97 104 52 108 107 103 129 131 91 142 141 95 115 124 79 129 136 94 134 125 84 136 145 102 103 109 61 122 125 70 166 160 144 148 142 128 148 145 126 146 144 121 126 121 92 39 43 29 35 42 26 137 123 96 134 135 75 155 156 125 132 145 92 112 115 60 128 123 94 107 106 78 96 103 70 124 122 84 87 98 40 109 119 66 121 122 82 146 143 88 125 128 101 127 129 105 74 88 39 111 110 80 76 86 36 139 147 100 130 137 95 102 114 68 152 152 128 151 151 123 126 131 99 141 135 83 118 130 64 142 139 120 169 159 134 149 145 120 150 146 109 123 125 101 110 112 63 176 161 120 167 164 131 195 182 129 132 142 92 131 122 79 158 138 101 154 148 124 155 154 97 
146 142 115 157 153 126 150 151 117 155 142 125 184 164 114 159 169 116 141 140 119 150 143 124 145 140 108 143 137 121 151 145 129 170 164 150 153 144 129 149 143 127 159 163 113 139 137 116 130 146 73 166 161 141 179 174 154 155 146 129 147 138 121 155 152 133 142 140 99 138 135 118 163 160 129 159 152 136 138 135 118 151 160 115 140 135 115 144 139 120 158 162 127 162 152 140 131 124 108 141 134 124 108 108 84 164 156 137 137 138 107 174 187 105 154 150 121 124 119 97 146 138 115 145 151 91 153 147 133 147 141 125 157 151 139 121 115 93 142 137 115 143 154 111 165 185 90 131 126 104 138 132 118 152 147 128 140 134 118 145 140 120 157 152 130 138 135 102 164 164 130 142 136 124 126 134 93 162 156 140 148 140 121 180 159 116 149 149 123 144 143 115 
145 142 111 153 150 119 132 128 99 138 134 105 166 153 108 140 132 113 113 104 89 151 145 133 140 150 81 158 152 138 159 153 137 168 162 150 163 158 136 146 145 127 168 162 148 95 101 75 145 151 91 149 144 125 143 141 118 146 141 122 144 138 122 100 95 76 116 119 74 153 145 134 149 143 127 154 149 130 140 139 111 124 124 72 166 160 144 158 153 134 119 121 81 146 140 126 150 147 130 143 139 112 139 133 119 162 157 135 154 150 139 131 136 70 158 152 138 151 137 124 152 146 124 152 146 130 173 164 149 144 138 122 150 144 130 173 168 149 150 138 124 168 158 148 155 149 87 150 146 117 153 147 133 140 134 122 157 151 137 148 142 126 150 149 129 82 90 66 150 145 126 163 157 131 137 131 107 136 138 101 142 135 109 120 117 72 165 158 132 141 140 119 
142 137 115 137 133 106 154 151 120 144 138 112 176 163 108 143 135 124 131 123 110 144 140 115 136 131 112 164 154 142 145 139 123 161 155 139 156 152 140 166 160 144 167 162 143 157 149 128 121 136 81 164 158 142 149 144 125 147 145 124 159 147 133 120 127 86 150 158 83 131 138 96 118 123 82 139 144 112 143 141 103 137 134 117 123 124 106 131 135 108 120 134 47 143 136 130 163 158 138 150 146 121 138 135 116 159 157 134 160 171 115 132 143 87 161 156 137 140 137 118 158 150 129 161 156 137 156 153 136 150 142 129 159 154 135 155 149 135 158 156 135 147 141 125 153 144 127 125 133 74 161 160 142 146 140 114 144 140 115 146 150 127 134 146 70 106 114 73 143 140 105 145 142 123 120 126 88 104 108 83 137 148 106 168 155 120 140 136 107 157 150 124 
132 128 99 132 132 98 152 149 116 151 148 115 154 153 122 126 120 104 150 147 130 141 135 135 121 131 71 147 147 119 168 158 148 153 150 133 157 152 146 159 155 143 131 139 98 112 123 89 129 135 87 141 140 120 153 153 129 142 141 121 149 138 136 151 154 127 143 145 106 123 125 103 148 141 131 115 114 83 132 139 97 94 97 70 137 132 112 164 158 144 146 153 101 103 103 91 144 139 120 158 154 125 158 157 127 161 156 137 129 122 104 144 141 124 140 134 120 134 129 110 115 121 87 138 147 100 149 144 122 144 139 120 145 137 124 155 153 128 154 149 130 162 156 140 140 128 114 134 140 106 133 146 103 139 133 119 146 138 125 138 136 124 158 158 94 139 133 117 132 137 97 148 158 105 155 165 104 155 149 135 134 129 107 153 147 115 173 171 122 140 137 106 
117 119 82 178 169 112 172 154 108 155 138 92 140 141 75 99 117 57 157 154 109 160 156 127 141 138 123 147 147 111 137 144 110 122 131 76 167 176 95 102 111 58 141 146 105 135 128 120 163 159 150 151 148 131 142 145 114 126 135 78 154 149 117 143 140 121 158 152 136 149 155 111 147 140 122 160 161 119 147 148 116 140 137 118 159 153 139 151 140 134 161 156 137 164 164 136 138 143 89 121 120 74 196 165 118 119 126 75 151 161 88 94 108 55 132 135 88 176 179 122 166 160 144 146 140 124 161 147 136 92 111 55 128 127 107 148 141 123 138 132 110 146 140 124 152 149 134 154 155 111 163 157 141 140 132 119 139 140 100 131 130 100 149 141 92 131 125 109 118 114 103 160 169 102 112 106 94 135 129 115 165 159 143 155 151 126 166 162 137 174 153 106 
137 134 103 118 123 65 151 144 125 148 138 111 147 142 120 142 131 125 153 150 99 141 135 119 156 150 134 160 158 145 150 139 133 135 126 119 153 136 92 158 153 134 157 149 136 153 147 131 150 147 132 147 141 129 141 135 121 141 141 117 150 144 96 147 146 126 167 164 145 156 151 113 149 140 133 156 152 127 100 103 76 146 140 124 146 140 124 155 149 135 175 170 151 158 153 134 125 127 78 141 132 115 143 138 119 134 137 106 160 149 131 145 140 121 153 148 129 118 134 69 145 142 125 161 155 143 141 135 121 154 148 134 136 139 110 126 129 76 146 147 115 157 159 122 127 130 101 137 156 64 132 127 108 145 140 120 148 140 121 136 133 116 172 179 109 154 148 124 160 151 136 136 146 73 158 150 131 154 150 138 154 148 132 156 149 139 138 131 112 147 148 106 
157 157 123 132 128 103 159 148 130 136 131 111 169 165 140 132 131 103 131 130 86 147 143 114 148 142 130 135 129 115 154 147 131 152 147 128 124 133 76 143 137 123 167 158 141 154 148 134 149 143 129 145 139 123 158 150 137 151 139 123 136 152 79 109 124 43 129 139 86 152 159 118 177 179 140 142 139 106 162 164 117 158 154 127 165 155 143 162 156 142 133 134 92 152 153 113 145 153 93 128 131 104 136 131 109 163 158 138 143 139 114 155 150 128 146 143 112 154 138 102 153 145 126 144 138 122 158 153 133 157 151 137 147 141 127 156 150 136 130 139 72 140 134 120 159 155 118 120 136 63 128 127 99 149 137 137 120 128 91 111 120 63 146 158 110 155 156 124 151 152 112 141 149 92 148 150 110 148 143 124 133 129 117 148 131 113 118 117 96 127 132 112 
161 156 137 139 132 88 131 131 97 136 130 108 144 140 113 121 119 98 180 157 113 134 127 111 143 139 114 137 131 119 162 157 138 148 138 126 127 133 97 141 140 119 163 153 141 140 134 120 144 138 124 133 127 115 147 143 116 146 146 118 111 119 62 131 131 103 159 154 132 151 145 129 146 140 126 147 141 125 157 152 133 125 135 82 132 134 95 123 126 95 151 158 114 158 152 136 153 150 131 141 135 121 141 143 96 137 137 111 156 148 125 141 128 109 134 127 98 112 126 65 149 146 129 153 147 131 132 126 110 141 135 123 154 146 135 150 144 128 142 150 101 93 108 49 111 119 72 104 110 40 121 119 81 131 134 103 149 147 124 147 144 103 144 138 122 156 150 136 141 135 123 164 156 137 147 150 105 124 131 87 110 120 83 116 118 81 169 164 142 119 116 97 
145 139 117 137 135 114 124 125 91 163 161 122 144 139 119 159 154 132 167 161 137 200 191 162 133 143 80 154 156 134 147 148 132 151 145 129 137 146 93 152 160 111 159 152 133 148 145 114 158 151 125 146 149 122 144 144 116 156 160 110 147 143 118 149 150 119 166 162 135 157 151 135 144 138 124 138 132 120 148 142 130 144 140 129 136 147 91 131 125 111 166 154 142 169 163 149 146 141 121 140 136 124 137 132 113 161 156 116 146 141 119 162 157 138 142 137 118 128 129 97 141 158 87 101 103 64 148 145 140 162 155 129 155 147 126 145 150 120 130 138 78 135 129 117 126 120 106 144 139 117 150 146 117 157 151 135 156 157 141 156 165 102 153 145 132 160 154 140 135 129 117 146 144 119 161 156 137 124 124 100 143 144 104 148 143 121 162 156 140 153 148 126 
146 141 121 151 146 126 156 149 131 154 147 95 142 138 109 152 147 128 145 140 118 142 138 113 150 145 126 134 136 112 142 140 119 137 134 99 121 128 84 84 94 33 123 130 86 120 114 102 148 142 130 142 140 117 107 110 65 159 153 139 155 149 133 150 142 131 155 150 130 119 114 94 156 150 134 161 155 141 144 134 122 161 149 137 118 126 77 143 137 121 151 143 130 163 160 141 147 144 129 152 146 134 150 144 130 125 128 97 120 123 94 159 152 136 152 147 128 123 117 93 144 139 120 154 148 132 99 107 60 140 128 86 103 113 61 113 126 56 135 142 91 149 142 132 140 134 118 151 145 129 127 121 107 145 142 133 169 156 150 106 120 58 165 157 146 134 128 114 145 139 125 144 141 126 141 137 126 116 120 69 154 146 127 150 145 126 148 143 124 159 154 134 
160 154 138 138 133 114 139 135 106 116 124 85 163 158 136 146 141 121 166 161 139 153 148 128 156 152 140 137 146 115 144 140 128 154 148 132 136 130 118 149 147 126 146 141 135 132 131 103 142 139 124 150 145 123 140 154 79 133 127 113 151 145 131 147 143 131 129 133 98 143 138 118 138 132 118 153 147 133 135 139 114 121 118 83 160 176 101 141 134 118 137 130 122 124 118 104 156 146 136 157 147 137 158 152 138 154 152 129 143 152 85 148 143 123 147 141 125 139 134 115 141 133 110 148 138 126 115 126 58 171 162 147 136 130 116 149 143 129 168 159 144 113 119 73 119 126 75 130 131 97 136 152 77 106 109 66 152 168 103 121 120 89 112 125 55 123 122 78 110 121 61 134 142 105 146 139 87 125 122 79 159 164 110 168 161 143 136 137 105 119 113 99 
159 152 100 158 150 111 148 143 88 128 123 67 114 116 92 155 147 136 139 132 114 149 146 129 158 156 135 122 127 86 147 137 127 153 148 128 155 149 137 163 157 143 154 157 112 122 125 96 149 144 124 179 170 153 138 154 91 92 102 52 117 118 87 151 144 126 140 154 67 85 96 64 108 117 72 142 149 95 142 141 110 152 150 127 161 151 139 131 132 100 127 138 78 135 131 122 147 142 136 146 138 127 165 167 154 84 95 35 134 135 103 137 139 102 102 110 61 112 101 79 123 123 87 129 122 106 121 126 85 150 145 126 154 144 132 145 136 121 132 125 115 88 98 64 148 142 128 122 129 85 147 149 110 163 156 138 145 140 111 158 148 136 106 100 88 153 141 127 149 148 118 156 162 102 162 156 140 148 144 119 117 127 90 117 123 61 159 158 93 143 136 94 
138 133 114 163 158 139 149 146 129 91 86 67 155 143 129 151 144 89 151 153 116 171 179 130 159 154 134 171 174 107 135 132 99 157 147 135 163 154 145 113 111 86 140 147 93 176 170 118 127 134 83 164 176 114 174 175 157 145 149 112 160 161 93 129 142 88 133 146 92 154 160 116 149 143 127 147 141 129 144 137 127 147 142 123 152 146 132 160 154 140 141 144 89 141 143 93 163 167 132 150 152 112 153 146 136 153 148 129 157 155 96 153 152 134 166 159 141 150 144 132 140 138 115 168 168 106 141 148 96 157 152 133 146 133 127 142 134 123 136 130 116 149 142 113 169 164 145 148 145 110 155 150 128 151 145 131 155 149 135 140 126 117 141 131 121 160 148 134 147 139 137 156 162 92 152 146 130 158 153 134 174 169 150 154 149 130 160 155 133 157 164 122 
142 136 122 156 150 136 128 125 106 131 125 109 164 159 137 135 137 87 162 156 142 134 151 73 153 147 133 160 155 136 135 126 121 110 114 79 112 119 65 133 127 113 150 144 128 158 152 140 153 146 138 155 157 73 82 86 51 132 126 114 140 134 122 161 155 143 163 180 125 144 156 92 152 147 128 148 140 117 145 140 120 123 117 103 142 136 124 166 157 140 170 180 111 167 161 149 123 115 104 147 141 125 158 152 140 154 148 132 142 142 118 114 112 97 153 147 135 140 134 120 84 80 68 152 146 130 93 102 55 129 125 100 126 135 92 139 154 113 170 178 131 153 164 86 134 131 116 152 162 93 133 130 97 153 147 133 151 145 131 146 140 128 153 143 133 153 144 129 156 148 129 124 127 84 146 150 115 175 163 151 168 163 143 138 132 116 165 159 137 137 147 76 
151 146 126 156 150 134 158 153 133 157 152 132 143 138 118 115 121 57 135 143 102 124 130 70 149 141 122 106 100 84 152 144 131 150 144 132 132 138 104 137 132 113 146 141 119 157 152 133 168 175 131 116 129 60 161 155 141 150 144 132 153 147 135 141 134 124 138 153 84 145 152 98 162 150 138 153 147 133 154 148 132 145 139 127 158 149 132 122 115 107 161 148 106 151 144 125 145 138 122 156 150 138 173 167 153 149 139 127 142 132 123 135 134 113 145 139 123 153 147 133 147 143 118 150 150 114 151 143 104 156 149 139 144 142 129 142 135 117 148 142 130 162 163 121 154 163 108 123 132 65 133 135 96 157 151 135 142 136 124 149 143 129 146 146 138 142 141 97 147 143 118 115 136 71 174 178 143 111 120 75 129 136 85 116 123 90 91 94 51 163 158 139 
156 149 131 142 137 118 141 136 117 136 130 114 140 136 107 145 142 109 153 146 127 120 133 87 164 154 144 122 109 100 155 152 107 134 127 121 158 156 117 140 134 110 150 137 128 148 142 128 128 118 108 99 108 55 144 134 122 152 140 124 144 133 129 157 147 137 156 153 144 122 125 80 145 139 125 132 123 108 88 83 63 148 142 128 138 131 121 140 128 114 135 137 97 153 156 127 143 142 112 144 140 128 150 144 132 151 145 131 130 132 92 129 128 108 136 131 109 162 152 140 164 161 144 120 107 98 170 172 109 144 135 118 157 147 138 157 151 135 154 142 146 96 106 56 148 143 123 155 149 135 130 144 95 145 154 99 129 137 77 149 150 106 145 148 95 101 112 56 136 128 91 120 124 65 136 128 109 140 134 118 172 164 153 160 156 118 147 146 125 151 145 133 
149 144 125 142 136 124 152 147 127 156 150 136 128 133 103 161 160 132 142 141 84 135 136 102 162 176 101 125 127 103 118 112 86 145 142 127 139 143 118 138 139 105 160 156 131 144 144 108 168 181 112 120 124 89 160 167 133 159 160 120 136 141 111 136 148 98 131 140 87 117 119 79 164 172 133 150 149 131 152 151 131 165 163 142 114 117 88 145 155 82 159 162 115 133 141 102 142 155 86 105 128 56 103 115 93 137 143 97 113 115 91 171 173 133 116 116 78 152 150 102 135 151 76 143 143 115 169 164 145 172 170 149 129 126 107 155 148 140 162 174 112 146 138 117 147 137 125 146 139 129 161 154 136 161 165 114 154 149 129 138 132 110 137 128 111 144 138 124 149 143 129 147 142 123 132 135 90 159 157 136 115 125 75 150 153 108 151 152 121 133 138 84 
147 148 117 127 128 97 149 145 120 150 146 121 144 138 126 148 142 126 146 146 122 128 127 99 154 152 127 155 149 137 152 146 134 152 147 127 157 151 135 166 159 141 158 152 140 100 107 73 151 141 129 135 126 109 149 142 134 152 145 129 125 123 100 171 168 149 162 153 144 156 149 139 153 146 138 163 157 141 156 149 139 127 132 74 143 135 122 147 144 129 144 135 126 174 168 152 136 132 103 162 160 119 127 121 105 147 142 122 168 160 147 154 150 139 167 161 147 128 117 85 157 151 137 153 154 140 165 157 144 151 150 132 151 141 131 135 139 80 153 147 135 137 127 115 157 152 133 148 144 119 144 138 122 158 150 101 146 136 127 153 151 128 156 149 133 139 130 115 143 136 120 108 103 84 138 135 104 143 138 118 151 146 127 167 161 145 140 134 120 152 145 129 
151 146 124 146 140 124 154 150 125 141 136 116 156 146 134 134 128 114 143 142 111 152 150 127 149 146 127 150 143 127 157 150 132 164 160 135 162 157 135 163 157 143 120 111 94 125 140 85 148 148 120 147 141 125 166 151 130 141 134 118 133 144 88 146 140 126 154 156 132 143 140 123 153 153 129 149 150 134 152 156 97 124 126 86 157 148 141 155 145 135 153 147 131 154 144 132 139 136 105 141 136 117 148 142 128 152 142 130 159 154 135 128 122 108 125 120 98 173 170 119 105 99 87 146 134 118 161 154 138 129 119 107 138 131 102 127 129 108 154 147 129 147 140 130 120 116 89 165 159 143 150 138 124 129 128 80 144 150 106 166 160 138 125 128 85 156 152 127 146 144 123 143 135 112 139 145 107 130 128 103 149 142 126 145 139 125 161 155 139 160 155 133 
131 129 81 156 143 135 153 150 119 156 152 127 154 143 125 155 152 117 150 147 102 106 111 81 128 132 82 151 149 134 154 141 125 152 145 127 153 144 135 142 135 127 138 140 119 91 108 66 142 135 125 144 139 120 159 152 126 135 129 115 104 105 65 166 156 144 147 139 126 113 117 94 119 129 58 139 134 115 161 158 141 153 143 134 146 127 87 164 158 136 149 143 121 134 127 108 162 156 132 155 152 121 145 141 114 148 134 131 140 134 120 144 142 117 132 135 88 100 110 73 128 135 84 150 155 125 152 150 125 135 131 106 128 122 106 162 161 133 157 151 135 124 118 102 140 143 114 133 133 109 207 177 123 164 156 135 147 142 123 155 151 126 158 152 138 106 112 74 136 127 110 133 127 111 153 147 135 138 139 108 147 140 124 164 157 131 147 146 116 164 159 139 
146 141 122 158 170 104 163 163 125 156 160 101 181 190 111 152 146 132 147 141 125 151 143 130 158 152 138 148 160 112 164 165 134 151 154 99 157 151 137 151 145 131 146 153 122 146 140 124 148 139 110 125 136 70 110 111 71 176 169 150 160 166 122 139 132 106 136 131 109 145 131 120 119 131 85 153 154 114 143 137 113 136 128 115 146 155 108 101 108 64 149 153 118 160 163 134 157 155 140 163 158 138 126 129 84 149 138 93 196 196 124 119 129 76 147 141 129 163 157 145 156 150 138 151 146 127 130 139 84 144 145 111 160 169 104 115 123 82 154 156 119 185 168 125 136 136 100 158 149 134 160 160 126 145 139 127 153 149 124 146 143 128 147 141 129 163 163 129 118 128 68 129 122 104 151 145 129 148 141 125 157 175 91 125 132 91 142 140 115 158 152 140 
141 135 121 165 158 142 142 136 122 117 122 99 125 134 81 136 130 116 143 137 125 157 151 139 134 126 113 140 138 115 142 137 115 89 99 62 130 120 108 139 133 119 154 148 132 158 152 136 108 102 88 133 150 80 137 131 115 119 117 92 127 134 82 118 126 75 123 125 86 110 122 72 105 112 70 144 146 97 162 152 140 138 132 120 87 99 53 115 110 91 136 130 114 156 150 136 146 137 120 153 146 136 149 147 126 144 138 124 143 146 115 110 117 63 168 161 151 141 135 123 152 146 134 146 140 126 126 133 99 150 144 130 150 144 132 145 140 120 156 150 138 147 156 113 148 145 126 150 144 118 128 133 93 148 142 126 153 147 133 163 157 141 144 138 124 141 135 119 116 124 67 159 153 139 145 140 121 144 139 120 126 131 91 155 150 131 161 153 140 133 127 113 
155 152 135 140 137 122 145 137 124 142 139 122 150 149 95 150 144 128 146 140 126 136 130 116 159 153 139 131 142 99 154 149 130 123 126 79 142 136 122 139 133 109 143 136 126 163 153 141 151 137 126 119 124 70 143 134 117 130 137 86 175 169 157 161 155 141 150 139 119 156 147 138 143 152 95 155 153 132 144 136 125 147 143 118 133 139 77 140 131 116 150 143 127 157 151 135 165 157 146 124 119 99 160 151 136 146 137 122 126 123 116 95 109 48 151 146 127 152 145 129 160 156 144 149 146 131 150 151 109 133 131 116 138 135 128 160 153 135 142 136 110 132 129 86 160 152 139 145 137 124 165 169 136 145 139 127 157 148 133 159 152 136 139 133 119 169 166 135 154 152 127 143 138 116 136 133 114 133 133 107 141 147 99 149 146 129 162 156 142 161 155 139 
145 139 123 154 148 134 157 151 137 150 142 123 114 122 63 139 136 119 163 156 138 159 153 137 135 138 107 107 120 41 132 144 82 149 147 86 123 121 96 153 148 129 153 145 132 158 149 134 156 143 134 140 140 78 138 143 103 110 108 85 147 140 121 112 108 81 137 142 101 91 99 62 138 141 96 107 115 58 115 118 73 171 174 131 136 131 75 164 157 141 133 124 109 142 133 118 121 115 99 157 151 137 167 154 148 143 136 126 134 128 116 136 134 95 151 143 130 116 107 100 147 145 124 132 129 96 155 159 100 121 117 82 145 140 84 152 149 104 178 175 130 114 114 80 128 127 107 101 104 61 129 138 95 117 124 70 116 118 71 140 132 93 114 122 85 101 111 58 131 130 84 102 110 61 113 127 68 168 161 107 130 133 106 148 142 128 150 144 130 144 138 124 
141 138 123 138 132 116 131 127 116 143 144 110 158 158 132 168 170 130 132 141 76 136 147 87 152 155 112 146 143 128 152 144 131 145 139 125 126 123 104 151 169 85 114 122 73 123 127 68 154 151 116 151 139 123 152 145 126 130 125 106 100 91 76 154 162 79 151 148 143 148 144 133 152 151 120 156 144 130 161 160 142 166 162 151 147 149 102 156 168 84 145 149 114 155 153 132 152 147 128 152 147 127 142 136 122 149 139 114 133 134 90 164 176 110 168 175 124 151 151 91 172 184 98 156 149 141 154 147 139 165 158 142 117 116 86 161 155 141 168 165 110 147 146 125 159 153 141 164 155 138 146 145 117 162 162 134 152 145 127 135 128 109 164 159 139 160 154 132 159 171 97 142 130 118 158 152 138 147 155 114 158 160 111 159 160 120 156 148 135 149 146 131 
163 174 96 129 134 76 107 104 59 154 150 139 140 137 122 147 137 125 128 122 106 141 139 124 173 165 142 148 142 126 144 138 124 148 143 123 149 143 127 129 127 89 147 141 127 148 143 123 149 141 128 139 134 115 158 151 135 112 122 72 136 138 89 124 118 102 131 127 102 126 124 101 142 144 95 127 130 103 107 108 68 152 144 121 142 136 122 143 135 122 145 135 123 114 117 86 155 153 94 145 150 86 115 108 62 174 172 111 162 156 140 164 158 142 154 148 136 146 136 124 102 109 55 136 130 116 141 136 117 143 134 125 146 141 119 147 142 123 152 142 132 121 115 79 166 162 135 141 137 108 144 135 118 132 130 105 124 133 78 133 149 86 146 144 103 175 167 128 180 172 136 143 141 103 122 122 94 114 115 75 150 141 126 165 159 133 143 142 111 117 123 97 
156 151 132 141 137 125 118 131 75 147 149 127 133 152 86 139 152 106 96 115 51 116 126 76 105 114 69 123 117 103 142 137 117 104 107 78 131 133 96 123 126 105 149 143 127 137 130 114 135 122 105 137 128 111 160 155 135 113 115 75 140 141 97 156 148 129 162 156 132 127 119 83 154 150 121 149 144 122 148 146 121 135 136 92 141 135 119 150 143 127 134 129 110 140 136 124 105 112 61 147 137 125 160 152 139 138 137 119 135 131 93 120 116 89 129 135 97 108 106 68 130 136 76 116 118 78 126 142 79 128 131 104 147 152 112 151 145 131 153 147 131 158 155 138 114 110 75 127 133 97 168 165 132 151 145 131 161 155 141 133 127 113 164 151 142 134 130 103 164 160 133 165 161 136 143 149 103 127 127 101 127 141 82 147 150 121 157 151 137 157 149 136 
149 144 124 113 114 82 151 145 129 148 142 126 155 142 133 99 108 51 153 148 129 155 148 132 143 137 123 150 141 126 131 147 84 167 161 145 164 159 140 125 135 72 152 146 130 140 134 120 150 145 126 156 149 130 153 148 129 146 147 116 156 150 134 158 149 134 141 136 114 167 154 109 137 131 119 144 141 124 141 136 117 141 137 112 157 152 132 164 158 136 163 157 141 150 144 130 138 131 85 156 151 132 160 147 128 141 135 121 131 125 111 127 124 93 145 140 120 150 148 133 142 133 116 140 134 122 158 168 107 130 130 104 155 150 130 157 151 137 141 135 121 155 149 135 120 120 68 154 150 121 151 146 124 139 134 115 164 158 144 169 163 149 139 146 92 134 129 107 148 145 112 146 142 113 160 153 137 137 140 111 148 142 128 130 124 110 159 152 136 141 135 121 
103 103 67 162 155 139 154 149 130 152 146 132 150 147 138 142 143 112 169 161 148 158 153 134 156 142 129 134 129 110 144 144 90 143 136 117 146 141 122 145 144 116 166 161 142 152 146 132 160 154 130 159 148 130 162 155 137 149 142 123 168 160 139 118 111 105 142 138 127 187 163 115 132 131 101 159 153 137 153 144 127 133 129 104 149 145 120 148 145 114 155 150 128 141 129 115 162 158 113 156 150 134 156 150 136 149 146 131 157 151 135 136 139 110 155 151 140 129 123 109 155 149 133 145 140 120 135 132 117 111 120 73 152 146 132 137 131 115 153 145 132 150 146 121 166 153 111 148 142 128 153 148 126 168 160 147 143 138 118 144 138 124 132 150 108 172 168 143 141 137 110 130 126 101 148 141 115 125 132 81 140 134 118 149 145 118 147 142 122 157 151 135 
105 112 68 158 152 136 127 121 105 138 132 120 161 154 146 152 148 119 152 146 130 154 149 129 138 132 116 151 143 120 83 96 42 80 85 45 140 141 110 148 152 115 153 163 103 139 132 116 133 127 113 150 146 117 139 135 110 153 143 131 151 152 121 159 156 123 149 143 121 118 128 57 138 136 111 154 149 127 151 148 129 165 155 143 137 138 107 145 139 115 159 153 137 137 130 120 106 115 70 144 138 124 150 144 130 146 139 129 169 159 147 131 130 110 163 156 138 148 144 119 141 137 112 149 141 122 156 158 137 113 110 77 111 117 69 117 118 74 157 155 130 144 138 124 147 141 125 132 126 76 111 110 82 137 131 109 137 129 82 111 109 84 149 144 122 156 150 126 158 153 134 138 135 100 156 147 132 104 108 73 154 149 130 150 144 128 156 150 136 155 145 133 
146 140 126 150 146 121 159 171 105 147 154 112 144 141 122 113 125 63 141 131 119 137 146 101 139 156 85 122 140 64 143 137 121 151 145 131 141 135 119 152 145 129 117 117 89 163 150 95 163 170 102 117 119 72 170 163 147 124 139 82 149 143 127 130 124 112 141 137 110 149 144 125 148 142 126 132 142 73 169 169 141 162 147 92 118 124 76 139 133 109 153 151 136 161 149 123 151 154 99 139 138 118 160 149 117 97 97 69 137 130 104 118 129 89 165 158 140 153 143 134 137 146 101 121 133 61 177 169 122 136 134 109 142 136 122 105 122 67 151 147 122 139 133 119 139 133 119 140 134 120 148 156 107 136 137 103 155 149 135 143 137 121 140 135 113 164 159 139 158 154 116 104 113 58 139 127 87 146 155 88 148 142 118 142 138 113 150 141 136 150 148 99 
163 160 141 150 147 132 150 165 100 156 146 137 148 143 124 163 156 140 154 152 129 158 153 134 174 168 152 104 112 35 144 138 122 159 151 132 150 142 129 158 153 134 140 133 115 146 145 88 150 144 122 169 162 146 159 152 136 121 129 80 151 145 123 143 138 118 155 150 131 148 143 123 153 148 129 129 135 99 115 122 78 136 131 109 130 125 105 163 143 106 148 146 107 133 125 114 138 131 113 141 133 120 152 159 117 102 115 62 141 133 120 145 137 124 167 160 141 120 129 62 162 156 142 151 144 136 149 152 97 169 163 149 157 151 139 139 128 98 154 148 134 113 107 95 153 147 131 160 154 138 115 122 80 154 147 128 151 144 128 157 150 134 162 156 142 160 155 136 149 148 128 140 142 79 131 125 103 141 135 119 117 123 77 152 141 109 152 145 127 164 155 140 
