P3
16 16
255
129 121 102 149 144 124 151 146 126 149 141 120 146 146 118 147 142 122 155 149 133 142 135 117 143 137 121 172 166 154 139 133 117 166 161 142 151 145 129 135 129 103 168 172 139 154 150 123 
125 120 101 170 164 148 162 156 142 132 127 108 159 153 137 155 152 117 145 139 127 148 144 119 145 142 125 166 159 130 142 133 118 143 143 115 151 149 98 153 149 120 151 145 131 165 159 145 
152 165 93 156 152 125 151 172 95 148 143 124 155 151 126 129 135 89 142 143 109 144 141 90 150 142 121 126 117 100 147 163 100 139 147 100 132 123 108 155 149 133 152 165 95 137 131 117 
143 140 125 111 112 80 144 138 116 145 156 96 155 150 131 140 137 104 153 147 133 161 154 136 163 157 143 135 129 105 136 130 114 131 121 109 152 145 126 147 141 127 145 137 124 145 139 125 
144 138 124 167 158 143 153 148 128 163 157 143 145 139 125 102 100 62 159 153 129 140 133 123 163 184 109 156 151 131 151 169 95 156 153 136 168 162 148 164 161 144 150 136 110 149 142 132 
160 152 141 178 184 112 137 131 119 152 146 134 149 140 123 154 148 134 135 138 107 121 129 82 156 150 138 156 148 127 145 139 123 165 156 141 152 149 134 141 133 114 103 104 72 149 150 118 
143 138 118 135 129 115 140 147 113 147 141 129 148 142 126 134 134 110 145 139 125 134 125 110 138 154 79 167 155 139 141 142 108 138 132 118 149 162 83 153 158 128 157 151 139 151 145 129 
200 183 127 160 154 140 148 138 129 167 161 145 136 136 108 157 151 135 149 145 118 147 138 123 144 149 117 156 168 96 151 138 122 148 145 126 143 137 125 166 163 130 133 132 104 139 134 105 
146 142 115 184 164 114 145 140 108 153 144 129 130 146 73 147 138 121 163 160 129 140 135 115 131 124 108 137 138 107 146 138 115 157 151 139 165 185 90 140 134 118 164 164 130 148 140 121 
117 119 82 140 141 75 141 138 123 167 176 95 163 159 150 154 149 117 147 140 122 159 153 139 138 143 89 151 161 88 166 160 144 128 127 107 152 149 134 139 140 100 118 114 103 165 159 143 
145 139 117 144 139 119 133 143 80 137 146 93 158 151 125 147 143 118 144 138 124 136 147 91 146 141 121 146 141 119 141 158 87 155 147 126 126 120 106 156 157 141 135 129 117 143 144 104 
138 133 114 155 143 129 159 154 134 163 154 145 127 134 83 160 161 93 149 143 127 152 146 132 163 167 132 157 155 96 140 138 115 146 133 127 169 164 145 155 149 135 147 139 137 174 169 150 
149 144 125 128 133 103 162 176 101 139 143 118 168 181 112 136 141 111 164 172 133 114 117 88 142 155 86 113 115 91 135 151 76 129 126 107 147 137 125 154 149 129 149 143 129 115 125 75 
146 141 122 181 190 111 158 152 138 157 151 137 148 139 110 160 166 122 119 131 85 146 155 108 157 155 140 196 196 124 156 150 138 160 169 104 136 136 100 153 149 124 118 128 68 157 175 91 
141 138 123 158 158 132 152 155 112 126 123 104 154 151 116 100 91 76 152 151 120 147 149 102 152 147 128 133 134 90 172 184 98 117 116 86 159 153 141 152 145 127 159 171 97 158 160 111 
103 103 67 150 147 138 156 142 129 146 141 122 160 154 130 168 160 139 132 131 101 149 145 120 162 158 113 157 151 135 155 149 133 152 146 132 166 153 111 143 138 118 141 137 110 140 134 118 
