P3
8 8
255
129 121 102 151 146 126 146 146 118 155 149 133 143 137 121 139 133 117 151 145 129 168 172 139 
152 165 93 151 172 95 155 151 126 142 143 109 150 142 121 147 163 100 132 123 108 152 165 95 
144 138 124 153 148 128 145 139 125 159 153 129 163 184 109 151 169 95 168 162 148 150 136 110 
143 138 118 140 147 113 148 142 126 145 139 125 138 154 79 141 142 108 149 162 83 157 151 139 
146 142 115 145 140 108 130 146 73 163 160 129 131 124 108 146 138 115 165 185 90 164 164 130 
145 139 117 133 143 80 158 151 125 144 138 124 146 141 121 141 158 87 126 120 106 135 129 117 
149 144 125 162 176 101 168 181 112 164 172 133 142 155 86 135 151 76 147 137 125 149 143 129 
141 138 123 152 155 112 154 151 116 152 151 120 152 147 128 172 184 98 159 153 141 159 171 97 
