P3
64 64
255
163 151 162 167 5 212 95 60 53 252 30 224 46 21 99 160 9 111 213 89 225 194 34 99 90 208 83 89 138 240 2 243 179 12 53 44 59 166 174 223 142 69 242 155 189 53 245 99 116 67 119 208 38 123 141 120 197 104 227 3 117 100 43 213 41 96 91 107 123 159 74 35 148 128 113 160 154 217 201 151 2 42 100 191 121 150 200 44 137 192 128 245 160 37 221 193 3 47 238 199 2 207 17 39 48 225 133 149 228 42 134 7 38 105 105 243 54 140 10 132 195 186 229 248 218 73 254 176 242 209 73 36 187 209 149 87 226 253 163 166 21 1 66 103 98 227 97 43 175 197 38 136 33 52 114 164 219 97 94 92 217 127 90 95 62 53 17 128 55 85 248 122 243 118 241 32 150 235 102 242 194 243 150 101 144 16 168 123 185 63 132 212 
120 42 53 192 210 135 123 64 65 64 171 219 117 19 219 186 86 124 68 2 210 16 114 47 153 43 250 250 75 169 213 163 128 151 133 253 163 199 50 122 165 219 32 34 102 94 218 103 212 181 160 120 199 134 20 23 187 220 221 219 12 173 57 43 82 52 35 242 29 10 111 9 81 244 33 172 31 37 210 145 155 80 210 117 119 251 45 229 253 220 244 69 36 156 206 210 61 25 73 209 197 202 34 0 47 226 94 215 20 197 56 35 16 221 63 209 89 46 250 200 199 22 2 2 210 200 47 109 220 206 10 137 141 141 253 51 94 155 34 65 236 143 239 151 19 36 245 185 241 84 30 145 122 115 17 57 95 149 155 90 31 117 186 142 42 36 126 146 232 57 224 243 64 50 111 16 121 27 251 21 8 135 237 85 197 212 102 103 170 36 117 93 
118 81 198 5 26 38 229 20 99 235 169 104 93 221 55 190 241 41 17 185 102 47 109 77 61 184 38 124 136 145 96 233 78 207 62 207 203 148 48 210 94 205 12 237 201 215 210 63 238 55 225 77 227 175 221 209 81 74 156 214 164 13 208 33 71 200 121 66 108 7 250 243 4 124 19 49 177 190 193 185 130 8 21 18 145 89 200 52 122 1 111 13 251 211 43 86 41 227 102 4 198 223 228 131 132 34 125 153 111 169 241 161 83 156 241 28 107 7 93 119 240 152 68 48 155 26 28 9 43 93 248 218 88 244 193 130 228 54 10 132 168 18 137 222 173 107 166 235 151 137 69 145 170 177 183 142 108 127 153 127 46 113 30 110 252 174 67 175 206 236 152 180 237 91 213 172 204 83 107 197 83 20 230 181 89 27 226 95 84 125 16 0 
30 249 247 82 160 2 17 35 224 18 237 119 231 167 190 134 36 75 142 151 124 66 1 2 194 215 52 22 158 96 186 100 82 164 10 105 240 209 192 224 245 164 2 98 146 158 177 82 239 234 48 52 52 182 197 46 164 139 234 110 90 62 233 51 189 17 153 115 216 13 99 113 121 26 123 112 155 11 37 19 59 161 52 114 131 182 219 197 243 248 190 237 214 175 57 77 254 248 27 250 142 210 34 252 181 11 84 150 62 104 142 201 4 136 210 29 138 208 126 5 219 12 70 76 115 223 78 177 58 28 230 80 11 12 247 51 121 156 248 33 91 186 197 46 230 121 229 220 48 218 74 112 71 120 154 225 50 194 111 158 200 217 254 21 163 55 45 210 115 73 167 89 101 137 107 157 141 5 179 166 98 5 4 4 23 95 0 67 174 208 205 94 
121 149 194 230 249 230 42 132 134 189 25 151 175 123 152 114 17 243 159 179 99 35 114 39 170 153 98 18 138 130 36 243 40 65 17 98 2 110 45 97 6 203 190 17 81 210 108 182 122 248 131 5 146 58 119 186 205 4 146 126 102 39 27 31 208 53 225 193 72 158 127 207 95 71 237 38 169 82 18 177 167 5 66 213 18 121 235 157 206 154 55 91 160 92 39 198 194 173 20 106 151 100 195 8 221 119 99 215 122 66 85 36 93 30 54 19 124 243 187 188 96 138 219 201 7 189 213 199 101 33 188 99 134 55 253 26 105 221 144 2 195 67 46 26 76 66 65 148 135 58 166 168 23 160 69 107 63 68 55 122 19 156 100 2 32 34 208 228 147 203 0 222 119 113 201 98 208 100 152 60 94 172 160 217 174 152 44 66 151 106 35 1 
113 38 124 123 58 69 37 94 32 12 48 250 162 98 231 254 33 85 59 144 111 248 241 169 243 139 83 128 252 4 206 107 199 118 2 131 5 12 117 202 0 36 254 219 178 84 204 121 110 92 75 69 65 180 191 213 155 108 53 94 103 241 198 210 22 130 61 132 140 56 46 121 217 79 248 222 40 137 195 201 164 125 47 195 60 211 182 37 136 203 172 156 248 74 157 193 164 175 68 106 119 135 241 25 200 132 183 3 54 170 133 231 233 82 228 129 145 185 68 155 110 243 143 79 179 77 127 214 135 210 128 107 240 39 195 234 69 205 12 178 87 88 195 215 251 26 38 30 136 236 105 142 242 15 100 30 33 6 70 152 6 116 240 179 97 104 229 219 86 62 123 179 224 225 125 81 123 161 17 180 211 102 166 67 166 63 215 29 46 27 228 46 
84 188 92 61 178 50 217 97 70 253 176 58 234 21 188 148 126 12 112 213 73 113 54 126 119 215 161 115 129 48 213 245 30 35 225 168 63 59 228 164 233 220 87 228 240 195 225 129 134 110 219 171 167 196 22 106 234 13 190 15 112 71 85 91 155 125 42 214 11 142 166 72 131 225 227 207 42 132 213 230 217 128 158 233 228 211 10 109 90 62 46 242 49 108 38 246 201 138 107 80 90 254 158 177 245 79 149 62 202 134 75 215 104 140 150 102 129 67 38 102 0 60 48 34 207 132 17 98 187 144 134 34 202 90 207 212 249 96 138 248 68 241 180 16 6 35 57 101 202 64 84 66 99 209 174 96 182 238 98 126 152 35 254 110 19 132 8 221 197 81 68 208 215 25 134 183 10 135 109 53 67 110 209 213 119 30 133 110 119 166 195 122 
125 184 197 11 140 121 9 236 109 230 4 210 169 202 208 10 169 131 110 163 108 58 126 223 209 252 161 65 226 76 215 152 185 11 171 82 2 31 11 7 100 209 158 210 233 112 65 184 250 92 92 110 176 94 23 215 223 10 132 76 19 192 229 104 206 219 36 91 43 65 50 194 0 144 89 128 161 190 23 60 249 11 9 7 160 169 237 53 245 202 163 197 217 66 102 162 174 149 207 4 136 87 111 106 220 192 68 188 61 162 196 139 72 146 150 138 81 108 215 171 12 176 25 130 100 9 96 104 190 221 201 89 147 9 85 33 5 104 226 233 32 193 83 175 127 99 40 1 86 228 175 209 136 131 159 197 145 40 3 96 226 83 158 40 196 250 49 132 94 105 174 150 115 120 55 170 120 100 16 41 144 113 72 214 104 221 198 14 215 200 114 106 
34 158 205 52 141 86 119 15 98 161 137 189 8 97 138 205 119 203 157 13 4 148 81 110 12 1 54 241 0 173 133 94 247 63 66 211 84 139 189 20 234 67 177 92 207 8 235 20 30 84 227 247 137 80 90 77 20 79 128 85 159 253 198 140 187 157 100 154 177 123 157 127 4 163 111 89 59 187 7 90 127 63 253 120 184 53 95 43 154 105 212 154 102 198 88 49 36 235 217 124 159 227 203 211 146 199 249 46 89 11 31 134 207 104 12 238 130 215 218 244 173 37 198 62 178 251 49 184 236 112 11 2 182 94 169 128 95 240 25 57 204 1 142 71 123 22 52 237 164 116 246 86 73 95 100 64 176 204 68 102 221 254 212 229 221 34 120 222 101 203 181 94 143 7 12 104 195 206 79 191 186 141 224 94 86 140 191 16 170 34 115 77 
142 89 227 3 209 134 245 121 72 108 52 94 86 9 22 113 122 49 41 8 113 74 100 7 129 91 225 152 58 170 38 61 146 143 224 140 9 14 251 210 60 98 25 54 122 25 126 185 190 116 141 149 244 177 211 174 147 3 62 68 96 61 239 7 174 158 63 221 127 115 8 97 113 229 32 102 178 215 18 47 64 235 217 206 41 219 134 248 233 33 72 18 190 26 141 168 221 144 204 110 243 46 59 132 177 81 204 208 145 35 252 163 208 208 17 44 253 30 101 71 73 1 152 106 44 169 42 187 1 152 56 69 131 187 116 75 91 251 226 59 61 87 44 234 191 164 154 207 252 175 96 56 34 49 245 120 23 13 26 48 10 56 81 53 147 69 249 212 166 110 11 41 94 11 28 189 0 231 10 43 63 169 23 233 50 22 134 43 4 155 108 111 
178 9 159 249 183 122 111 69 234 250 57 228 248 25 6 182 35 111 86 102 190 27 196 154 60 61 114 69 218 184 189 108 137 225 46 38 114 112 216 19 48 219 154 162 76 34 91 70 53 45 143 72 239 42 144 174 251 94 218 210 242 27 107 145 157 72 29 12 102 99 8 116 250 229 74 246 139 146 233 132 9 242 19 208 246 239 229 248 77 9 209 160 238 42 76 71 4 210 94 235 222 85 179 211 127 187 84 249 141 246 136 245 142 240 215 251 245 56 96 123 140 229 50 192 237 132 232 233 31 223 138 127 192 67 55 16 17 118 215 206 89 231 142 213 244 8 198 108 77 208 219 195 218 56 121 19 30 12 128 185 186 174 30 162 155 131 41 29 129 71 228 206 41 49 54 129 17 218 55 170 5 32 162 34 139 49 82 206 192 136 155 94 
61 159 208 133 133 242 25 70 169 113 241 3 3 214 73 132 171 178 168 13 52 134 144 162 195 194 203 228 162 57 172 167 245 197 248 113 243 13 48 248 236 179 32 115 235 134 253 16 63 128 35 128 196 102 128 232 39 28 198 223 134 218 63 56 11 214 154 90 251 8 224 175 149 48 66 146 121 246 133 134 158 84 46 252 80 136 97 220 179 206 142 109 24 134 54 194 55 206 9 170 36 175 193 37 242 90 87 183 36 155 91 59 143 184 11 93 85 34 33 184 206 189 201 93 80 188 111 67 129 39 130 118 106 154 188 63 232 22 213 112 175 84 113 248 154 197 62 180 153 192 234 0 229 191 246 95 98 171 117 16 159 249 2 40 0 11 200 221 61 181 48 202 146 228 192 228 151 210 199 47 63 200 193 109 124 153 192 19 87 162 111 25 
56 91 3 203 99 19 192 69 168 149 202 179 160 211 225 84 223 198 79 236 242 153 228 98 121 63 121 96 44 129 230 207 167 75 45 249 109 138 48 244 72 148 159 65 62 241 202 250 15 245 101 4 18 135 75 134 82 23 105 239 187 0 10 240 80 179 113 211 49 16 81 169 189 44 22 9 217 243 83 16 230 98 56 212 38 39 201 168 45 21 201 81 162 186 29 100 235 51 149 52 214 202 92 108 239 109 190 188 186 212 199 103 56 233 73 75 66 156 83 22 179 15 32 162 56 15 227 133 240 228 210 23 53 59 130 70 148 232 111 190 120 138 96 167 200 75 102 16 170 243 61 253 182 92 153 99 33 42 104 0 132 181 153 187 42 80 138 14 106 84 250 23 106 198 99 165 174 233 180 59 161 70 20 101 155 135 168 41 11 217 195 20 
22 68 146 243 70 73 18 120 41 206 179 165 63 189 90 35 95 12 229 26 155 48 72 103 2 26 166 212 120 135 71 104 71 101 14 39 200 103 153 254 232 114 79 77 123 94 205 233 243 64 61 92 139 250 24 106 11 175 73 178 234 47 79 15 220 27 133 207 218 165 250 130 29 208 248 59 217 34 182 166 245 237 107 201 176 120 55 49 50 10 165 37 206 3 203 70 57 111 212 38 139 71 62 232 179 186 104 113 242 163 76 234 64 201 171 108 114 154 10 194 241 3 155 187 240 98 70 121 116 25 111 31 100 45 143 45 50 31 222 140 59 111 10 205 83 86 5 66 164 247 97 142 107 105 19 210 88 211 136 103 104 127 187 102 149 176 145 54 146 248 253 17 119 179 20 52 176 225 33 42 35 27 164 7 116 227 136 124 201 64 107 219 
3 180 200 73 10 182 78 200 101 56 126 63 35 147 65 181 173 83 124 141 229 202 138 37 105 24 38 193 40 145 160 223 79 71 214 223 115 104 102 99 195 230 200 251 9 24 146 132 34 160 166 147 60 208 242 229 106 42 77 124 167 217 236 137 38 214 64 211 21 123 176 53 10 16 3 211 137 133 112 76 194 6 220 254 20 174 212 181 55 188 254 208 95 26 6 146 15 103 21 7 247 3 251 142 166 177 229 145 231 72 98 98 45 5 46 110 171 208 139 44 75 177 101 57 224 43 122 2 7 229 178 108 187 55 84 2 241 244 93 206 14 5 121 248 110 200 98 204 61 215 78 180 26 101 189 213 24 214 229 216 164 104 232 222 16 171 128 57 171 137 215 182 216 82 55 116 101 48 148 244 55 100 111 24 121 169 20 25 160 103 215 194 
1 198 214 44 45 184 76 159 187 245 170 71 46 250 200 10 206 172 193 254 182 201 84 34 48 50 137 126 248 118 61 92 57 77 169 78 33 141 59 92 172 50 212 71 128 229 143 20 239 172 111 100 6 151 117 89 202 172 153 60 88 134 9 95 200 167 225 211 31 114 227 96 97 174 124 51 86 39 57 101 222 224 19 122 21 1 149 68 225 50 177 160 18 86 8 185 52 208 224 115 46 15 239 152 140 42 174 174 126 53 15 237 234 77 38 18 248 18 159 163 133 174 0 203 25 232 61 85 172 77 141 238 89 235 135 162 232 37 88 110 217 198 55 173 254 37 132 186 34 117 127 198 159 135 23 116 24 171 105 155 136 88 249 199 59 111 53 171 77 56 157 39 13 110 218 61 100 113 64 94 182 8 114 212 30 42 136 251 166 251 46 143 
89 92 81 119 148 227 33 108 16 125 46 223 85 10 236 40 149 107 1 233 215 84 3 104 154 93 112 5 20 73 33 57 118 43 18 88 28 152 172 23 100 93 18 62 212 65 226 103 242 145 116 58 111 109 86 115 216 14 178 184 183 169 57 122 230 221 188 128 139 123 110 25 74 232 12 69 150 4 155 63 73 142 31 25 215 238 237 143 56 134 115 163 40 89 67 17 57 47 160 78 12 127 73 159 198 91 245 186 83 175 253 197 143 201 60 179 210 59 142 232 234 104 87 197 84 30 6 142 95 128 79 167 70 146 178 110 85 136 234 193 136 219 226 109 222 68 242 199 186 74 141 242 200 192 159 237 250 249 131 21 104 150 251 23 22 184 248 214 230 71 184 39 155 219 137 16 179 70 172 191 174 246 195 139 194 231 182 28 114 245 171 2 
14 86 250 252 41 137 62 81 134 120 31 134 212 180 45 43 43 27 115 193 185 68 248 114 169 6 107 169 152 175 106 156 125 197 160 232 136 175 103 157 232 52 1 18 91 61 48 79 229 185 234 22 145 183 177 12 93 229 144 185 13 201 17 21 246 239 63 142 239 217 125 130 154 61 164 207 239 6 224 81 209 131 17 226 213 58 156 82 164 240 71 135 46 41 133 121 244 82 188 194 166 239 126 165 69 80 102 147 31 240 230 3 182 36 38 168 245 12 149 37 29 39 13 111 30 40 105 111 251 248 129 66 231 42 91 68 191 193 117 68 172 35 91 13 84 166 37 45 76 124 186 56 10 6 94 141 12 232 210 63 60 249 78 11 169 191 102 166 79 236 141 235 157 42 34 103 48 114 103 152 230 132 243 9 136 153 230 3 58 251 114 250 
124 237 11 10 4 61 246 206 176 71 178 104 118 133 218 174 127 219 200 71 12 253 26 182 193 25 16 206 146 159 12 244 102 34 243 120 3 67 134 83 166 61 86 15 27 135 96 89 142 90 188 125 98 176 48 104 187 129 10 13 131 232 3 192 163 53 39 18 79 246 158 163 206 232 111 158 34 246 39 12 208 135 175 211 85 229 70 234 219 123 95 184 111 56 53 139 168 90 86 58 17 115 91 141 111 141 234 180 117 71 57 21 48 172 107 199 40 96 112 78 94 200 241 141 35 172 92 6 67 137 127 221 157 60 54 5 208 0 6 109 182 99 61 216 59 254 2 191 90 18 212 148 129 38 100 57 100 148 238 129 153 90 96 217 194 183 197 200 39 32 12 111 248 169 144 72 76 195 77 125 116 169 86 26 7 138 152 111 21 58 186 51 
168 188 100 43 206 176 125 219 200 40 183 110 28 164 59 129 210 177 245 157 172 17 156 52 162 178 232 35 62 242 152 173 74 228 24 196 174 254 71 218 82 62 49 157 8 61 94 175 58 143 215 88 95 83 183 57 154 17 16 118 21 176 124 85 57 133 140 47 144 21 130 238 208 13 228 140 93 73 153 114 40 8 90 101 46 88 53 209 77 235 252 247 212 146 137 6 6 120 249 99 135 100 88 170 54 167 21 93 206 175 38 11 194 221 57 252 1 133 130 14 36 236 14 121 163 116 118 56 184 18 45 48 253 173 36 14 240 195 66 235 12 68 226 153 11 78 14 109 121 67 176 21 201 127 218 194 132 218 186 253 55 245 202 244 27 108 198 209 154 205 223 21 159 5 167 219 18 145 91 253 205 96 217 113 124 218 223 22 238 121 191 49 
166 53 248 244 182 241 207 165 83 119 151 112 200 32 254 71 105 179 11 3 114 147 52 47 166 248 59 80 34 43 68 85 4 30 203 136 63 5 74 150 164 36 145 226 176 44 25 100 90 67 46 223 76 97 112 175 153 9 240 223 165 75 25 135 243 212 173 174 131 77 29 216 132 198 248 197 90 77 192 85 31 54 183 211 28 176 61 216 27 232 201 204 244 30 159 93 247 162 224 131 41 6 190 176 103 153 172 10 129 225 127 124 53 189 181 143 163 239 206 62 247 57 158 190 84 87 86 10 193 88 118 10 56 85 26 51 236 133 139 230 115 187 89 251 77 245 5 183 105 82 156 112 192 198 27 225 34 236 150 87 199 78 26 28 120 6 55 214 187 202 7 103 195 22 197 99 90 248 238 64 250 94 246 152 83 20 174 99 113 187 2 37 
162 137 227 76 124 144 12 170 153 176 225 88 181 17 233 233 138 199 226 71 170 252 154 168 223 100 159 148 136 17 113 110 116 120 35 81 59 29 205 111 237 39 107 218 162 217 213 72 89 32 127 61 189 85 17 57 232 194 158 186 245 204 67 173 149 134 139 127 90 58 21 229 67 44 142 59 237 241 68 196 186 208 154 5 98 150 127 24 114 104 207 232 233 211 131 120 205 36 82 6 158 10 17 30 22 245 145 179 78 6 249 247 254 124 151 95 151 14 48 10 205 124 95 220 238 93 98 165 130 12 79 106 10 0 138 202 16 133 44 22 52 108 43 17 162 118 26 144 48 207 13 155 174 2 45 173 250 181 164 80 175 226 219 42 117 158 48 27 76 231 108 74 219 179 149 221 140 211 233 50 27 178 160 206 162 156 147 84 148 228 140 149 
238 64 195 32 105 127 12 62 148 199 117 119 245 7 46 127 52 227 89 94 252 148 215 12 248 68 222 253 243 48 117 198 167 64 72 164 49 253 16 202 37 106 90 15 192 184 241 211 97 43 95 128 48 106 158 71 99 64 191 136 200 53 96 102 174 122 49 3 207 223 155 31 80 170 252 83 29 49 21 141 30 119 135 109 51 191 45 95 115 242 246 75 178 242 221 235 235 186 134 32 171 166 142 19 189 71 7 33 96 104 53 97 23 233 12 78 228 19 177 205 22 172 238 154 68 47 20 202 59 67 30 147 104 118 249 93 215 42 50 201 234 104 41 166 199 189 155 34 178 4 140 113 140 241 138 243 15 5 156 182 38 188 22 140 205 71 57 97 11 171 243 212 73 177 214 186 66 219 221 90 169 117 209 78 73 216 52 83 163 200 231 243 
173 114 213 28 222 169 7 50 215 2 162 214 104 60 94 197 33 155 194 209 53 169 154 57 154 236 6 13 37 9 128 132 56 46 66 4 241 75 200 140 34 7 232 249 118 121 242 106 87 250 141 26 214 155 109 46 124 232 0 122 182 212 111 143 139 200 196 118 96 154 197 226 108 106 26 245 212 30 217 78 113 202 227 13 103 106 103 62 136 79 207 22 160 198 31 87 52 77 26 36 168 172 144 0 78 173 173 139 206 11 202 183 192 128 138 113 158 36 238 114 23 23 160 94 7 6 16 11 66 91 221 99 246 218 142 106 182 92 43 43 125 39 112 55 86 246 88 38 163 152 6 61 252 22 216 174 184 31 26 207 46 217 10 248 62 170 210 236 10 17 75 82 134 4 14 102 9 83 8 149 206 29 244 144 185 109 70 186 54 78 5 219 
128 129 172 87 168 106 56 166 211 114 26 153 85 198 135 22 149 190 175 246 200 236 201 124 15 104 126 196 196 59 190 56 87 237 31 44 109 35 93 47 36 120 184 156 25 95 186 53 164 183 229 180 87 139 145 166 189 238 146 250 158 34 102 29 227 133 26 132 118 94 75 16 57 110 233 83 12 30 216 55 119 13 179 101 63 211 231 183 97 70 42 199 1 225 234 245 202 38 188 234 243 147 178 224 175 144 76 26 150 144 252 55 203 104 51 213 171 141 0 208 88 192 25 38 46 131 78 23 167 53 104 147 249 209 222 181 164 84 253 123 148 21 242 217 24 89 198 164 65 23 8 12 22 50 210 20 40 152 65 162 213 59 72 147 198 93 36 162 70 112 48 223 247 70 114 192 56 108 112 128 23 66 72 245 160 172 6 188 225 10 45 84 
172 80 155 231 233 21 108 57 208 198 179 78 67 17 168 103 35 143 85 61 202 144 244 56 9 62 229 246 142 48 128 247 29 50 0 61 188 28 31 53 153 200 228 16 232 158 7 190 142 136 11 88 178 173 10 136 69 184 43 150 68 26 215 130 198 194 122 72 221 126 252 11 127 36 116 191 54 6 151 235 74 5 21 234 172 81 199 107 192 206 254 193 208 147 189 141 83 231 155 37 88 52 236 33 213 231 114 217 56 233 23 245 209 41 32 103 176 219 108 131 0 69 223 162 72 1 90 50 222 233 161 200 43 67 206 192 192 244 17 194 18 174 232 177 120 245 146 141 155 196 48 24 211 70 156 211 246 90 104 148 146 228 170 48 68 139 202 79 88 105 14 137 138 208 50 94 28 205 96 113 111 28 122 94 212 4 83 83 72 129 134 158 
80 235 16 171 75 145 201 89 49 177 243 156 103 47 125 154 252 64 150 3 229 144 101 198 31 232 167 86 137 252 154 96 184 104 154 18 36 171 47 45 74 137 41 204 98 53 178 226 72 125 206 70 223 95 156 21 194 163 148 175 251 140 184 59 119 224 135 0 31 109 62 159 126 202 65 122 4 221 227 90 119 155 87 193 42 109 26 224 231 112 98 30 243 144 156 107 180 69 37 31 94 50 209 13 230 20 33 1 48 63 29 95 114 71 96 178 63 169 123 60 229 212 103 162 87 30 168 0 162 1 250 58 145 241 168 31 80 86 15 80 173 67 29 218 71 174 125 71 11 180 130 18 198 141 184 173 8 24 224 159 94 96 167 253 170 7 200 146 182 135 72 199 230 171 16 25 155 64 83 233 140 201 213 34 202 84 27 253 219 211 135 162 
118 21 12 168 112 87 187 72 33 91 90 195 0 167 223 251 43 222 251 113 180 203 22 238 114 212 50 181 95 93 172 250 55 168 38 101 127 137 64 140 24 60 207 97 75 178 33 178 66 98 33 97 71 50 151 30 47 183 48 160 22 40 50 168 174 212 99 26 14 180 254 25 121 64 252 233 153 6 35 45 253 141 212 199 148 57 5 244 46 41 5 4 189 194 219 153 100 224 45 217 185 122 140 169 107 95 136 226 134 17 203 162 153 199 27 103 155 251 142 226 225 64 228 15 244 54 184 67 181 191 93 144 253 207 170 140 71 178 141 198 253 62 214 196 113 113 218 65 196 7 156 234 60 54 147 23 26 198 177 239 203 83 91 152 9 67 19 111 197 42 78 17 166 177 203 183 52 70 47 20 206 131 115 16 243 101 158 31 134 112 201 230 
34 123 216 174 187 225 65 165 88 145 145 1 35 164 93 187 252 208 175 51 221 208 199 13 129 28 88 128 130 106 108 110 27 71 155 242 48 178 202 81 166 165 40 110 8 184 78 70 219 136 17 215 26 192 237 173 50 25 95 169 43 126 244 121 226 164 124 37 40 126 173 28 79 213 8 234 100 24 252 73 50 141 50 67 58 16 78 52 111 218 18 181 218 118 244 11 105 104 171 150 145 77 243 216 249 242 187 115 3 30 163 152 176 217 89 52 57 183 132 64 6 39 115 107 120 49 63 159 190 252 128 217 150 101 162 64 103 44 201 44 252 28 80 177 171 249 111 32 121 188 2 196 92 0 99 41 44 155 150 182 182 184 138 93 1 131 57 228 59 42 210 32 43 198 4 108 54 212 204 179 114 12 153 109 222 7 215 249 41 102 186 213 
229 162 105 103 248 108 13 20 219 96 5 193 42 129 189 112 51 232 166 173 205 105 23 205 133 182 70 192 225 116 155 172 174 72 244 130 18 226 5 70 111 179 119 198 80 205 122 200 251 160 130 184 33 52 15 109 166 82 157 55 252 189 173 250 4 238 163 182 128 60 229 117 14 100 191 242 154 253 244 235 217 80 219 234 37 212 143 162 233 113 62 141 218 123 99 41 242 158 121 225 228 47 150 36 22 29 200 0 16 88 76 84 134 50 49 107 111 9 177 27 39 136 229 248 247 233 145 155 25 147 185 224 28 74 27 241 124 235 71 127 92 90 72 126 85 175 60 136 106 227 243 149 139 24 10 131 104 235 133 146 158 78 66 227 64 47 205 109 250 40 90 14 40 238 42 143 133 191 34 55 51 53 231 181 8 238 209 232 32 30 93 108 
174 43 222 54 94 15 186 175 88 9 195 226 245 115 141 245 230 186 228 221 227 176 57 159 230 44 149 83 130 24 189 155 8 149 175 173 39 144 131 224 248 28 98 133 198 176 11 151 162 68 205 199 84 101 56 47 58 26 47 55 66 227 247 155 3 135 9 20 65 111 72 31 84 94 173 140 99 244 252 49 1 1 49 186 161 34 90 135 192 216 1 61 221 13 149 190 161 1 188 93 15 114 0 162 127 118 172 132 19 211 21 108 6 125 185 64 132 140 188 243 175 225 137 84 124 167 220 160 250 14 123 122 237 191 215 219 47 130 64 242 37 35 185 73 145 117 133 43 104 26 228 157 103 222 25 124 121 25 195 108 151 95 28 115 172 106 196 116 242 225 134 151 140 28 250 220 20 77 57 175 109 135 58 165 115 84 127 89 70 16 231 77 
28 215 213 103 208 245 128 206 201 104 122 142 96 21 62 7 164 238 209 39 148 39 168 80 16 157 223 243 19 144 233 234 119 202 223 143 245 83 80 100 59 183 251 76 201 13 39 29 86 95 47 251 128 135 78 239 233 2 114 193 169 92 44 3 53 124 153 152 134 164 10 158 214 97 119 195 17 44 31 34 74 17 111 76 55 12 4 40 243 212 106 31 154 194 237 63 35 198 217 117 18 121 112 122 119 58 49 128 219 206 112 254 107 95 84 12 155 240 48 251 90 130 185 112 141 202 158 129 23 157 86 222 252 136 221 48 0 18 154 19 201 201 186 85 72 9 120 101 205 186 91 80 108 29 195 158 8 191 34 254 218 129 196 92 167 150 151 226 231 173 254 135 125 31 182 209 145 134 88 244 245 251 12 146 183 185 237 128 35 151 84 25 
254 156 109 223 137 101 203 70 209 48 179 188 194 172 155 192 86 137 102 9 128 119 199 175 103 146 87 89 208 167 106 136 164 110 162 179 130 53 15 175 129 243 32 88 226 163 191 229 242 130 129 131 58 146 252 234 116 231 240 9 27 13 170 117 102 230 70 160 208 193 133 72 166 49 182 10 45 77 212 80 13 11 217 149 15 207 80 1 63 0 75 191 203 253 83 71 52 246 150 67 40 78 105 236 207 25 36 114 204 252 76 183 154 118 137 27 183 192 178 158 219 56 233 65 25 138 69 154 225 204 63 104 45 140 178 85 36 51 171 71 7 196 42 176 107 209 126 93 113 221 41 172 100 162 189 72 137 239 93 69 160 246 174 194 188 177 49 76 47 196 9 220 28 183 163 8 122 62 65 197 126 200 98 217 239 196 95 52 107 10 192 249 
40 38 192 202 163 155 250 174 117 163 178 167 138 211 78 76 26 203 119 110 47 209 219 32 166 238 42 225 216 160 243 100 232 102 250 100 227 223 182 117 55 56 33 0 39 111 55 76 104 57 179 156 13 28 206 168 167 48 59 163 200 31 12 216 31 6 160 81 247 221 251 181 198 142 208 228 46 59 96 14 223 239 231 27 72 107 185 242 209 234 176 29 83 102 171 192 101 9 127 108 3 228 153 49 59 230 145 179 74 122 201 98 120 211 106 107 142 174 96 191 93 46 203 161 63 26 104 102 92 220 19 26 185 68 86 224 38 56 137 132 147 48 81 164 74 74 35 173 8 108 77 73 210 199 237 89 49 16 101 145 71 237 8 59 78 92 81 138 235 113 138 161 154 173 35 50 114 122 107 96 3 236 116 185 122 160 241 199 71 134 56 141 
47 159 157 140 113 119 0 28 168 170 32 156 193 251 170 111 140 156 206 154 138 243 33 242 74 24 156 248 144 81 66 26 18 154 231 190 93 41 131 43 244 209 55 223 29 165 93 6 208 24 210 205 152 247 173 242 38 248 224 34 92 90 153 62 207 53 94 237 93 84 18 93 253 114 63 83 116 30 29 147 28 25 254 237 3 167 105 237 176 25 224 226 141 176 250 137 148 198 26 122 85 185 12 59 207 114 141 236 214 156 120 6 90 31 179 92 62 200 150 194 66 146 170 183 114 226 174 52 109 59 125 164 63 88 205 162 251 52 242 130 81 123 205 147 224 26 218 242 162 207 123 148 162 160 240 233 7 131 97 229 171 190 131 11 102 148 248 212 244 110 24 44 166 90 3 27 146 61 9 3 103 11 41 234 182 172 34 123 242 122 131 59 
190 38 95 219 55 11 159 223 17 189 185 106 70 19 203 69 130 101 100 60 86 121 195 12 203 144 148 93 53 24 47 143 28 137 148 40 156 32 41 82 80 237 118 234 177 116 188 57 71 60 94 215 89 153 118 3 216 112 226 52 88 150 55 134 168 152 138 104 203 173 241 110 187 200 66 229 149 110 176 46 172 8 8 84 85 101 234 191 194 213 224 54 26 84 161 238 180 101 111 186 222 106 134 106 36 121 3 172 109 201 252 66 172 129 106 105 92 7 144 182 90 6 213 173 187 190 57 160 78 165 43 62 83 98 195 198 76 102 185 55 253 71 122 45 122 39 111 60 204 146 99 132 66 174 251 15 15 61 73 15 166 247 4 131 188 30 154 23 127 43 59 96 172 220 193 162 77 104 54 59 231 103 41 43 106 22 60 160 226 42 104 5 
62 245 32 97 147 84 89 56 41 11 133 139 19 21 9 215 40 123 122 111 105 157 239 77 37 126 222 178 129 242 174 202 231 103 236 75 101 6 47 253 101 220 155 165 101 63 221 88 52 199 158 102 209 68 143 65 186 133 23 185 143 9 134 128 58 49 87 252 140 242 12 215 86 224 66 158 12 12 194 105 83 40 165 33 35 201 213 115 249 48 97 60 149 58 241 8 112 77 119 10 168 179 199 179 130 35 120 38 47 17 250 105 222 254 29 212 24 152 162 157 176 241 244 39 71 109 141 218 132 219 129 97 2 43 177 183 103 38 129 153 184 236 69 80 230 116 81 72 53 145 95 240 155 76 39 60 113 176 8 150 94 80 116 101 45 49 68 191 196 32 93 109 72 251 41 219 227 120 55 208 216 53 122 103 123 41 194 220 86 107 25 49 
135 141 214 18 106 248 14 101 143 227 20 208 140 71 172 241 223 96 233 114 47 105 131 45 86 218 90 242 1 79 154 156 57 87 155 212 30 93 50 249 125 121 3 241 122 176 167 239 146 222 120 3 121 132 190 147 10 216 183 131 46 31 145 105 186 8 169 229 134 23 64 89 64 222 216 198 117 36 213 68 129 193 167 71 39 104 77 125 10 189 184 79 27 115 129 113 205 163 50 236 152 214 139 219 70 125 209 10 211 100 187 108 65 185 124 186 183 111 64 231 58 208 218 177 224 38 66 118 34 27 254 9 128 208 117 51 214 17 96 193 237 197 172 172 89 169 218 113 161 73 222 130 15 252 103 151 169 204 212 135 17 53 246 248 9 199 55 143 251 46 178 164 1 204 126 97 66 234 96 65 232 130 242 9 167 180 112 92 231 119 180 224 
96 101 84 147 109 52 112 187 77 218 167 43 221 192 99 235 196 171 209 153 37 221 131 47 43 9 2 244 12 98 130 33 104 222 2 231 6 103 250 156 165 132 227 30 241 25 242 193 227 132 144 13 163 229 156 128 203 244 213 235 184 1 162 158 109 103 219 227 136 170 132 89 32 150 182 36 11 197 140 94 199 35 249 111 112 61 2 99 185 249 104 9 173 99 240 237 90 80 86 31 101 118 58 208 174 155 194 223 194 234 109 37 218 123 220 222 43 225 74 223 243 108 203 196 28 145 149 13 156 123 27 123 226 78 121 196 34 153 20 32 87 111 7 20 186 158 30 55 70 108 144 26 153 191 220 110 191 171 9 185 47 244 5 136 61 207 100 67 234 56 121 126 233 94 31 152 142 231 181 144 181 102 18 123 145 180 114 180 246 198 63 27 
148 158 57 19 142 7 204 48 9 183 78 15 106 244 90 131 229 105 231 23 11 132 231 158 146 55 211 251 38 5 134 45 38 42 58 198 186 233 108 29 241 216 176 215 163 149 244 226 9 43 3 205 155 65 68 134 237 251 38 21 228 217 183 229 143 151 237 60 34 229 22 43 75 89 94 241 192 125 49 1 215 235 90 250 64 197 237 141 108 17 193 146 154 6 76 94 235 190 246 125 223 137 143 18 151 144 236 57 219 165 234 125 95 229 193 206 124 78 76 247 194 158 99 122 254 55 86 73 250 68 64 148 1 224 106 189 1 116 34 194 12 45 182 38 212 227 16 207 248 228 154 85 94 84 192 159 166 132 176 192 239 201 242 20 59 110 13 132 196 97 116 204 128 170 242 191 47 90 3 90 217 198 232 149 194 56 71 244 35 165 31 174 
205 93 179 81 169 128 71 31 71 140 124 222 10 186 27 183 67 214 1 15 114 167 159 48 31 88 89 97 252 153 127 125 166 49 110 253 246 140 225 75 93 108 158 9 24 241 121 9 42 111 247 113 19 28 10 177 103 149 224 184 134 19 144 10 133 110 224 136 237 170 231 105 15 48 188 65 100 16 179 240 97 22 112 162 243 14 40 222 4 174 204 71 194 62 0 30 128 167 234 210 119 34 31 43 116 248 106 53 250 186 216 238 252 36 111 234 236 162 101 174 228 159 7 85 20 146 112 46 222 116 35 6 116 33 32 191 131 152 124 67 60 102 84 17 208 108 124 254 229 57 138 135 19 58 229 9 203 166 145 51 191 124 193 195 150 186 189 202 146 150 17 221 68 129 212 39 21 237 128 199 210 188 226 217 130 175 241 219 164 224 200 239 
120 241 85 141 248 126 30 75 69 136 132 1 215 74 107 123 158 145 229 67 68 216 153 149 219 180 92 88 210 27 40 165 250 96 247 34 33 213 179 244 68 61 43 124 21 69 238 210 187 19 13 227 25 5 216 18 11 44 162 219 52 72 122 227 229 226 144 109 139 44 239 140 254 147 63 163 211 177 197 249 61 38 177 17 193 102 126 107 204 126 71 93 107 14 153 47 215 189 19 56 62 141 14 49 145 55 22 13 84 130 151 202 226 137 138 82 85 175 208 16 130 90 164 218 167 69 131 173 221 242 159 188 250 229 50 195 210 106 88 56 7 153 185 157 7 245 205 92 17 195 202 24 16 52 203 113 56 163 134 132 198 222 154 12 180 130 203 79 171 15 144 38 72 151 167 169 70 89 205 244 125 59 108 253 75 94 216 204 131 52 46 199 
235 166 169 154 31 35 7 62 184 7 4 63 215 166 44 68 44 140 10 9 16 193 158 242 54 246 74 128 60 173 83 53 127 40 237 87 234 139 44 237 178 100 138 53 200 65 144 211 159 116 30 224 72 20 41 162 36 215 68 217 138 129 77 105 125 69 98 110 202 217 241 90 238 68 138 237 147 15 7 134 10 77 137 8 240 128 61 227 26 116 154 119 125 231 233 60 135 241 212 107 208 131 87 210 170 14 179 153 120 95 197 10 237 34 235 8 164 19 158 27 50 208 200 210 87 72 195 11 16 223 219 140 86 190 35 158 158 125 6 56 197 142 90 31 136 233 190 27 23 200 22 133 182 37 103 138 116 94 59 91 111 67 18 167 151 27 154 60 249 74 104 128 155 107 100 16 8 209 211 10 173 106 30 135 243 44 163 136 104 233 184 147 
57 21 142 120 110 114 18 56 138 254 114 46 191 28 195 33 139 191 153 24 62 68 70 182 107 181 16 192 239 31 74 250 18 208 157 8 154 168 4 217 252 248 32 181 136 121 140 231 129 198 156 254 150 191 185 13 163 76 26 3 196 180 215 19 238 165 248 23 254 145 115 196 224 175 190 214 75 237 77 50 18 45 94 6 96 206 210 83 107 11 131 147 239 203 96 94 122 221 145 231 167 169 193 177 210 233 197 178 151 43 140 39 13 124 254 215 121 63 248 206 231 253 67 227 117 244 71 236 199 2 178 89 247 243 119 126 244 37 33 66 127 118 49 221 64 211 91 172 2 115 110 138 21 145 33 23 9 50 42 55 181 76 23 85 51 161 25 182 133 138 120 171 1 232 100 45 77 136 65 242 96 191 24 189 15 180 9 116 152 73 146 161 
163 143 198 184 189 175 143 137 194 120 198 157 19 241 87 58 199 252 210 1 214 245 154 133 154 151 180 180 156 243 253 202 14 246 203 211 217 125 69 172 240 125 87 167 26 44 131 192 92 252 49 200 114 220 165 70 13 224 199 249 87 4 29 227 187 125 167 75 176 187 228 33 162 193 87 42 183 60 203 184 157 25 149 126 20 1 3 204 224 150 214 196 12 235 11 204 46 169 231 178 22 66 207 139 141 215 21 55 73 9 165 172 46 98 14 116 149 93 22 94 77 187 206 126 167 213 6 126 106 211 158 130 105 88 245 235 162 25 122 105 72 254 159 23 179 22 2 169 173 71 8 250 85 212 71 253 172 165 206 54 105 91 90 16 93 199 109 137 144 36 225 27 65 75 84 94 223 36 203 225 220 240 122 38 165 234 243 68 183 131 126 106 
12 134 76 238 174 239 217 72 250 131 240 16 237 42 17 238 59 108 136 20 210 117 46 97 189 188 102 153 239 38 101 215 106 27 9 224 249 193 81 191 159 70 139 171 234 21 56 219 95 182 166 250 222 8 135 148 200 67 49 134 70 97 197 129 62 251 67 150 8 245 120 73 178 148 250 58 27 174 117 87 230 62 52 129 18 68 42 164 173 45 38 107 176 8 101 217 23 68 186 56 162 95 45 190 73 8 151 135 32 250 241 1 126 223 201 136 97 231 196 76 136 49 91 36 96 58 240 164 113 164 110 159 176 165 94 88 65 168 61 9 44 189 225 109 220 31 63 243 20 241 206 125 2 228 26 147 138 137 249 39 79 74 209 78 62 13 240 230 44 63 100 138 59 100 115 113 240 66 60 114 166 88 212 65 37 141 228 222 5 44 30 224 
222 197 32 2 249 65 82 82 31 249 130 84 47 190 98 102 115 63 55 11 64 133 225 147 92 22 89 173 53 6 121 63 125 191 62 186 89 138 220 152 153 16 191 12 108 236 203 147 99 70 156 12 220 94 166 31 2 138 119 49 81 132 148 30 88 125 92 132 80 178 55 11 31 165 189 243 37 101 131 207 31 246 207 222 206 112 101 13 13 48 68 132 36 78 36 22 49 15 78 132 65 133 250 193 252 161 234 117 59 108 239 91 105 232 163 210 149 115 3 132 44 139 220 200 143 91 0 188 62 194 38 56 134 6 144 130 77 151 102 45 146 212 251 47 103 147 244 99 60 85 159 60 173 56 157 78 95 101 212 138 141 103 178 108 217 135 180 105 63 208 229 129 228 66 182 162 115 43 5 216 252 71 30 193 205 201 109 83 162 33 240 14 
235 121 108 185 136 108 133 140 186 153 233 69 253 124 206 97 215 50 190 115 238 225 201 196 79 45 110 196 248 101 21 32 131 157 219 190 49 222 39 1 170 24 157 148 37 122 129 11 227 141 226 120 125 222 170 209 41 84 58 217 254 107 165 31 171 108 190 146 78 70 87 238 238 72 229 213 153 96 165 41 97 100 37 7 163 187 108 226 212 69 239 140 236 106 227 1 224 179 132 232 64 72 126 245 184 97 237 85 245 130 115 230 131 5 75 143 74 163 65 243 50 125 83 120 155 74 221 6 247 184 83 72 78 210 144 249 62 248 96 233 168 31 107 117 246 108 21 183 24 188 60 37 206 220 34 79 117 190 181 130 144 58 16 223 139 88 212 115 117 67 104 75 186 71 50 219 155 231 68 13 7 245 2 16 241 48 104 65 242 79 32 39 
57 54 29 169 241 245 189 78 12 54 214 97 56 211 170 18 45 86 245 37 7 162 142 250 183 22 113 178 245 126 107 111 248 118 76 158 180 2 161 233 235 85 159 212 26 59 43 134 160 111 89 198 196 130 227 225 239 183 205 163 138 253 173 52 109 56 146 198 253 37 76 101 158 193 235 252 125 109 78 233 254 128 186 98 212 237 217 183 222 112 58 218 163 132 158 252 121 15 107 108 137 140 84 120 60 17 138 233 200 241 207 73 52 180 150 175 44 189 225 218 178 203 128 83 79 30 123 39 55 118 47 24 99 131 187 128 227 247 143 139 240 79 105 17 13 78 48 58 241 45 173 89 251 0 81 111 66 220 201 7 134 102 180 116 229 171 64 76 8 92 173 229 164 1 233 7 103 181 181 1 26 252 50 138 63 56 61 104 237 117 151 214 
113 193 59 249 17 193 248 86 180 151 90 92 115 165 244 99 164 169 220 39 169 223 160 61 240 156 98 144 208 84 142 158 251 67 75 58 113 101 17 175 193 244 61 44 104 20 75 232 251 154 58 99 82 0 179 231 198 254 53 216 47 224 57 167 54 117 60 78 61 251 154 246 129 95 86 89 90 124 154 5 173 124 219 154 26 53 11 175 168 163 185 231 111 12 237 154 43 170 178 101 75 58 195 6 111 188 119 51 28 211 230 25 116 99 32 176 33 113 69 80 145 238 157 134 214 212 130 104 29 51 240 82 19 226 38 173 44 94 230 34 248 245 40 28 138 224 143 223 171 89 244 239 87 8 76 22 74 197 25 217 217 30 189 52 146 124 156 69 205 32 170 13 50 237 185 150 115 118 243 0 254 149 53 86 197 195 140 249 146 68 186 162 
224 118 17 39 152 62 219 39 230 146 131 59 190 206 253 237 20 235 6 241 65 195 156 66 63 137 31 117 172 128 164 182 140 250 227 30 173 158 155 128 243 176 123 100 238 34 80 75 177 210 118 161 27 142 69 3 118 6 92 12 161 137 39 82 251 190 133 215 5 113 148 201 185 77 165 15 175 213 39 226 150 157 195 85 155 115 180 171 178 40 105 93 68 35 46 59 87 232 247 154 24 51 125 241 235 64 58 174 42 238 138 33 64 138 138 26 248 45 31 49 216 71 137 244 144 132 248 175 254 111 109 53 157 174 45 24 67 111 199 132 177 140 176 226 135 153 50 68 167 87 10 177 154 26 102 180 165 51 0 15 115 164 111 170 128 138 164 140 207 85 14 121 102 85 127 174 150 96 161 182 185 71 140 183 97 35 216 180 27 174 112 48 
157 43 2 84 237 167 176 244 203 210 164 129 87 214 211 41 214 123 161 37 117 231 77 125 243 109 24 33 149 45 115 132 224 112 164 228 18 102 152 160 207 37 76 133 231 182 135 90 211 77 237 40 98 108 254 55 28 80 183 183 21 237 253 163 78 54 188 68 110 128 236 62 250 152 185 101 65 132 86 186 195 217 220 87 240 67 82 1 36 219 6 241 85 189 3 189 143 205 106 168 39 1 141 250 5 198 181 102 20 128 220 62 128 73 252 148 89 243 80 37 210 8 12 171 253 218 131 103 232 89 214 192 56 193 205 66 153 194 175 217 88 107 136 228 154 124 138 47 74 52 206 120 33 156 93 5 243 76 251 114 40 0 226 111 153 185 107 134 190 254 28 173 253 18 123 204 16 177 171 84 73 86 227 146 188 242 70 249 137 122 245 11 
226 204 253 16 40 2 126 195 205 137 181 239 116 219 42 118 88 242 80 38 196 84 129 237 200 12 185 123 159 148 23 167 34 78 48 146 178 171 190 12 234 105 182 178 171 28 1 217 111 90 36 105 81 59 17 41 79 101 104 158 65 88 106 207 140 122 17 89 77 74 225 234 79 167 176 169 53 192 171 235 78 40 62 104 248 2 210 29 122 210 109 90 171 77 56 127 208 129 221 228 74 251 34 183 93 102 84 13 147 242 104 177 44 93 64 92 164 154 33 57 175 76 84 6 84 73 175 70 145 109 122 56 140 132 209 17 44 161 145 49 147 104 209 66 237 27 79 4 122 253 160 153 32 195 1 59 61 184 52 90 209 41 186 38 171 164 45 215 25 7 143 244 45 228 119 142 249 241 19 221 177 85 4 80 32 33 183 201 229 163 80 121 
162 148 127 103 238 126 109 177 178 247 159 110 100 52 136 35 130 30 42 100 16 121 8 7 19 111 92 123 173 46 128 150 214 237 20 194 193 191 13 171 76 37 196 249 76 139 153 219 123 247 229 141 56 78 40 138 225 190 104 170 163 215 82 133 72 190 123 132 61 91 19 141 168 32 11 183 184 102 55 51 136 208 246 112 128 71 5 223 102 31 81 13 61 20 243 112 241 146 173 220 171 53 70 250 133 197 3 163 164 0 91 100 33 169 128 155 82 134 175 131 160 149 58 22 213 137 57 23 84 186 30 58 225 90 92 203 124 248 150 119 167 150 240 181 1 119 198 137 164 28 58 81 241 204 9 254 221 23 8 245 161 77 233 5 43 31 52 112 135 102 206 10 158 125 11 191 159 251 100 70 230 128 216 7 46 36 118 123 105 249 47 17 
254 196 182 240 180 164 190 165 157 131 135 21 141 85 203 51 14 87 156 66 241 108 93 51 153 149 56 47 231 50 190 35 87 166 124 211 195 184 97 175 238 27 226 113 74 39 221 172 157 226 15 113 43 71 135 98 50 234 93 74 210 98 230 231 195 43 133 173 86 124 100 64 200 184 33 224 104 58 120 97 17 134 204 224 160 85 162 212 246 155 192 201 231 225 115 92 240 83 15 71 233 211 79 197 104 25 92 254 35 71 217 132 203 39 112 199 145 133 115 18 178 143 250 227 116 234 211 233 241 125 226 82 133 196 228 143 63 15 196 173 194 86 77 210 100 128 18 7 166 147 31 16 12 239 110 38 24 189 144 94 88 127 157 249 223 250 47 85 241 4 72 110 196 13 88 150 66 121 111 182 106 13 142 74 28 44 83 188 247 110 51 222 
68 104 193 19 104 90 6 67 157 172 7 33 121 51 184 219 51 234 94 197 130 233 38 248 163 109 121 174 211 69 22 199 166 33 222 217 248 86 76 78 176 40 134 141 248 127 7 172 198 133 223 26 249 21 96 207 104 70 129 204 224 163 27 53 94 253 79 112 188 228 85 247 216 111 254 125 215 53 186 76 3 104 236 107 26 160 236 2 91 186 189 53 65 120 202 236 212 31 175 62 170 135 115 185 228 7 81 187 1 112 95 63 167 152 182 33 221 123 196 138 210 156 90 190 133 76 122 77 113 20 194 68 109 122 48 130 125 74 193 177 136 82 29 193 178 158 234 104 26 77 170 110 123 31 40 47 207 182 179 131 253 185 175 43 191 218 26 249 100 56 157 180 64 195 105 250 251 234 1 41 197 139 21 238 178 171 194 109 1 97 26 177 
108 214 34 164 224 243 126 134 206 78 232 125 190 166 87 140 249 124 183 131 19 99 145 112 242 120 141 202 182 33 152 30 92 187 43 66 67 233 246 238 75 37 159 154 186 144 39 130 35 104 105 235 249 68 220 179 113 117 231 226 55 116 135 186 44 94 43 114 244 186 39 45 225 220 112 122 71 53 100 58 65 185 196 1 136 41 217 248 139 182 73 84 73 68 180 157 240 125 124 250 27 107 197 8 2 218 179 182 226 146 95 133 193 23 75 124 69 22 117 189 47 43 70 193 25 48 80 160 132 175 184 141 163 210 249 8 222 81 182 159 98 224 87 128 230 79 54 50 117 98 70 75 117 47 122 105 114 127 243 95 113 163 68 193 65 102 211 233 126 196 131 115 199 122 70 58 228 8 229 19 177 41 73 6 6 46 63 168 26 107 144 183 
95 65 98 214 55 47 186 90 227 110 83 164 176 9 201 10 117 186 185 32 241 227 147 191 79 203 107 88 47 206 238 63 207 11 129 71 59 205 108 43 93 111 237 170 43 195 87 154 58 66 214 3 156 117 113 47 141 107 105 174 164 155 23 65 229 177 80 106 32 184 67 100 102 59 160 190 78 88 146 202 54 39 225 139 140 5 175 54 249 69 115 191 43 179 56 3 4 138 160 64 100 26 27 142 144 202 254 11 243 46 194 218 82 54 74 164 219 179 30 173 97 169 155 20 16 49 30 227 151 161 245 172 116 70 104 167 209 140 165 239 46 120 61 81 163 214 118 127 101 82 186 165 132 28 1 69 200 225 136 110 107 100 100 18 122 37 96 12 229 245 62 79 17 128 8 197 125 189 123 226 37 54 27 113 62 91 54 66 61 163 185 150 
154 52 35 22 159 188 114 110 4 26 80 137 119 237 110 190 6 59 223 194 104 14 84 151 233 77 59 117 87 155 64 2 140 251 238 50 210 222 57 83 240 199 215 132 167 176 122 158 185 87 80 153 178 150 252 247 44 173 26 27 85 127 7 213 80 192 134 18 235 133 110 105 216 145 236 200 102 62 113 105 148 8 62 169 194 62 129 64 84 54 24 214 96 215 47 232 74 131 138 174 168 122 26 146 215 16 39 186 74 82 151 106 238 242 21 25 87 122 183 32 124 219 14 38 122 36 38 230 218 181 215 86 235 85 29 249 82 146 211 78 67 26 205 8 216 172 250 83 101 79 215 174 160 51 13 194 96 106 216 99 19 187 139 6 89 245 248 69 116 106 36 141 177 142 233 56 58 43 195 198 21 149 119 143 249 136 28 46 181 139 161 25 
142 204 136 207 225 4 182 125 3 173 66 107 220 114 191 204 71 243 111 216 145 142 156 15 19 9 52 185 44 241 45 111 88 108 150 213 159 29 103 44 158 8 25 141 120 129 114 216 14 150 175 225 202 70 192 192 59 180 51 247 98 237 170 77 151 26 198 14 125 63 83 7 201 64 27 224 54 203 247 8 57 90 149 122 238 30 206 127 139 72 223 146 167 46 254 80 210 220 185 21 113 143 169 125 217 10 234 251 125 159 107 159 153 30 72 146 12 62 135 27 224 163 46 138 6 161 85 170 41 178 92 144 56 116 38 144 231 162 196 174 238 209 241 24 98 249 104 217 201 155 59 205 224 127 109 70 78 245 213 133 171 209 252 132 37 69 204 193 182 82 37 198 51 1 95 55 187 157 71 209 99 117 143 0 150 41 35 17 209 77 125 208 
250 80 245 208 236 190 202 231 212 66 192 9 151 57 64 222 19 3 252 21 3 70 220 154 149 52 97 242 136 223 187 62 142 54 47 150 154 51 106 59 219 164 222 3 240 159 174 144 59 184 179 154 169 48 4 66 32 93 91 124 116 174 79 89 170 118 214 9 8 210 81 35 52 164 23 243 147 202 11 168 25 205 157 12 150 108 174 68 211 61 87 119 236 103 205 71 188 224 31 146 226 145 199 249 122 157 56 144 201 65 164 131 194 88 66 160 254 114 225 142 66 92 0 199 86 238 12 125 181 106 82 143 162 129 246 29 66 172 190 83 55 132 126 47 118 12 51 193 207 113 78 59 243 190 42 82 167 254 206 62 38 25 179 11 227 78 44 215 97 84 55 113 42 157 247 233 15 204 33 163 39 20 209 155 208 25 244 190 177 111 45 172 
98 61 80 252 47 41 152 54 77 247 135 120 161 162 200 214 156 48 233 135 36 150 11 124 105 79 169 174 209 59 194 234 188 68 251 4 233 49 112 15 215 82 216 25 215 169 143 149 248 49 127 43 134 249 90 96 11 163 231 129 223 63 33 160 85 26 236 91 110 34 228 130 63 3 124 5 75 27 134 248 213 73 11 105 219 153 210 230 142 104 22 70 116 8 134 140 229 66 177 170 44 157 169 180 90 121 17 30 155 188 202 156 57 242 190 65 109 80 149 163 17 25 220 139 209 176 5 110 89 235 111 175 140 167 104 152 241 144 179 195 81 27 168 107 44 213 141 44 224 58 244 156 57 4 46 248 22 220 232 191 96 171 147 228 39 241 175 85 115 9 147 170 69 254 86 50 135 141 99 148 231 214 43 68 60 134 111 232 55 124 181 211 
163 106 19 209 9 175 147 197 96 17 49 226 121 181 12 45 247 155 231 210 130 50 37 48 231 133 10 107 158 145 202 103 2 156 102 225 59 115 72 130 45 204 167 15 214 73 93 83 220 180 172 166 76 164 128 154 33 183 89 169 171 183 89 35 41 19 176 118 71 111 171 142 50 215 251 176 217 193 231 34 24 180 93 23 186 86 47 158 230 101 144 109 147 152 36 82 30 109 133 58 76 53 197 80 201 5 42 220 56 162 86 154 170 199 192 140 253 23 149 190 112 105 167 102 187 193 28 87 119 163 81 38 183 46 134 100 154 208 25 117 245 197 196 204 127 57 57 181 45 89 7 119 205 138 144 81 154 29 153 106 143 246 230 64 169 114 6 93 19 78 1 208 173 160 46 195 78 25 236 97 7 99 33 8 167 70 156 170 201 123 100 50 
71 171 251 162 68 70 135 250 47 140 20 131 243 25 49 89 0 60 112 23 146 26 93 74 158 229 63 32 198 181 156 241 202 191 79 248 213 238 118 36 172 110 91 98 74 175 53 146 164 149 185 116 37 180 51 179 215 243 195 228 135 191 87 253 20 103 2 13 197 144 191 34 3 174 55 148 133 148 232 27 50 253 74 77 173 125 210 128 226 245 126 182 213 112 138 112 51 139 163 184 92 201 118 231 11 113 166 155 75 167 173 126 83 57 129 27 58 30 80 149 238 106 228 209 139 148 2 201 219 126 212 223 43 7 146 240 96 189 217 28 57 217 165 127 23 184 243 109 192 139 144 19 136 126 240 73 63 95 131 17 211 184 159 105 5 213 35 101 142 8 129 170 151 213 157 6 195 157 229 101 208 145 113 131 91 211 237 199 42 99 248 42 
